<?xml version="1.0" standalone="no"?>
<!DOCTYPE svg PUBLIC "-//W3C//DTD SVG 1.1//EN" "http://www.w3.org/Graphics/SVG/1.1/DTD/svg11.dtd" >
<svg xmlns="http://www.w3.org/2000/svg" xmlns:xlink="http://www.w3.org/1999/xlink" version="1.1">
<metadata>
Created by FontForge 20201107 at Fri Jul 29 16:20:28 2011
 By Jimmy Wärting
Copyright (c) 2011 ParaType Inc., ParaType Ltd. All rights reserved.
</metadata>
<defs>
<font id="Circe-Regular" horiz-adv-x="592" >
  <font-face 
    font-family="Circe"
    font-weight="400"
    font-stretch="normal"
    units-per-em="1000"
    panose-1="2 11 5 2 2 2 3 2 2 3"
    ascent="773"
    descent="-227"
    x-height="450"
    cap-height="700"
    bbox="-534 -392 1681 1005"
    underline-thickness="50"
    underline-position="-200"
    unicode-range="U+0020-FB02"
  />
<missing-glyph horiz-adv-x="225" 
 />
    <glyph glyph-name="uniF350.var.accented" unicode="&#xf350;`" horiz-adv-x="590" 
d="M12 0l246 528h74l246 -528h-91l-64 140h-261l-64 -140h-86zM293 426l-95 -206h189zM409 705l-135 -125l-40 44l126 142z" />
    <glyph glyph-name="uniF355.var.accented" unicode="&#xf355;`" horiz-adv-x="488" 
d="M84 0v525h340v-80h-255v-140h230v-80h-230v-145h263v-80h-348zM367 705l-135 -125l-40 44l126 142z" />
    <glyph glyph-name="uniF358.var.accented" unicode="&#xf358;`" horiz-adv-x="656" 
d="M159 0h-75v525h85v-390l328 390h75v-525h-85v390zM437 705l-135 -125l-40 44l126 142z" />
    <glyph glyph-name="uniF35E.var.accented" unicode="&#xf35e;`" horiz-adv-x="655" 
d="M40 262q0 115 81 192.5t207 77.5q124 0 205.5 -75t81.5 -195q0 -118 -81.5 -194.5t-205.5 -76.5q-125 0 -206.5 75t-81.5 196zM130 262q0 -81 57 -136t141 -55q90 0 143.5 54t53.5 137t-56.5 136.5t-140.5 53.5q-85 0 -141.5 -53.5t-56.5 -136.5zM448 705l-135 -125
l-40 44l126 142z" />
    <glyph glyph-name="uniF363.var.accented" unicode="&#xf363;`" horiz-adv-x="546" 
d="M536 525l-197 -401q-31 -63 -67 -93.5t-85 -30.5q-42 0 -69 20l30 72q22 -13 43 -13q35 0 61 48l10 18l-251 380h106l189 -296l143 296h87zM397 705l-135 -125l-40 44l126 142z" />
    <glyph glyph-name="uniF36B.var.accented" unicode="&#xf36b;`" horiz-adv-x="706" 
d="M537 0v525h85v-525h-85zM233 265q-25 0 -64 -3v-182q40 -2 62 -2q131 0 131 97q0 90 -129 90zM169 525v-183q42 3 71 3q105 0 158.5 -44.5t53.5 -123.5q0 -83 -61.5 -131t-169.5 -48q-28 0 -75 1t-62 1v525h85zM447 705l-135 -125l-40 44l126 142z" />
    <glyph glyph-name="uniF36D.var.accented" unicode="&#xf36d;`" horiz-adv-x="557" 
d="M157 228v80h272q-14 70 -67 107.5t-138 37.5q-99 0 -157 -41l-34 64q75 57 195 57q129 0 209.5 -74t80.5 -196q0 -123 -81.5 -197t-217.5 -74q-121 0 -193 55l37 71q66 -46 166 -46q83 0 137 40.5t64 115.5h-273zM347 705l-135 -125l-40 44l126 142z" />
    <glyph glyph-name="uniF36E.var.accented" unicode="&#xf36e;`" horiz-adv-x="871" 
d="M84 0v525h85v-217h112q14 99 87 162t184 63q127 0 203 -74t76 -196q0 -120 -76.5 -195.5t-202.5 -75.5q-111 0 -186 64.5t-86 171.5h-111v-228h-85zM368 263q0 -83 52 -137t134 -54q86 0 136.5 54t50.5 137q0 85 -51.5 137.5t-135.5 52.5q-82 0 -134 -53t-52 -137z
M538 705l-135 -125l-40 44l126 142z" />
    <glyph glyph-name="uniF36F.var.accented" unicode="&#xf36f;`" horiz-adv-x="534" 
d="M365 0v180h-112l-134 -180h-101l149 197q-45 20 -74 58t-29 90q0 79 57 131t169 52q32 0 89 -1.5t71 -1.5v-525h-85zM245 260h120v185q-51 3 -83 3q-62 0 -95 -27.5t-33 -70.5q0 -35 27 -59.5t64 -30.5zM397 705l-135 -125l-40 44l126 142z" />
    <glyph glyph-name="uniF371.var.accented" unicode="&#xf371;`" horiz-adv-x="488" 
d="M84 654q0 19 14 31t34 12q17 0 30 -12t13 -31q0 -21 -13 -33.5t-30 -12.5q-20 0 -34 12.5t-14 33.5zM332 654q0 19 13.5 31t32.5 12q18 0 31 -12t13 -31q0 -21 -13 -33.5t-31 -12.5q-19 0 -32.5 12.5t-13.5 33.5zM337 723l-109 -143l-45 28l85 158zM84 0v525h340v-80
h-255v-140h230v-80h-230v-145h263v-80h-348z" />
    <glyph glyph-name="afii10017.var.accented" unicode="&#x410;`" horiz-adv-x="705" 
d="M15 0l301 704h73l301 -704h-91l-90 212h-319l-89 -212h-86zM350 591l-126 -299h252zM513 819l-202 -84l-23 48l195 104z" />
    <glyph glyph-name="afii10022.var.accented" unicode="&#x415;`" horiz-adv-x="575" 
d="M105 0v700h395v-80h-310v-226h280v-80h-280v-234h320v-80h-405zM463 819l-202 -84l-23 48l195 104z" />
    <glyph glyph-name="afii10026.var.accented" unicode="&#x418;`" horiz-adv-x="795" 
d="M180 0h-75v700h85v-560l425 560h75v-700h-85v560zM553 819l-202 -84l-23 48l195 104z" />
    <glyph glyph-name="afii10032.var.accented" unicode="&#x41e;`" horiz-adv-x="814" 
d="M50 350q0 153 101 256.5t256 103.5q154 0 255.5 -101t101.5 -259q0 -155 -102 -257.5t-255 -102.5q-154 0 -255.5 101t-101.5 259zM140 350q0 -119 77 -199.5t190 -80.5q118 0 192.5 80t74.5 200q0 121 -77 200.5t-190 79.5q-115 0 -191 -79t-76 -201zM563 819l-202 -84
l-23 48l195 104z" />
    <glyph glyph-name="afii10037.var.accented" unicode="&#x423;`" horiz-adv-x="666" 
d="M651 700l-242 -540q-37 -83 -77.5 -121.5t-96.5 -38.5q-53 0 -85 25l30 72q26 -18 54 -18q52 0 86 71l12 26l-317 524h96l262 -439l192 439h86zM508 819l-202 -84l-23 48l195 104z" />
    <glyph glyph-name="afii10045.var.accented" unicode="&#x42b;`" horiz-adv-x="845" 
d="M655 0v700h85v-700h-85zM277 365q-35 0 -87 -6v-278q81 -3 84 -3q178 0 178 149q0 67 -45 102.5t-130 35.5zM190 700v-260q63 5 93 5q129 0 194 -57t65 -159q0 -110 -73.5 -170.5t-204.5 -60.5q-32 0 -86.5 1t-72.5 1v700h85zM563 819l-202 -84l-23 48l195 104z" />
    <glyph glyph-name="afii10047.var.accented" unicode="&#x42d;`" horiz-adv-x="677" 
d="M193 317v80h346q-13 109 -89 171t-194 62q-103 0 -177 -57l-33 64q83 73 230 73q157 0 254 -98t97 -260q0 -161 -98 -261.5t-261 -100.5q-142 0 -233 73l37 71q85 -64 194 -64q112 0 187.5 66.5t86.5 180.5h-347zM443 819l-202 -84l-23 48l195 104z" />
    <glyph glyph-name="afii10048.var.accented" unicode="&#x42e;`" horiz-adv-x="1078" 
d="M105 0v700h85v-303h151q15 137 108.5 225t231.5 88q153 0 250 -100.5t97 -259.5q0 -156 -97.5 -258t-249.5 -102q-138 0 -234.5 91t-106.5 236h-150v-317h-85zM429 350q0 -119 72.5 -199.5t181.5 -80.5q118 0 186.5 79t68.5 201q0 123 -71 201.5t-184 78.5
q-110 0 -182 -79t-72 -201zM713 819l-202 -84l-23 48l195 104z" />
    <glyph glyph-name="afii10049.var.accented" unicode="&#x42f;`" horiz-adv-x="623" 
d="M433 0v260h-131l-181 -260h-96l194 275q-59 24 -98.5 75t-39.5 121q0 101 69 166.5t204 65.5q24 0 84 -1.5t80 -1.5v-700h-85zM292 340h141v280q-69 3 -95 3q-79 0 -123 -41t-44 -106q0 -53 36 -90.5t85 -45.5zM518 819l-202 -84l-23 48l195 104z" />
    <glyph glyph-name="afii10023.var.accented" unicode="&#x401;`" horiz-adv-x="575" 
d="M124 813q0 21 12 33t31 12q17 0 29 -12.5t12 -32.5q0 -23 -12 -36t-29 -13q-19 0 -31 13t-12 36zM403 813q0 20 13 32.5t31 12.5q17 0 29 -12.5t12 -32.5q0 -23 -12 -36t-29 -13q-18 0 -31 13t-13 36zM403 866l-139 -125l-29 15l101 131zM105 0v700h395v-80h-310v-226
h280v-80h-280v-234h320v-80h-405z" />
    <glyph glyph-name="afii10065.var.accented" unicode="&#x430;`" horiz-adv-x="460" 
d="M96 355l-21 64q66 41 150 41q93 0 133 -46t40 -138v-276h-76v58q-52 -65 -144 -65q-62 0 -100 37.5t-38 101.5q0 67 47.5 105t122.5 38q72 0 112 -29q0 72 -20 107t-82 35q-61 0 -124 -33zM206 65q67 0 116 58v57q-42 30 -101 30q-40 0 -68 -19t-28 -55q0 -33 21.5 -52
t59.5 -19zM355 674l-120 -143l-48 34l106 157z" />
    <glyph glyph-name="afii10070.var.accented" unicode="&#x435;`" horiz-adv-x="520" 
d="M427 112l25 -63q-65 -59 -169 -59q-109 0 -175 64t-66 171q0 102 62 168.5t170 66.5q89 0 149 -57.5t60 -148.5q0 -31 -5 -54h-346q5 -63 47.5 -99t109.5 -36q88 0 138 47zM270 385q-60 0 -98 -33.5t-45 -86.5h273q-3 56 -37.5 88t-92.5 32zM384 674l-120 -143l-48 34
l106 157z" />
    <glyph glyph-name="afii10074.var.accented" unicode="&#x438;`" horiz-adv-x="565" 
d="M152 0h-80v450h80v-335l260 335h80v-450h-80v335zM392 674l-120 -143l-48 34l106 157z" />
    <glyph glyph-name="afii10080.var.accented" unicode="&#x43e;`" horiz-adv-x="565" 
d="M42 225q0 102 66.5 168.5t173.5 66.5t173.5 -66.5t66.5 -168.5t-66.5 -168.5t-173.5 -66.5t-173.5 66.5t-66.5 168.5zM127 225q0 -70 43.5 -115t111.5 -45t111.5 44.5t43.5 115.5q0 70 -43.5 115t-111.5 45q-67 0 -111 -44.5t-44 -115.5zM397 674l-120 -143l-48 34
l106 157z" />
    <glyph glyph-name="afii10085.var.accented" unicode="&#x443;`" horiz-adv-x="491" 
d="M481 450l-180 -450q-48 -117 -85 -158.5t-87 -41.5q-43 0 -85 28l26 61q32 -15 50 -15q28 0 50.5 24t45.5 78l10 24l-216 450h96l132 -286q4 -9 27 -68q9 33 21 69l104 285h91zM370 674l-120 -143l-48 34l106 157z" />
    <glyph glyph-name="afii10093.var.accented" unicode="&#x44b;`" horiz-adv-x="642" 
d="M72 0v450h80v-135h74q96 0 137 -43.5t41 -111.5t-44.5 -114t-142.5 -46h-145zM490 0v450h80v-450h-80zM211 240h-59v-165h58q58 0 83.5 20.5t25.5 61.5q0 83 -108 83zM420 674l-120 -143l-48 34l106 157z" />
    <glyph glyph-name="afii10095.var.accented" unicode="&#x44d;`" horiz-adv-x="489" 
d="M142 196v65h221q-9 61 -51 92.5t-105 31.5q-83 0 -138 -49l-34 60q30 30 78 47t93 17q107 0 173.5 -64t66.5 -171q0 -99 -65 -167t-163 -68q-123 0 -181 57l38 59q45 -41 138 -41q63 0 103 34.5t48 96.5h-222zM332 674l-120 -143l-48 34l106 157z" />
    <glyph glyph-name="afii10096.var.accented" unicode="&#x44e;`" horiz-adv-x="760" 
d="M72 0v450h85v-180h98q14 85 75 137.5t152 52.5q105 0 170 -66.5t65 -168.5t-65.5 -168.5t-169.5 -66.5q-94 0 -155.5 55.5t-72.5 144.5h-97v-190h-85zM342 225q0 -70 40 -112.5t103 -42.5t102.5 42.5t39.5 112.5q0 69 -39 112t-103 43q-63 0 -103 -43t-40 -112zM497 674
l-120 -143l-48 34l106 157z" />
    <glyph glyph-name="afii10097.var.accented" unicode="&#x44f;`" horiz-adv-x="482" 
d="M269 450h140v-450h-80v150h-87l-110 -150h-97l130 170q-39 9 -68 43.5t-29 86.5q0 65 48 107.5t153 42.5zM153 298q0 -33 26 -53t58 -20h92v150h-73q-53 0 -78 -21.5t-25 -55.5zM393 674l-120 -143l-48 34l106 157z" />
    <glyph glyph-name="afii10071.var.accented" unicode="&#x451;`" horiz-adv-x="520" 
d="M96 602q0 18 11.5 28.5t28.5 10.5q15 0 26 -11t11 -28q0 -19 -11 -30t-26 -11q-17 0 -28.5 11t-11.5 30zM360 602q0 17 12 28t28 11q15 0 26 -11t11 -28q0 -19 -11 -30t-26 -11q-17 0 -28.5 11t-11.5 30zM360 674l-120 -143l-39 27l107 157zM427 112l25 -63
q-65 -59 -169 -59q-109 0 -175 64t-66 171q0 102 62 168.5t170 66.5q89 0 149 -57.5t60 -148.5q0 -31 -5 -54h-346q5 -63 47.5 -99t109.5 -36q88 0 138 47zM270 385q-60 0 -98 -33.5t-45 -86.5h273q-3 56 -37.5 88t-92.5 32z" />
    <glyph glyph-name="fi" unicode="fi" horiz-adv-x="514" 
d="M364 0v375h-202v-375h-80v511q0 100 50 149.5t138 49.5q109 0 165 -74l-58 -47q-35 46 -94 46q-121 0 -121 -133v-52h282v-450h-80z" />
    <glyph glyph-name="fl" unicode="fl" horiz-adv-x="561" 
d="M344 120v487q-38 28 -82 28q-100 0 -100 -121v-64h103v-75h-103v-375h-80v523q0 93 41 140t117 47q72 0 114 -32h70v-522q0 -46 12.5 -67.5t40.5 -21.5q26 0 56 20l18 -61q-41 -34 -106 -34q-101 0 -101 128z" />
    <glyph glyph-name=".notdef" horiz-adv-x="225" 
 />
    <glyph glyph-name=".null" horiz-adv-x="0" 
 />
    <glyph glyph-name="nonmarkingreturn" horiz-adv-x="333" 
 />
    <glyph glyph-name="space" unicode=" " horiz-adv-x="225" 
 />
    <glyph glyph-name="exclam" unicode="!" horiz-adv-x="310" 
d="M112 215v485h85v-485h-85zM99 54q0 21 16 37t42 16q22 0 37.5 -16.5t15.5 -36.5q0 -23 -15 -40t-38 -17q-26 0 -42 17t-16 40z" />
    <glyph glyph-name="quotedbl" unicode="&#x22;" horiz-adv-x="415" 
d="M250 477v223h80v-223h-80zM85 477v223h80v-223h-80z" />
    <glyph glyph-name="numbersign" unicode="#" horiz-adv-x="704" 
d="M317 12l67 183h-184l-76 -205l-63 22l68 183h-89v70h115l63 170h-178v70h204l76 205l63 -23l-68 -182h184l76 205l63 -22l-68 -183h94v-70h-120l-63 -170h183v-70h-209l-76 -205zM289 435l-63 -170h184l63 170h-184z" />
    <glyph glyph-name="dollar" unicode="$" 
d="M430 179q0 35 -19 61t-49 42.5t-66.5 31.5t-73 32.5t-66.5 39.5t-49 58t-19 83q0 69 47 118.5t127 61.5v83h80v-82q101 -12 155 -71l-46 -64q-57 57 -142 57q-62 0 -96.5 -28t-34.5 -75q0 -35 19 -61t49 -42t66.5 -30.5t73 -31.5t66.5 -38.5t49 -58.5t19 -85
q0 -74 -49.5 -124.5t-128.5 -61.5v-94h-80v92q-61 7 -112.5 34.5t-73.5 68.5l49 58q30 -39 78 -61t95 -22q57 0 94.5 29t37.5 80z" />
    <glyph glyph-name="percent" unicode="%" horiz-adv-x="877" 
d="M159 23l514 687l46 -34l-513 -686zM45 537q0 75 51.5 122t131.5 47t131.5 -47t51.5 -122t-52 -122.5t-131 -47.5t-131 47.5t-52 122.5zM120 537q0 -47 32 -76t76 -29q45 0 76.5 29t31.5 76q0 46 -31.5 75t-76.5 29t-76.5 -29t-31.5 -75zM466 164q0 75 51.5 122t131.5 47
t131.5 -47t51.5 -122t-52 -122.5t-131 -47.5t-131 47.5t-52 122.5zM541 164q0 -47 32 -76t76 -29q45 0 76.5 29t31.5 76q0 46 -31.5 75t-76.5 29t-76.5 -29t-31.5 -75z" />
    <glyph glyph-name="ampersand" unicode="&#x26;" horiz-adv-x="744" 
d="M584 0l-73 92q-79 -102 -215 -102q-99 0 -162.5 56.5t-63.5 143.5q0 79 44.5 135t121.5 108q-42 14 -67.5 48.5t-25.5 83.5q0 63 45.5 104t108.5 41t109 -40.5t46 -104.5q0 -48 -30.5 -86.5t-73.5 -46.5l170 -219q58 102 58 237h79q0 -175 -88 -301l117 -149h-100z
M298 70q106 0 164 86l-175 230q-62 -47 -94.5 -89t-32.5 -91q0 -59 40.5 -97.5t97.5 -38.5zM218 565q0 -32 23 -55.5t56 -23.5t56.5 23t23.5 56t-23.5 56.5t-56.5 23.5t-56 -23t-23 -57z" />
    <glyph glyph-name="quotesingle" unicode="'" horiz-adv-x="250" 
d="M85 477v223h80v-223h-80z" />
    <glyph glyph-name="parenleft" unicode="(" horiz-adv-x="293" 
d="M293 -162l-51 -44q-202 174 -202 431q0 248 203 431l50 -44q-91 -87 -132 -180.5t-41 -206.5q0 -111 45 -212t128 -175z" />
    <glyph glyph-name="parenright" unicode=")" horiz-adv-x="293" 
d="M51 -206l-51 44q83 74 128 175t45 212q0 113 -41 206.5t-132 180.5l50 44q203 -183 203 -431q0 -257 -202 -431z" />
    <glyph glyph-name="asterisk" unicode="*" horiz-adv-x="479" 
d="M189 657q0 21 15.5 36.5t35.5 15.5q22 0 37.5 -15.5t15.5 -36.5q0 -22 -15 -36.5t-38 -14.5q-21 0 -36 15t-15 36zM187 375q0 22 15.5 38t36.5 16t37 -16t16 -38q0 -20 -16 -36t-37 -16q-20 0 -36 16t-16 36zM305 584q0 22 14.5 37.5t35.5 15.5q22 0 37.5 -15.5
t15.5 -37.5q0 -21 -15.5 -36.5t-37.5 -15.5q-21 0 -35.5 15.5t-14.5 36.5zM305 451q0 22 14.5 37t35.5 15q22 0 37.5 -15t15.5 -37t-15.5 -37.5t-37.5 -15.5q-21 0 -35.5 15.5t-14.5 37.5zM71 451q0 22 15 37t36 15q22 0 37 -15t15 -37t-15 -37.5t-37 -15.5q-21 0 -36 15.5
t-15 37.5zM71 584q0 22 15 37.5t36 15.5q22 0 37 -15.5t15 -37.5q0 -21 -15 -36.5t-37 -15.5q-21 0 -36 15.5t-15 36.5z" />
    <glyph glyph-name="plus" unicode="+" 
d="M69 325v70h188v191h75v-191h191v-70h-191v-193h-75v193h-188z" />
    <glyph glyph-name="comma" unicode="," horiz-adv-x="223" 
d="M54 46q0 24 15 38.5t42 14.5q32 0 52 -26.5t20 -70.5q0 -55 -30 -94t-80 -54l-22 38q52 17 64 67q8 34 -1 50q-6 -9 -22 -9q-15 0 -26.5 13.5t-11.5 32.5z" />
    <glyph glyph-name="hyphen" unicode="-" horiz-adv-x="389" 
d="M75 235v75h239v-75h-239z" />
    <glyph glyph-name="period" unicode="." horiz-adv-x="210" 
d="M50 54q0 21 16 37t41 16q22 0 37.5 -16.5t15.5 -36.5q0 -23 -15 -40t-38 -17q-25 0 -41 17t-16 40z" />
    <glyph glyph-name="slash" unicode="/" horiz-adv-x="335" 
d="M-30 -185l333 895l62 -23l-332 -895z" />
    <glyph glyph-name="zero" unicode="0" horiz-adv-x="564" 
d="M55 350q0 165 56.5 261.5t170.5 96.5t170.5 -96.5t56.5 -261.5q0 -166 -55.5 -262t-169.5 -96t-171.5 96.5t-57.5 261.5zM140 350q0 -283 144 -283q74 0 107 71t33 212q0 140 -34 211.5t-108 71.5q-142 0 -142 -283z" />
    <glyph glyph-name="one" unicode="1" horiz-adv-x="379" 
d="M35 574l168 130h56v-704h-80v589l-102 -80z" />
    <glyph glyph-name="two" unicode="2" horiz-adv-x="527" 
d="M45 0v65q142 140 200 212q113 141 113 238q0 49 -29.5 81t-84.5 32q-45 0 -80 -29t-45 -83l-68 28q12 76 68 120t132 44q92 0 142 -52.5t50 -124.5q0 -68 -35.5 -143.5t-93.5 -143t-92.5 -102t-72.5 -67.5h323v-75h-427z" />
    <glyph glyph-name="three" unicode="3" horiz-adv-x="532" 
d="M247 -10q-74 0 -129.5 31t-82.5 89l46 57q25 -47 69 -72t94 -25q64 0 101 35.5t37 90.5q0 56 -39.5 89t-103.5 33h-55v80h50q48 0 84.5 34.5t36.5 86.5t-30.5 81.5t-83.5 29.5q-94 0 -144 -87l-45 55q24 53 75.5 82.5t119.5 29.5q88 0 140.5 -47.5t52.5 -129.5
q0 -58 -28 -102t-81 -66v-3q63 -10 99.5 -57.5t36.5 -111.5q0 -92 -62 -147.5t-158 -55.5z" />
    <glyph glyph-name="four" unicode="4" horiz-adv-x="550" 
d="M343 0v175h-323v57l290 468h92l-277 -445h218v195h80v-195h97v-80h-97v-175h-80z" />
    <glyph glyph-name="five" unicode="5" horiz-adv-x="516" 
d="M99 348l44 352h316v-80h-246l-26 -189q26 7 56 7q97 0 159 -59.5t62 -157.5q0 -105 -66 -168t-162 -63q-60 0 -115.5 27t-85.5 79l46 59q25 -40 68.5 -62.5t88.5 -22.5q60 0 100.5 42t40.5 106t-46.5 106t-123.5 42q-64 0 -110 -18z" />
    <glyph glyph-name="six" unicode="6" horiz-adv-x="554" 
d="M50 248q0 92 31 174.5t81.5 140t109 95.5t118.5 52l33 -61q-100 -26 -178.5 -107t-100.5 -204q49 93 165 93q87 0 143.5 -60t56.5 -155q0 -99 -65 -162.5t-151 -63.5q-113 0 -178 74.5t-65 183.5zM135 248q0 -76 41 -127t116 -51q57 0 94.5 41.5t37.5 98.5q0 64 -37 105
t-105 41q-56 0 -94.5 -32.5t-52.5 -75.5z" />
    <glyph glyph-name="seven" unicode="7" horiz-adv-x="485" 
d="M30 620v80h420v-52l-258 -648h-88l249 620h-323z" />
    <glyph glyph-name="eight" unicode="8" horiz-adv-x="595" 
d="M285 400h26q45 0 78.5 34t33.5 81q0 53 -37 84t-90 31t-88.5 -32t-35.5 -83q0 -47 34 -81t79 -34zM310 320h-22q-57 0 -97.5 -35t-40.5 -89q0 -55 41.5 -90.5t105.5 -35.5q67 0 107.5 34.5t40.5 91.5q-1 57 -39.5 90.5t-95.5 33.5zM298 -10q-98 0 -165.5 52t-67.5 139
q0 64 36.5 112t95.5 65v3q-47 16 -78.5 62.5t-31.5 103.5q0 81 60.5 132t149.5 51t150 -51t61 -132q0 -52 -31 -98t-84 -67v-3q59 -10 98 -57t39 -115q0 -91 -67 -144t-165 -53z" />
    <glyph glyph-name="nine" unicode="9" horiz-adv-x="551" 
d="M501 447q0 -193 -98.5 -315.5t-251.5 -141.5l-27 63q118 23 192.5 101.5t90.5 201.5q-47 -87 -158 -87q-91 0 -150 61.5t-59 153.5q0 99 68 162.5t155 63.5q113 0 175.5 -73.5t62.5 -189.5zM416 447q0 77 -39 130t-113 53q-57 0 -98 -41.5t-41 -98.5q0 -61 38.5 -103.5
t105.5 -42.5q57 0 95 30.5t52 72.5z" />
    <glyph glyph-name="colon" unicode=":" horiz-adv-x="320" 
d="M105 406q0 21 16 37t41 16q22 0 37.5 -16.5t15.5 -36.5q0 -23 -15 -40t-38 -17q-25 0 -41 17t-16 40zM105 54q0 21 16 37t41 16q22 0 37.5 -16.5t15.5 -36.5q0 -23 -15 -40t-38 -17q-25 0 -41 17t-16 40z" />
    <glyph glyph-name="semicolon" unicode=";" horiz-adv-x="324" 
d="M105 406q0 21 16 37t41 16q22 0 37.5 -16.5t15.5 -36.5q0 -23 -15 -40t-38 -17q-25 0 -41 17t-16 40zM105 46q0 24 15 38.5t42 14.5q32 0 52 -26.5t20 -70.5q0 -55 -30 -94t-80 -54l-22 38q52 17 64 67q8 34 -1 50q-6 -9 -22 -9q-15 0 -26.5 13.5t-11.5 32.5z" />
    <glyph glyph-name="less" unicode="&#x3c;" 
d="M497 79l-440 266v34l440 264v-87l-329 -194l329 -196v-87z" />
    <glyph glyph-name="equal" unicode="=" 
d="M69 415v70h454v-70h-454zM69 235v70h454v-70h-454z" />
    <glyph glyph-name="greater" unicode="&#x3e;" 
d="M534 345l-439 -266v87l329 196l-329 194v87l439 -264v-34z" />
    <glyph glyph-name="question" unicode="?" horiz-adv-x="466" 
d="M350 520q0 46 -34.5 78t-87.5 32q-86 0 -140 -74l-48 53q28 45 79.5 73t113.5 28q94 0 148.5 -50t54.5 -123q0 -46 -16 -83t-40 -58t-50.5 -43t-48 -40t-33 -46t-4.5 -64l-72 -1q-10 52 4.5 89t42.5 60t57.5 44t51.5 52.5t22 72.5zM152 54q0 21 16 37t42 16
q22 0 37.5 -16.5t15.5 -36.5q0 -23 -15 -40t-38 -17q-26 0 -42 17t-16 40z" />
    <glyph glyph-name="at" unicode="@" horiz-adv-x="1006" 
d="M628 0v47q-57 -57 -139 -57q-102 0 -162.5 64t-60.5 171q0 99 72 167t181 68q108 0 189 -51v-334h21q62 0 99.5 55.5t37.5 139.5q0 136 -98.5 227t-254.5 91q-160 0 -266.5 -101.5t-106.5 -261.5q0 -155 107.5 -259t265.5 -104q57 0 108 12l5 -74q-59 -13 -113 -13
q-194 0 -321 125t-127 313q0 185 127.5 311.5t320.5 126.5q185 0 306.5 -109.5t121.5 -282.5q0 -110 -61 -190.5t-169 -80.5h-83zM502 65q37 0 71 17.5t55 41.5v232q-51 29 -110 29q-74 0 -120.5 -47.5t-46.5 -116.5q0 -72 41.5 -114t109.5 -42z" />
    <glyph glyph-name="A" unicode="A" horiz-adv-x="705" 
d="M15 0l301 704h73l301 -704h-91l-90 212h-319l-89 -212h-86zM350 591l-126 -299h252z" />
    <glyph glyph-name="B" unicode="B" horiz-adv-x="617" 
d="M105 1v698q156 4 192 4q118 0 171.5 -47t53.5 -126q0 -63 -33 -103.5t-87 -58.5v-2q67 -11 106 -53.5t39 -112.5q0 -102 -69.5 -152.5t-184.5 -50.5q-106 0 -188 4zM303 319h-113v-238q46 -4 108 -4q79 0 121.5 32.5t42.5 95.5q0 55 -41.5 84.5t-117.5 29.5zM295 623
q-30 0 -105 -3v-226h112q58 0 96.5 31t38.5 86q0 112 -142 112z" />
    <glyph glyph-name="C" unicode="C" horiz-adv-x="656" 
d="M592 132l34 -64q-35 -36 -95 -57t-126 -21q-158 0 -256.5 98.5t-98.5 261.5q0 155 94.5 257.5t254.5 102.5q134 0 213 -68l-39 -64q-70 52 -173 52q-114 0 -187 -78t-73 -202q0 -125 75.5 -202.5t197.5 -77.5q103 0 179 62z" />
    <glyph glyph-name="D" unicode="D" horiz-adv-x="739" 
d="M105 0v700h12q22 0 85.5 1.5t93.5 1.5q102 0 179 -27.5t123 -76t68.5 -109t22.5 -131.5q0 -157 -104.5 -259t-296.5 -102q-22 0 -81.5 1t-90.5 1h-11zM294 623q-19 0 -36 -0.5t-36.5 -1.5t-31.5 -1v-540q92 -2 101 -2q146 0 227 77.5t81 203.5q0 118 -79 191t-226 73z
" />
    <glyph glyph-name="E" unicode="E" horiz-adv-x="575" 
d="M105 0v700h395v-80h-310v-226h280v-80h-280v-234h320v-80h-405z" />
    <glyph glyph-name="F" unicode="F" horiz-adv-x="540" 
d="M105 0v700h395v-80h-310v-248h280v-80h-280v-292h-85z" />
    <glyph glyph-name="G" unicode="G" horiz-adv-x="727" 
d="M398 276v80h269v-269q-45 -45 -119 -71t-143 -26q-163 0 -259 98t-96 262q0 154 95 257t249 103q134 0 220 -68l-37 -68q-62 56 -173 56q-118 0 -191 -77t-73 -203q0 -127 73.5 -203.5t193.5 -76.5q50 0 101 17.5t79 44.5v144h-189z" />
    <glyph glyph-name="H" unicode="H" horiz-adv-x="765" 
d="M575 0v317h-385v-317h-85v700h85v-303h385v303h85v-700h-85z" />
    <glyph glyph-name="I" unicode="I" horiz-adv-x="335" 
d="M125 0v700h85v-700h-85z" />
    <glyph glyph-name="J" unicode="J" horiz-adv-x="374" 
d="M269 700v-541q0 -169 -153 -169q-69 0 -106 37l29 65q29 -22 66 -22q79 0 79 103v527h85z" />
    <glyph glyph-name="K" unicode="K" horiz-adv-x="653" 
d="M617 700l-312 -329l328 -371h-109l-317 365l307 335h103zM105 0v700h85v-700h-85z" />
    <glyph glyph-name="L" unicode="L" horiz-adv-x="550" 
d="M105 0v700h85v-620h345v-80h-430z" />
    <glyph glyph-name="M" unicode="M" horiz-adv-x="892" 
d="M105 0v700h86l263 -359l252 359h81v-700h-85v566l-248 -348h-13l-251 345v-563h-85z" />
    <glyph glyph-name="N" unicode="N" horiz-adv-x="795" 
d="M690 0h-68l-437 550v-550h-80v700h68l437 -552v552h80v-700z" />
    <glyph glyph-name="O" unicode="O" horiz-adv-x="814" 
d="M50 350q0 153 101 256.5t256 103.5q154 0 255.5 -101t101.5 -259q0 -155 -102 -257.5t-255 -102.5q-154 0 -255.5 101t-101.5 259zM140 350q0 -119 77 -199.5t190 -80.5q118 0 192.5 80t74.5 200q0 121 -77 200.5t-190 79.5q-115 0 -191 -79t-76 -201z" />
    <glyph glyph-name="P" unicode="P" horiz-adv-x="597" 
d="M190 0h-85v700q19 0 89.5 1t93.5 1q138 0 198.5 -61.5t60.5 -155.5q0 -92 -65.5 -156t-186.5 -64q-58 0 -105 4v-269zM296 622q-40 0 -106 -2v-270q57 -5 102 -5q77 0 121 37.5t44 103.5q0 64 -40 100t-121 36z" />
    <glyph glyph-name="Q" unicode="Q" horiz-adv-x="814" 
d="M50 350q0 153 101 256.5t256 103.5q154 0 255.5 -101t101.5 -259q0 -157 -105 -260l77 -90h-100l-37 43q-86 -53 -192 -53q-154 0 -255.5 101t-101.5 259zM140 350q0 -119 77 -199.5t190 -80.5q77 0 138 36l-61 73l56 51l64 -75q70 80 70 195q0 121 -77 200.5t-190 79.5
q-115 0 -191 -79t-76 -201z" />
    <glyph glyph-name="R" unicode="R" horiz-adv-x="643" 
d="M190 0h-85v700q22 0 101 1t87 1q249 0 249 -208q0 -77 -44.5 -129.5t-107.5 -68.5l233 -296h-104l-215 280h-114v-280zM288 622q-32 0 -98 -2v-260h103q64 0 111.5 36.5t47.5 96.5q0 129 -164 129z" />
    <glyph glyph-name="S" unicode="S" horiz-adv-x="549" 
d="M409 179q0 35 -19 61t-49 42.5t-66.5 31.5t-73 32.5t-66.5 39.5t-49 58t-19 83q0 78 57 130.5t154 52.5q60 0 111.5 -20t81.5 -53l-46 -64q-57 57 -142 57q-58 0 -92 -28t-34 -75q0 -35 19 -61t49 -42t66.5 -30.5t73 -31.5t66.5 -38.5t49 -58.5t19 -85
q0 -85 -65.5 -137.5t-162.5 -52.5q-68 0 -132 28.5t-89 76.5l49 58q30 -39 78 -61t95 -22q58 0 97.5 29t39.5 80z" />
    <glyph glyph-name="T" unicode="T" horiz-adv-x="595" 
d="M10 620v80h575v-80h-245v-620h-85v620h-245z" />
    <glyph glyph-name="U" unicode="U" horiz-adv-x="751" 
d="M656 700v-408q0 -151 -77 -226t-194 -75q-131 0 -210.5 79.5t-79.5 228.5v401h85v-385q0 -115 53.5 -179.5t151.5 -64.5q88 0 137 60.5t49 177.5v391h85z" />
    <glyph glyph-name="V" unicode="V" horiz-adv-x="656" 
d="M651 700l-288 -704h-63l-295 704h91l238 -576l231 576h86z" />
    <glyph glyph-name="W" unicode="W" horiz-adv-x="970" 
d="M960 700l-202 -700h-78l-192 563l-188 -563h-78l-212 700h96l163 -557l181 557h82l186 -557l159 557h83z" />
    <glyph glyph-name="X" unicode="X" horiz-adv-x="664" 
d="M635 700l-248 -344l257 -356h-101l-212 291l-211 -291h-100l257 356l-246 344h100l203 -280l200 280h101z" />
    <glyph glyph-name="Y" unicode="Y" horiz-adv-x="604" 
d="M594 700l-251 -400v-300h-85v300l-248 400h98l196 -320l197 320h93z" />
    <glyph glyph-name="Z" unicode="Z" horiz-adv-x="635" 
d="M60 620v80h525v-57l-430 -563h440v-80h-555v57l428 563h-408z" />
    <glyph glyph-name="bracketleft" unicode="[" horiz-adv-x="320" 
d="M60 -200v850h250v-75h-170v-700h170v-75h-250z" />
    <glyph glyph-name="backslash" unicode="\" horiz-adv-x="335" 
d="M32 710l333 -895l-63 -23l-332 895z" />
    <glyph glyph-name="bracketright" unicode="]" horiz-adv-x="320" 
d="M260 650v-850h-250v75h170v700h-170v75h250z" />
    <glyph glyph-name="asciicircum" unicode="^" horiz-adv-x="492" 
d="M40 450l180 258h54l178 -258h-87l-119 176l-119 -176h-87z" />
    <glyph glyph-name="underscore" unicode="_" horiz-adv-x="312" 
d="M0 -200v80h312v-80h-312z" />
    <glyph glyph-name="grave" unicode="`" horiz-adv-x="290" 
d="M181 531l-121 142l63 48l107 -156z" />
    <glyph glyph-name="a" unicode="a" horiz-adv-x="460" 
d="M96 355l-21 64q66 41 150 41q93 0 133 -46t40 -138v-276h-76v58q-52 -65 -144 -65q-62 0 -100 37.5t-38 101.5q0 67 47.5 105t122.5 38q72 0 112 -29q0 72 -20 107t-82 35q-61 0 -124 -33zM206 65q67 0 116 58v57q-42 30 -101 30q-40 0 -68 -19t-28 -55q0 -33 21.5 -52
t59.5 -19z" />
    <glyph glyph-name="b" unicode="b" horiz-adv-x="549" 
d="M72 42v658h80v-293q25 23 63 38t77 15q99 0 156.5 -63t57.5 -165q0 -111 -68 -176.5t-182 -65.5q-112 0 -184 52zM274 385q-37 0 -70.5 -17.5t-51.5 -40.5v-231q46 -31 108 -31q70 0 115.5 43.5t45.5 117.5q0 75 -40.5 117t-106.5 42z" />
    <glyph glyph-name="c" unicode="c" horiz-adv-x="488" 
d="M418 123l38 -58q-28 -36 -74 -55.5t-99 -19.5q-108 0 -174.5 64.5t-66.5 170.5q0 99 65 167t163 68q118 0 177 -59l-37 -63q-51 47 -129 47q-63 0 -108.5 -45.5t-45.5 -114.5q0 -72 46.5 -116t115.5 -44q78 0 129 58z" />
    <glyph glyph-name="d" unicode="d" horiz-adv-x="554" 
d="M402 0v57q-60 -65 -143 -65q-99 0 -158 63t-59 167q0 105 69.5 171.5t176.5 66.5q69 0 114 -32v272h80v-700h-80zM274 67q74 0 128 60v223q-55 35 -111 35q-69 0 -116.5 -44.5t-47.5 -116.5q0 -73 41 -115t106 -42z" />
    <glyph glyph-name="e" unicode="e" horiz-adv-x="520" 
d="M427 112l25 -63q-65 -59 -169 -59q-109 0 -175 64t-66 171q0 102 62 168.5t170 66.5q89 0 149 -57.5t60 -148.5q0 -31 -5 -54h-346q5 -63 47.5 -99t109.5 -36q88 0 138 47zM270 385q-60 0 -98 -33.5t-45 -86.5h273q-3 56 -37.5 88t-92.5 32z" />
    <glyph glyph-name="f" unicode="f" horiz-adv-x="330" 
d="M82 0v523q0 93 41 140t117 47q78 0 120 -40l-28 -61q-31 26 -79 26q-91 0 -91 -121v-64h150v-75h-150v-375h-80z" />
    <glyph glyph-name="g" unicode="g" horiz-adv-x="494" 
d="M10 -65q0 53 38.5 88t105.5 49q-11 14 -11 37t12 38q-48 19 -74.5 58.5t-26.5 89.5q0 70 50.5 117.5t133.5 47.5q65 0 114 -33l132 32l2 -65l-85 -21q21 -34 21 -78q0 -69 -51 -115.5t-133 -46.5q-20 0 -30 1q-5 -10 -5 -25q0 -18 9 -30q4 0 13 0.5t14 0.5q103 0 166 -37
t63 -108q0 -70 -63 -106.5t-166 -36.5t-166 36t-63 107zM85 -65q0 -37 41.5 -57.5t112.5 -20.5t112.5 20t41.5 58q0 37 -41 58.5t-113 21.5t-113 -21.5t-41 -58.5zM129 295q0 -42 30 -69.5t79 -27.5q48 0 78.5 27t30.5 70t-30 71.5t-79 28.5t-79 -28.5t-30 -71.5z" />
    <glyph glyph-name="h" unicode="h" horiz-adv-x="549" 
d="M72 0v700h80v-302q26 26 65.5 43t81.5 17q187 0 187 -200v-258h-80v247q0 136 -126 136q-36 0 -71 -16t-57 -41v-326h-80z" />
    <glyph glyph-name="i" unicode="i" horiz-adv-x="268" 
d="M94 0v450h80v-450h-80zM84 619q0 21 15 34.5t37 13.5q20 0 34.5 -13.5t14.5 -34.5q0 -24 -14.5 -38t-34.5 -14q-22 0 -37 14t-15 38z" />
    <glyph glyph-name="j" unicode="j" horiz-adv-x="266" 
d="M178 450v-483q0 -175 -141 -175q-63 0 -100 29l23 64q29 -18 59 -18q79 0 79 106v477h80zM87 619q0 21 15 34.5t37 13.5q20 0 34.5 -13.5t14.5 -34.5q0 -24 -14.5 -38t-34.5 -14q-22 0 -37 14t-15 38z" />
    <glyph glyph-name="k" unicode="k" horiz-adv-x="491" 
d="M457 450l-191 -209l215 -241h-109l-203 235l186 215h102zM72 0v700h80v-700h-80z" />
    <glyph glyph-name="l" unicode="l" horiz-adv-x="290" 
d="M72 120v580h80v-544q0 -46 12.5 -67.5t40.5 -21.5q27 0 57 20l18 -61q-43 -34 -106 -34q-102 0 -102 128z" />
    <glyph glyph-name="m" unicode="m" horiz-adv-x="803" 
d="M740 295v-295h-80v273q0 110 -97 110q-39 0 -70.5 -18t-47.5 -47q1 -8 1 -32v-286h-80v290q0 42 -25 67.5t-71 25.5q-75 0 -118 -61v-322h-80v450h80v-57q25 29 65.5 47t83.5 18q52 0 87.5 -21t48.5 -57q25 35 66.5 56.5t91.5 21.5q145 0 145 -163z" />
    <glyph glyph-name="n" unicode="n" horiz-adv-x="549" 
d="M72 0v450h80v-55q25 27 65 45t82 18q187 0 187 -198v-260h-80v245q0 138 -127 138q-76 0 -127 -58v-325h-80z" />
    <glyph glyph-name="o" unicode="o" horiz-adv-x="565" 
d="M42 225q0 102 66.5 168.5t173.5 66.5t173.5 -66.5t66.5 -168.5t-66.5 -168.5t-173.5 -66.5t-173.5 66.5t-66.5 168.5zM127 225q0 -70 43.5 -115t111.5 -45t111.5 44.5t43.5 115.5q0 70 -43.5 115t-111.5 45q-67 0 -111 -44.5t-44 -115.5z" />
    <glyph glyph-name="p" unicode="p" horiz-adv-x="556" 
d="M72 -200v650h80v-53q24 28 65.5 45.5t87.5 17.5q95 0 151.5 -63.5t56.5 -164.5q0 -104 -65 -173t-169 -69q-80 0 -127 31v-221h-80zM282 385q-80 0 -130 -62v-223q52 -35 120 -35q71 0 113.5 46t42.5 118q0 70 -39 113t-107 43z" />
    <glyph glyph-name="q" unicode="q" horiz-adv-x="557" 
d="M404 -200v236q-59 -46 -131 -46q-105 0 -168 64t-63 171q0 99 72 167t181 68q108 0 189 -51v-609h-80zM283 65q35 0 68.5 15.5t52.5 38.5v237q-51 29 -110 29q-74 0 -120.5 -47.5t-46.5 -116.5t43 -112.5t113 -43.5z" />
    <glyph glyph-name="r" unicode="r" horiz-adv-x="340" 
d="M72 0v450h80v-53q41 61 113 61q47 0 70 -17l-28 -75q-29 17 -61 17q-61 0 -94 -64v-319h-80z" />
    <glyph glyph-name="s" unicode="s" horiz-adv-x="430" 
d="M300 122q0 25 -25 40.5t-60.5 26t-71.5 24.5t-61 44t-25 76q0 58 42.5 92.5t110.5 34.5q100 0 155 -53l-38 -61q-49 44 -113 44q-33 0 -52.5 -16.5t-19.5 -39.5q0 -26 25 -42.5t60.5 -27t71.5 -24t61 -42t25 -72.5q0 -67 -50 -101.5t-124 -34.5q-52 0 -100.5 22t-65.5 48
l45 57q20 -23 58.5 -40t71.5 -17q34 0 57 16.5t23 45.5z" />
    <glyph glyph-name="t" unicode="t" horiz-adv-x="353" 
d="M62 171v404h80v-125h165v-75h-165v-196q0 -112 80 -112q38 0 71 25l25 -62q-46 -38 -115 -38q-74 0 -107.5 45t-33.5 134z" />
    <glyph glyph-name="u" unicode="u" horiz-adv-x="540" 
d="M467 450v-450h-80v64q-26 -31 -67.5 -52.5t-91.5 -21.5q-78 0 -122 48t-44 144v268h80v-250q0 -135 116 -135q37 0 72 19t57 48v318h80z" />
    <glyph glyph-name="v" unicode="v" horiz-adv-x="476" 
d="M471 450l-199 -454h-58l-209 454h94l109 -243q18 -41 38 -100q17 55 37 102l103 241h85z" />
    <glyph glyph-name="w" unicode="w" horiz-adv-x="706" 
d="M696 450l-144 -454h-70l-112 293q-8 20 -17 55q-11 -40 -19 -58l-109 -290h-66l-149 454h86l88 -284q4 -12 9.5 -33.5t7.5 -29.5q18 61 19 63l102 284h69l103 -283q2 -5 21 -65q7 34 18 69l82 279h81z" />
    <glyph glyph-name="x" unicode="x" horiz-adv-x="507" 
d="M472 450l-161 -217l171 -233h-98l-132 182l-134 -182h-93l170 229l-160 221h98l122 -170l124 170h93z" />
    <glyph glyph-name="y" unicode="y" horiz-adv-x="491" 
d="M481 450l-180 -450q-48 -117 -85 -158.5t-87 -41.5q-43 0 -85 28l26 61q32 -15 50 -15q28 0 50.5 24t45.5 78l10 24l-216 450h96l132 -286q4 -9 27 -68q9 33 21 69l104 285h91z" />
    <glyph glyph-name="z" unicode="z" horiz-adv-x="485" 
d="M60 375v75h380v-56l-282 -319h277v-75h-390v56l281 319h-266z" />
    <glyph glyph-name="braceleft" unicode="{" horiz-adv-x="335" 
d="M110 -65v157q0 54 -27 76.5t-63 21.5v70q35 0 62.5 25t27.5 85v139q0 71 31.5 106t106.5 35h67v-75h-48q-43 0 -60 -21t-17 -72v-142q0 -48 -20.5 -78.5t-54.5 -35.5q75 -9 75 -114v-145q0 -49 20 -70.5t63 -21.5h42v-75h-71q-67 0 -100.5 32t-33.5 103z" />
    <glyph glyph-name="bar" unicode="|" horiz-adv-x="330" 
d="M125 0v700h80v-700h-80z" />
    <glyph glyph-name="braceright" unicode="}" horiz-adv-x="335" 
d="M225 92v-157q0 -71 -34 -103t-101 -32h-70v75h42q43 0 63 21.5t20 70.5v145q0 105 75 114q-34 5 -54.5 35.5t-20.5 78.5v142q0 51 -17.5 72t-59.5 21h-48v75h67q75 0 106.5 -35t31.5 -106v-139q0 -60 27.5 -85t62.5 -25v-70q-36 1 -63 -21.5t-27 -76.5z" />
    <glyph glyph-name="asciitilde" unicode="~" 
d="M86 307l-36 51q67 72 136 72q42 0 118 -35.5t114 -35.5q46 0 91 45l32 -55q-63 -60 -124 -60q-41 0 -116 35.5t-111 35.5q-49 0 -104 -53z" />
    <glyph glyph-name="uni00A0" unicode="&#xa0;" horiz-adv-x="225" 
 />
    <glyph glyph-name="exclamdown" unicode="&#xa1;" horiz-adv-x="310" 
d="M198 242v-485h-85v485h85zM211 403q0 -21 -16 -37t-42 -16q-22 0 -37.5 16.5t-15.5 36.5q0 23 15 40t38 17q26 0 42 -17t16 -40z" />
    <glyph glyph-name="cent" unicode="&#xa2;" 
d="M465 123l38 -58q-50 -63 -143 -73v-112h-80v114q-88 14 -139.5 76t-51.5 155q0 89 53 154t138 78v109h80v-108q85 -9 134 -57l-37 -63q-51 47 -129 47q-63 0 -108.5 -45.5t-45.5 -114.5q0 -72 46.5 -116t115.5 -44q78 0 129 58z" />
    <glyph glyph-name="sterling" unicode="&#xa3;" 
d="M75 275v65h79q-4 10 -17 36.5t-19 41.5t-12 41.5t-6 54.5q0 81 60 137.5t156 56.5q122 0 191 -76l-45 -62q-61 58 -144 58q-57 0 -92.5 -35t-35.5 -84q0 -33 9.5 -60.5t25 -58t22.5 -50.5h162v-65h-150v-9q0 -71 -54 -139q33 -3 102 -27t106 -24q61 0 109 46l36 -62
q-63 -64 -147 -64q-39 0 -114 26t-114 26q-54 0 -111 -55l-34 63q38 41 84 60q52 66 52 135q0 16 -1 24h-98z" />
    <glyph glyph-name="currency" unicode="&#xa4;" 
d="M69 345q0 76 41 135l-83 85l50 50l83 -85q58 42 136 42q76 0 135 -41l88 87l50 -50l-88 -87q42 -61 42 -136q0 -76 -42 -135l85 -85l-49 -49l-85 84q-58 -42 -136 -42t-136 42l-88 -88l-49 49l87 89q-41 58 -41 135zM144 345q0 -66 41.5 -111.5t110.5 -45.5
q71 0 111.5 45t40.5 112q0 68 -41 112.5t-111 44.5q-69 0 -110.5 -45t-41.5 -112z" />
    <glyph glyph-name="yen" unicode="&#xa5;" 
d="M68 299v65h146l-195 336h98l181 -320l182 320h93l-198 -336h147v-65h-185v-105h185v-65h-185v-129h-85v129h-184v65h184v105h-184z" />
    <glyph glyph-name="brokenbar" unicode="&#xa6;" horiz-adv-x="330" 
d="M205 440h-80v260h80v-260zM125 260h80v-260h-80v260z" />
    <glyph glyph-name="section" unicode="&#xa7;" horiz-adv-x="524" 
d="M65 249q0 64 35 111t97 64q-82 46 -82 135q0 61 43.5 101t117.5 40q84 0 135 -65l-48 -54q-13 15 -21 22t-25.5 14.5t-38.5 7.5q-35 0 -59 -23.5t-24 -57.5q0 -68 87 -112q81 -6 129 -57t48 -126q0 -64 -36 -111.5t-98 -63.5q82 -47 82 -133q0 -61 -43.5 -101t-117.5 -40
q-87 0 -136 65l48 54q13 -14 21 -21.5t26 -15t39 -7.5q35 0 59 23.5t24 57.5q0 67 -89 111q-80 7 -126.5 58t-46.5 124zM145 249q0 -47 33 -80t84 -33q52 0 84.5 33t32.5 80t-33 80.5t-84 33.5t-84 -33.5t-33 -80.5z" />
    <glyph glyph-name="dieresis" unicode="&#xa8;" horiz-adv-x="415" 
d="M60 610q0 21 13.5 33.5t33.5 12.5q17 0 30.5 -13t13.5 -33q0 -23 -13 -36.5t-31 -13.5q-20 0 -33.5 13.5t-13.5 36.5zM263 610q0 20 14 33t34 13q17 0 30.5 -13t13.5 -33q0 -23 -13 -36.5t-31 -13.5q-20 0 -34 13.5t-14 36.5z" />
    <glyph glyph-name="copyright" unicode="&#xa9;" horiz-adv-x="1018" 
d="M75 221q0 182 125 308t309 126t309 -126t125 -308t-125 -308t-309 -126t-309 126t-125 308zM145 220q0 -152 104 -257.5t260 -105.5q155 0 259.5 106t104.5 257q0 152 -104.5 258.5t-259.5 106.5q-156 0 -260 -106.5t-104 -258.5zM652 123l38 -58q-28 -36 -74 -55.5
t-99 -19.5q-108 0 -174.5 64.5t-66.5 170.5q0 99 65 167t163 68q118 0 177 -59l-37 -63q-51 47 -129 47q-63 0 -108.5 -45.5t-45.5 -114.5q0 -72 46.5 -116t115.5 -44q78 0 129 58z" />
    <glyph glyph-name="ordfeminine" unicode="&#xaa;" horiz-adv-x="425" 
d="M114 573l-30 47q52 38 130 38q62 0 101.5 -33t39.5 -96v-204h-70v47q-42 -51 -124 -51q-50 0 -80.5 30t-30.5 73q0 52 33.5 80t92.5 28q66 0 109 -25v5q0 86 -84 86q-51 0 -87 -25zM195 380q46 0 90 36v46q-42 20 -86 20q-33 0 -53.5 -13.5t-20.5 -37.5q0 -23 19 -37
t51 -14z" />
    <glyph glyph-name="guillemotleft" unicode="&#xab;" horiz-adv-x="530" 
d="M420 30l-185 218v4l188 216l52 -46l-148 -172l147 -173zM230 30l-185 218v4l188 216l52 -46l-148 -172l147 -173z" />
    <glyph glyph-name="logicalnot" unicode="&#xac;" 
d="M59 325v70h474v-201h-70v131h-404z" />
    <glyph glyph-name="uni00AD" unicode="&#xad;" horiz-adv-x="389" 
d="M75 235v75h239v-75h-239z" />
    <glyph glyph-name="registered" unicode="&#xae;" horiz-adv-x="618" 
d="M50 497q0 107 76 182.5t184 75.5q106 0 182 -75.5t76 -182.5q0 -109 -75.5 -185t-182.5 -76q-109 0 -184.5 76t-75.5 185zM115 496q0 -80 57 -137t137 -57t137 57t57 137t-57 137t-137 57t-137 -57t-57 -137zM266 360h-55v280h98q108 0 108 -87q0 -29 -17 -51t-43 -30
l74 -112h-65l-63 101h-37v-101zM302 600h-36v-99h39q24 0 40.5 14.5t16.5 36.5t-15.5 35t-44.5 13z" />
    <glyph glyph-name="macron" unicode="&#xaf;" horiz-adv-x="384" 
d="M60 580v65h264v-65h-264z" />
    <glyph glyph-name="degree" unicode="&#xb0;" horiz-adv-x="410" 
d="M50 569q0 66 45 111t109 45q65 0 110.5 -43.5t45.5 -109.5q0 -65 -45.5 -111t-110.5 -46q-64 0 -109 44.5t-45 109.5zM120 570q0 -35 25 -60t60 -25t60 25t25 60q0 34 -25 59.5t-60 25.5t-60 -25t-25 -60z" />
    <glyph glyph-name="plusminus" unicode="&#xb1;" 
d="M69 410v70h188v191h75v-191h191v-70h-191v-123h-75v123h-188zM69 165v70h454v-70h-454z" />
    <glyph glyph-name="twosuperior" unicode="&#xb2;" horiz-adv-x="349" 
d="M35 350v51q4 3 25 16.5t29 19t27.5 19.5t28.5 21.5t25 21t24 23t17 22t12.5 23.5t3.5 22q0 24 -16 39.5t-45 15.5q-25 0 -45 -16.5t-24 -41.5l-59 21q7 45 44.5 71t90.5 26q62 0 95 -30t33 -77q0 -32 -20 -64t-51.5 -57t-55.5 -40t-47 -26h192v-60h-284z" />
    <glyph glyph-name="threesuperior" unicode="&#xb3;" horiz-adv-x="350" 
d="M169 344q-106 0 -144 70l41 38q12 -23 38 -36.5t54 -13.5q36 0 56.5 15t20.5 38q0 21 -18.5 34t-52.5 13h-34v50h30q26 0 44 14.5t18 36.5q0 21 -17 33t-46 12q-58 0 -89 -45l-34 38q36 64 137 64q56 0 90 -23.5t34 -64.5q0 -31 -19.5 -53t-54.5 -31v-1q41 -3 64 -27
t23 -56q0 -47 -40.5 -76t-100.5 -29z" />
    <glyph glyph-name="acute" unicode="&#xb4;" horiz-adv-x="288" 
d="M228 674l-120 -143l-48 34l106 157z" />
    <glyph glyph-name="mu" unicode="&#xb5;" horiz-adv-x="545" 
d="M472 450v-450h-80v64q-26 -31 -67.5 -52.5t-91.5 -21.5q-49 0 -86 20v-210h-80v650h80v-250q0 -135 116 -135q37 0 72 19t57 48v318h80z" />
    <glyph glyph-name="mu" unicode="&#x3bc;" horiz-adv-x="545" 
d="M472 450v-450h-80v64q-26 -31 -67.5 -52.5t-91.5 -21.5q-49 0 -86 20v-210h-80v650h80v-250q0 -135 116 -135q37 0 72 19t57 48v318h80z" />
    <glyph glyph-name="paragraph" unicode="&#xb6;" horiz-adv-x="461" 
d="M45 481q0 101 59 160t155 59h172v-75h-94v-638q0 -195 -165 -195q-71 0 -114 41l33 58q32 -24 75 -24q52 0 71.5 32.5t19.5 90.5v273q-89 1 -150.5 60t-61.5 158z" />
    <glyph glyph-name="periodcentered" unicode="&#xb7;" horiz-adv-x="225" 
d="M57 299q0 21 16 37t41 16q22 0 37.5 -16.5t15.5 -36.5q0 -23 -15 -40t-38 -17q-25 0 -41 17t-16 40z" />
    <glyph glyph-name="cedilla" unicode="&#xb8;" horiz-adv-x="351" 
d="M60 -171l24 39q35 -23 71 -23q25 0 40.5 9.5t15.5 26.5q0 39 -58 39h-6v80h43v-43q101 -6 101 -80q0 -37 -33.5 -59.5t-92.5 -22.5q-54 0 -105 34z" />
    <glyph glyph-name="onesuperior" unicode="&#xb9;" horiz-adv-x="252" 
d="M22 630l105 71h50v-351h-70v269l-58 -37z" />
    <glyph glyph-name="ordmasculine" unicode="&#xba;" horiz-adv-x="476" 
d="M55 489q0 75 51.5 122t131.5 47t131.5 -47t51.5 -122t-52 -122.5t-131 -47.5t-131 47.5t-52 122.5zM130 489q0 -47 32 -76t76 -29q45 0 76.5 29t31.5 76q0 46 -31.5 75t-76.5 29t-76.5 -29t-31.5 -75z" />
    <glyph glyph-name="guillemotright" unicode="&#xbb;" horiz-adv-x="530" 
d="M485 248l-185 -218l-54 47l147 173l-148 172l52 46l188 -216v-4zM295 248l-185 -218l-54 47l147 173l-148 172l52 46l188 -216v-4z" />
    <glyph glyph-name="onequarter" unicode="&#xbc;" horiz-adv-x="673" 
d="M32 630l105 71h50v-351h-70v269l-58 -37zM50 23l514 687l46 -34l-513 -686zM529 0v79h-194v46l168 225h67l-163 -216h122v91h65v-91h59v-55h-59v-79h-65z" />
    <glyph glyph-name="onehalf" unicode="&#xbd;" horiz-adv-x="689" 
d="M32 630l105 71h50v-351h-70v269l-58 -37zM30 23l514 687l46 -34l-513 -686zM365 0v51q4 3 25 16.5t29 19t27.5 19.5t28.5 21.5t25 21t24 23t17 22t12.5 23.5t3.5 22q0 24 -16 39.5t-45 15.5q-25 0 -45 -16.5t-24 -41.5l-59 21q7 45 44.5 71t90.5 26q62 0 95 -30t33 -77
q0 -32 -20 -64t-51.5 -57t-55.5 -40t-47 -26h192v-60h-284z" />
    <glyph glyph-name="threequarters" unicode="&#xbe;" horiz-adv-x="723" 
d="M110 23l514 687l46 -34l-513 -686zM579 0v79h-194v46l168 225h67l-163 -216h122v91h65v-91h59v-55h-59v-79h-65zM174 344q-106 0 -144 70l41 38q12 -23 38 -36.5t54 -13.5q36 0 56.5 15t20.5 38q0 21 -18.5 34t-52.5 13h-34v50h30q26 0 44 14.5t18 36.5q0 21 -17 33
t-46 12q-58 0 -89 -45l-34 38q36 64 137 64q56 0 90 -23.5t34 -64.5q0 -31 -19.5 -53t-54.5 -31v-1q41 -3 64 -27t23 -56q0 -47 -40.5 -76t-100.5 -29z" />
    <glyph glyph-name="questiondown" unicode="&#xbf;" horiz-adv-x="466" 
d="M116 -63q0 -46 34.5 -78t87.5 -32q86 0 140 74l48 -53q-28 -45 -79.5 -73t-113.5 -28q-94 0 -148.5 50t-54.5 123q0 46 16 83t40 58t50.5 43t48 40t33 46t4.5 64l72 1q10 -52 -4.5 -89t-42.5 -60t-57.5 -44t-51.5 -52.5t-22 -72.5zM314 403q0 -21 -16 -37t-42 -16
q-22 0 -37.5 16.5t-15.5 36.5q0 23 15 40t38 17q26 0 42 -17t16 -40z" />
    <glyph glyph-name="Agrave" unicode="&#xc0;" horiz-adv-x="705" 
d="M15 0l301 704h73l301 -704h-91l-90 212h-319l-89 -212h-86zM350 591l-126 -299h252zM395 735l-202 84l30 68l195 -104z" />
    <glyph glyph-name="Aacute" unicode="&#xc1;" horiz-adv-x="705" 
d="M15 0l301 704h73l301 -704h-91l-90 212h-319l-89 -212h-86zM350 591l-126 -299h252zM513 819l-202 -84l-23 48l195 104z" />
    <glyph glyph-name="Acircumflex" unicode="&#xc2;" horiz-adv-x="705" 
d="M15 0l301 704h73l301 -704h-91l-90 212h-319l-89 -212h-86zM350 591l-126 -299h252zM177 778l171 104h4l174 -103l-33 -46l-143 76l-144 -76z" />
    <glyph glyph-name="Atilde" unicode="&#xc3;" horiz-adv-x="705" 
d="M15 0l301 704h73l301 -704h-91l-90 212h-319l-89 -212h-86zM350 591l-126 -299h252zM204 761l-26 50q44 47 100 47q31 0 77.5 -20t72.5 -20q45 0 75 32l22 -50q-39 -52 -102 -52q-27 0 -75.5 20t-77.5 20q-33 0 -66 -27z" />
    <glyph glyph-name="Adieresis" unicode="&#xc4;" horiz-adv-x="705" 
d="M15 0l301 704h73l301 -704h-91l-90 212h-319l-89 -212h-86zM350 591l-126 -299h252zM182 813q0 20 16 32.5t39 12.5q21 0 36.5 -12.5t15.5 -32.5q0 -22 -15.5 -35t-36.5 -13q-24 0 -39.5 13t-15.5 35zM414 813q0 20 16.5 32.5t39.5 12.5q21 0 36 -12t15 -33
q0 -22 -15 -35t-36 -13q-24 0 -40 13t-16 35z" />
    <glyph glyph-name="Aring" unicode="&#xc5;" horiz-adv-x="705" 
d="M227 792q0 48 34.5 72t89.5 24q56 0 91 -24t35 -72q0 -38 -23 -62.5t-62 -33.5l298 -696h-91l-90 212h-319l-89 -212h-86l297 696q-38 8 -61.5 33t-23.5 63zM350 591l-126 -299h252zM287 792q0 -27 18 -41t47 -14q28 0 46.5 14t18.5 41q0 51 -65 51t-65 -51z" />
    <glyph glyph-name="AE" unicode="&#xc6;" horiz-adv-x="956" 
d="M881 700v-80h-310v-226h280v-80h-280v-234h320v-80h-405v216h-250l-152 -216h-99l503 700h393zM486 571l-194 -275h194v275z" />
    <glyph glyph-name="Ccedilla" unicode="&#xc7;" horiz-adv-x="656" 
d="M276 -169l26 42q40 -28 74 -28q25 0 40.5 9.5t15.5 26.5q0 39 -58 39h-6v72q-144 11 -231 108t-87 250q0 155 94.5 257.5t254.5 102.5q134 0 213 -68l-39 -64q-70 52 -173 52q-114 0 -187 -78t-73 -202q0 -125 75.5 -202.5t197.5 -77.5q103 0 179 62l34 -64
q-34 -35 -92 -55.5t-123 -22.5v-33q106 -6 106 -80q0 -37 -33 -59.5t-90 -22.5q-64 0 -118 36z" />
    <glyph glyph-name="Egrave" unicode="&#xc8;" horiz-adv-x="575" 
d="M105 0v700h395v-80h-310v-226h280v-80h-280v-234h320v-80h-405zM360 735l-202 84l30 68l195 -104z" />
    <glyph glyph-name="Eacute" unicode="&#xc9;" horiz-adv-x="575" 
d="M105 0v700h395v-80h-310v-226h280v-80h-280v-234h320v-80h-405zM453 819l-202 -84l-23 48l195 104z" />
    <glyph glyph-name="Ecircumflex" unicode="&#xca;" horiz-adv-x="575" 
d="M105 0v700h395v-80h-310v-226h280v-80h-280v-234h320v-80h-405zM129 778l171 104h4l174 -103l-33 -46l-143 76l-144 -76z" />
    <glyph glyph-name="Edieresis" unicode="&#xcb;" horiz-adv-x="575" 
d="M105 0v700h395v-80h-310v-226h280v-80h-280v-234h320v-80h-405zM136 813q0 20 16 32.5t39 12.5q21 0 36.5 -12.5t15.5 -32.5q0 -22 -15.5 -35t-36.5 -13q-24 0 -39.5 13t-15.5 35zM368 813q0 20 16.5 32.5t39.5 12.5q21 0 36 -12t15 -33q0 -22 -15 -35t-36 -13
q-24 0 -40 13t-16 35z" />
    <glyph glyph-name="Igrave" unicode="&#xcc;" horiz-adv-x="335" 
d="M125 0v700h85v-700h-85zM200 735l-202 84l30 68l195 -104z" />
    <glyph glyph-name="Iacute" unicode="&#xcd;" horiz-adv-x="335" 
d="M125 0v700h85v-700h-85zM338 819l-202 -84l-23 48l195 104z" />
    <glyph glyph-name="Icircumflex" unicode="&#xce;" horiz-adv-x="335" 
d="M125 0v700h85v-700h-85zM-7 778l171 104h4l174 -103l-33 -46l-143 76l-144 -76z" />
    <glyph glyph-name="Idieresis" unicode="&#xcf;" horiz-adv-x="335" 
d="M125 0v700h85v-700h-85zM-2 813q0 20 16 32.5t39 12.5q21 0 36.5 -12.5t15.5 -32.5q0 -22 -15.5 -35t-36.5 -13q-24 0 -39.5 13t-15.5 35zM230 813q0 20 16.5 32.5t39.5 12.5q21 0 36 -12t15 -33q0 -22 -15 -35t-36 -13q-24 0 -40 13t-16 35z" />
    <glyph glyph-name="Eth" unicode="&#xd0;" horiz-adv-x="754" 
d="M10 316v75h110v309h12q22 0 85.5 1.5t93.5 1.5q102 0 179 -27.5t123 -76t68.5 -109t22.5 -131.5q0 -157 -104.5 -259t-296.5 -102q-22 0 -81.5 1t-90.5 1h-11v316h-110zM309 623q-19 0 -36 -0.5t-36.5 -1.5t-31.5 -1v-229h188v-75h-188v-236q92 -2 101 -2q146 0 227 77.5
t81 203.5q0 118 -79 191t-226 73z" />
    <glyph glyph-name="Ntilde" unicode="&#xd1;" horiz-adv-x="795" 
d="M690 0h-68l-437 550v-550h-80v700h68l437 -552v552h80v-700zM256 761l-26 50q44 47 100 47q31 0 77.5 -20t72.5 -20q45 0 75 32l22 -50q-39 -52 -102 -52q-27 0 -75.5 20t-77.5 20q-33 0 -66 -27z" />
    <glyph glyph-name="Ograve" unicode="&#xd2;" horiz-adv-x="814" 
d="M50 350q0 153 101 256.5t256 103.5q154 0 255.5 -101t101.5 -259q0 -155 -102 -257.5t-255 -102.5q-154 0 -255.5 101t-101.5 259zM140 350q0 -119 77 -199.5t190 -80.5q118 0 192.5 80t74.5 200q0 121 -77 200.5t-190 79.5q-115 0 -191 -79t-76 -201zM480 735l-202 84
l30 68l195 -104z" />
    <glyph glyph-name="Oacute" unicode="&#xd3;" horiz-adv-x="814" 
d="M50 350q0 153 101 256.5t256 103.5q154 0 255.5 -101t101.5 -259q0 -155 -102 -257.5t-255 -102.5q-154 0 -255.5 101t-101.5 259zM140 350q0 -119 77 -199.5t190 -80.5q118 0 192.5 80t74.5 200q0 121 -77 200.5t-190 79.5q-115 0 -191 -79t-76 -201zM563 819l-202 -84
l-23 48l195 104z" />
    <glyph glyph-name="Ocircumflex" unicode="&#xd4;" horiz-adv-x="814" 
d="M50 350q0 153 101 256.5t256 103.5q154 0 255.5 -101t101.5 -259q0 -155 -102 -257.5t-255 -102.5q-154 0 -255.5 101t-101.5 259zM140 350q0 -119 77 -199.5t190 -80.5q118 0 192.5 80t74.5 200q0 121 -77 200.5t-190 79.5q-115 0 -191 -79t-76 -201zM236 778l171 104h4
l174 -103l-33 -46l-143 76l-144 -76z" />
    <glyph glyph-name="Otilde" unicode="&#xd5;" horiz-adv-x="814" 
d="M50 350q0 153 101 256.5t256 103.5q154 0 255.5 -101t101.5 -259q0 -155 -102 -257.5t-255 -102.5q-154 0 -255.5 101t-101.5 259zM140 350q0 -119 77 -199.5t190 -80.5q118 0 192.5 80t74.5 200q0 121 -77 200.5t-190 79.5q-115 0 -191 -79t-76 -201zM258 761l-26 50
q44 47 100 47q31 0 77.5 -20t72.5 -20q45 0 75 32l22 -50q-39 -52 -102 -52q-27 0 -75.5 20t-77.5 20q-33 0 -66 -27z" />
    <glyph glyph-name="Odieresis" unicode="&#xd6;" horiz-adv-x="814" 
d="M50 350q0 153 101 256.5t256 103.5q154 0 255.5 -101t101.5 -259q0 -155 -102 -257.5t-255 -102.5q-154 0 -255.5 101t-101.5 259zM140 350q0 -119 77 -199.5t190 -80.5q118 0 192.5 80t74.5 200q0 121 -77 200.5t-190 79.5q-115 0 -191 -79t-76 -201zM236 813
q0 20 16 32.5t39 12.5q21 0 36.5 -12.5t15.5 -32.5q0 -22 -15.5 -35t-36.5 -13q-24 0 -39.5 13t-15.5 35zM468 813q0 20 16.5 32.5t39.5 12.5q21 0 36 -12t15 -33q0 -22 -15 -35t-36 -13q-24 0 -40 13t-16 35z" />
    <glyph glyph-name="multiply" unicode="&#xd7;" 
d="M111 495l50 50l135 -136l135 136l49 -50l-135 -135l137 -136l-50 -50l-136 136l-137 -136l-49 50l136 136z" />
    <glyph glyph-name="Oslash" unicode="&#xd8;" horiz-adv-x="814" 
d="M50 350q0 153 101 256.5t256 103.5q135 0 231 -80l44 43l46 -47l-43 -42q79 -96 79 -234q0 -155 -102 -257.5t-255 -102.5q-142 0 -240 87l-45 -44l-47 48l46 45q-71 93 -71 224zM674 350q0 97 -53 171l-392 -383q74 -68 178 -68q118 0 192.5 80t74.5 200zM140 350
q0 -90 46 -161l390 381q-71 60 -169 60q-115 0 -191 -79t-76 -201z" />
    <glyph glyph-name="Ugrave" unicode="&#xd9;" horiz-adv-x="751" 
d="M656 700v-408q0 -151 -77 -226t-194 -75q-131 0 -210.5 79.5t-79.5 228.5v401h85v-385q0 -115 53.5 -179.5t151.5 -64.5q88 0 137 60.5t49 177.5v391h85zM435 735l-202 84l30 68l195 -104z" />
    <glyph glyph-name="Uacute" unicode="&#xda;" horiz-adv-x="751" 
d="M656 700v-408q0 -151 -77 -226t-194 -75q-131 0 -210.5 79.5t-79.5 228.5v401h85v-385q0 -115 53.5 -179.5t151.5 -64.5q88 0 137 60.5t49 177.5v391h85zM528 819l-202 -84l-23 48l195 104z" />
    <glyph glyph-name="Ucircumflex" unicode="&#xdb;" horiz-adv-x="751" 
d="M656 700v-408q0 -151 -77 -226t-194 -75q-131 0 -210.5 79.5t-79.5 228.5v401h85v-385q0 -115 53.5 -179.5t151.5 -64.5q88 0 137 60.5t49 177.5v391h85zM200 778l171 104h4l174 -103l-33 -46l-143 76l-144 -76z" />
    <glyph glyph-name="Udieresis" unicode="&#xdc;" horiz-adv-x="751" 
d="M656 700v-408q0 -151 -77 -226t-194 -75q-131 0 -210.5 79.5t-79.5 228.5v401h85v-385q0 -115 53.5 -179.5t151.5 -64.5q88 0 137 60.5t49 177.5v391h85zM201 813q0 20 16 32.5t39 12.5q21 0 36.5 -12.5t15.5 -32.5q0 -22 -15.5 -35t-36.5 -13q-24 0 -39.5 13t-15.5 35z
M433 813q0 20 16.5 32.5t39.5 12.5q21 0 36 -12t15 -33q0 -22 -15 -35t-36 -13q-24 0 -40 13t-16 35z" />
    <glyph glyph-name="Yacute" unicode="&#xdd;" horiz-adv-x="604" 
d="M594 700l-251 -400v-300h-85v300l-248 400h98l196 -320l197 320h93zM458 819l-202 -84l-23 48l195 104z" />
    <glyph glyph-name="Thorn" unicode="&#xde;" horiz-adv-x="597" 
d="M190 0h-85v700h85v-105q13 0 50.5 1t47.5 1q138 0 198.5 -61.5t60.5 -155.5q0 -92 -65.5 -156t-186.5 -64q-58 0 -105 4v-164zM289 517q-30 0 -99 -3v-269q57 -5 102 -5q77 0 121 37.5t44 103.5q0 64 -42 100t-126 36z" />
    <glyph glyph-name="germandbls" unicode="&#xdf;" horiz-adv-x="546" 
d="M421 154q0 30 -19 54t-45.5 41.5t-53.5 35.5t-46 44.5t-19 58.5q0 33 14.5 59.5t32.5 41.5t32.5 36t14.5 44q0 29 -23.5 47.5t-56.5 18.5q-50 0 -73.5 -33t-23.5 -104v-500h-80v510q0 202 188 202q66 0 110 -36.5t44 -90.5q0 -27 -9.5 -49t-23.5 -36.5t-28 -28t-23.5 -30
t-9.5 -36.5q0 -28 19 -50t45.5 -39t53.5 -35.5t46 -51t19 -75.5q0 -69 -44 -115.5t-110 -46.5q-94 0 -143 65l27 61q43 -51 97 -51q36 0 62 24t26 65z" />
    <glyph glyph-name="agrave" unicode="&#xe0;" horiz-adv-x="460" 
d="M96 355l-21 64q66 41 150 41q93 0 133 -46t40 -138v-276h-76v58q-52 -65 -144 -65q-62 0 -100 37.5t-38 101.5q0 67 47.5 105t122.5 38q72 0 112 -29q0 72 -20 107t-82 35q-61 0 -124 -33zM206 65q67 0 116 58v57q-42 30 -101 30q-40 0 -68 -19t-28 -55q0 -33 21.5 -52
t59.5 -19zM251 531l-121 142l63 48l107 -156z" />
    <glyph glyph-name="aacute" unicode="&#xe1;" horiz-adv-x="460" 
d="M96 355l-21 64q66 41 150 41q93 0 133 -46t40 -138v-276h-76v58q-52 -65 -144 -65q-62 0 -100 37.5t-38 101.5q0 67 47.5 105t122.5 38q72 0 112 -29q0 72 -20 107t-82 35q-61 0 -124 -33zM206 65q67 0 116 58v57q-42 30 -101 30q-40 0 -68 -19t-28 -55q0 -33 21.5 -52
t59.5 -19zM335 674l-120 -143l-48 34l106 157z" />
    <glyph glyph-name="acircumflex" unicode="&#xe2;" horiz-adv-x="460" 
d="M96 355l-21 64q66 41 150 41q93 0 133 -46t40 -138v-276h-76v58q-52 -65 -144 -65q-62 0 -100 37.5t-38 101.5q0 67 47.5 105t122.5 38q72 0 112 -29q0 72 -20 107t-82 35q-61 0 -124 -33zM206 65q67 0 116 58v57q-42 30 -101 30q-40 0 -68 -19t-28 -55q0 -33 21.5 -52
t59.5 -19zM232 707l139 -133l-38 -48l-104 91l-104 -90l-38 47l141 133h4z" />
    <glyph glyph-name="atilde" unicode="&#xe3;" horiz-adv-x="460" 
d="M96 355l-21 64q66 41 150 41q93 0 133 -46t40 -138v-276h-76v58q-52 -65 -144 -65q-62 0 -100 37.5t-38 101.5q0 67 47.5 105t122.5 38q72 0 112 -29q0 72 -20 107t-82 35q-61 0 -124 -33zM206 65q67 0 116 58v57q-42 30 -101 30q-40 0 -68 -19t-28 -55q0 -33 21.5 -52
t59.5 -19zM99 557l-33 37q53 60 110 60q24 0 58.5 -22t54.5 -22q29 0 71 35l28 -41q-56 -59 -106 -59q-22 0 -56.5 22t-57.5 22q-27 0 -69 -32z" />
    <glyph glyph-name="adieresis" unicode="&#xe4;" horiz-adv-x="460" 
d="M96 355l-21 64q66 41 150 41q93 0 133 -46t40 -138v-276h-76v58q-52 -65 -144 -65q-62 0 -100 37.5t-38 101.5q0 67 47.5 105t122.5 38q72 0 112 -29q0 72 -20 107t-82 35q-61 0 -124 -33zM206 65q67 0 116 58v57q-42 30 -101 30q-40 0 -68 -19t-28 -55q0 -33 21.5 -52
t59.5 -19zM83 610q0 21 13.5 33.5t33.5 12.5q17 0 30.5 -13t13.5 -33q0 -23 -13 -36.5t-31 -13.5q-20 0 -33.5 13.5t-13.5 36.5zM286 610q0 20 14 33t34 13q17 0 30.5 -13t13.5 -33q0 -23 -13 -36.5t-31 -13.5q-20 0 -34 13.5t-14 36.5z" />
    <glyph glyph-name="aring" unicode="&#xe5;" horiz-adv-x="460" 
d="M96 355l-21 64q66 41 150 41q93 0 133 -46t40 -138v-276h-76v58q-52 -65 -144 -65q-62 0 -100 37.5t-38 101.5q0 67 47.5 105t122.5 38q72 0 112 -29q0 72 -20 107t-82 35q-61 0 -124 -33zM206 65q67 0 116 58v57q-42 30 -101 30q-40 0 -68 -19t-28 -55q0 -33 21.5 -52
t59.5 -19zM116 613q0 46 33 78.5t81 32.5q49 0 82.5 -32.5t33.5 -78.5t-33.5 -78t-82.5 -32q-48 0 -81 32t-33 78zM168 614q0 -28 18 -47t45 -19t45 19t18 47q0 27 -18 46t-45 19t-45 -19t-18 -46z" />
    <glyph glyph-name="ae" unicode="&#xe6;" horiz-adv-x="775" 
d="M225 460q102 0 142 -59q64 59 162 59q89 0 149 -57.5t60 -148.5q0 -31 -5 -54h-335v-62q44 -73 146 -73q88 0 138 47l25 -63q-65 -59 -169 -59q-114 0 -181 70q-74 -67 -163 -67q-73 0 -113.5 36.5t-40.5 102.5q0 67 47.5 105t122.5 38q64 0 108 -14q3 63 -19 93.5
t-79 30.5q-61 0 -124 -33l-21 67q66 41 150 41zM398 276v-11h257q-3 56 -37.5 88t-92.5 32q-87 0 -129 -69q2 -24 2 -40zM206 68q65 0 112 55v73q-51 14 -97 14q-40 0 -68 -19t-28 -55q0 -31 23 -49.5t58 -18.5z" />
    <glyph glyph-name="ccedilla" unicode="&#xe7;" horiz-adv-x="488" 
d="M159 -171l24 39q35 -23 71 -23q25 0 40.5 9.5t15.5 26.5q0 39 -58 39h-6v72q-93 11 -148.5 73.5t-55.5 159.5q0 99 65 167t163 68q118 0 177 -59l-37 -63q-51 47 -129 47q-63 0 -108.5 -45.5t-45.5 -114.5q0 -72 46.5 -116t115.5 -44q78 0 129 58l38 -58
q-55 -72 -167 -75v-33q101 -6 101 -80q0 -37 -33.5 -59.5t-92.5 -22.5q-54 0 -105 34z" />
    <glyph glyph-name="egrave" unicode="&#xe8;" horiz-adv-x="520" 
d="M427 112l25 -63q-65 -59 -169 -59q-109 0 -175 64t-66 171q0 102 62 168.5t170 66.5q89 0 149 -57.5t60 -148.5q0 -31 -5 -54h-346q5 -63 47.5 -99t109.5 -36q88 0 138 47zM270 385q-60 0 -98 -33.5t-45 -86.5h273q-3 56 -37.5 88t-92.5 32zM286 531l-121 142l63 48
l107 -156z" />
    <glyph glyph-name="eacute" unicode="&#xe9;" horiz-adv-x="520" 
d="M427 112l25 -63q-65 -59 -169 -59q-109 0 -175 64t-66 171q0 102 62 168.5t170 66.5q89 0 149 -57.5t60 -148.5q0 -31 -5 -54h-346q5 -63 47.5 -99t109.5 -36q88 0 138 47zM270 385q-60 0 -98 -33.5t-45 -86.5h273q-3 56 -37.5 88t-92.5 32zM390 674l-120 -143l-48 34
l106 157z" />
    <glyph glyph-name="ecircumflex" unicode="&#xea;" horiz-adv-x="520" 
d="M427 112l25 -63q-65 -59 -169 -59q-109 0 -175 64t-66 171q0 102 62 168.5t170 66.5q89 0 149 -57.5t60 -148.5q0 -31 -5 -54h-346q5 -63 47.5 -99t109.5 -36q88 0 138 47zM270 385q-60 0 -98 -33.5t-45 -86.5h273q-3 56 -37.5 88t-92.5 32zM272 707l139 -133l-38 -48
l-104 91l-104 -90l-38 47l141 133h4z" />
    <glyph glyph-name="edieresis" unicode="&#xeb;" horiz-adv-x="520" 
d="M427 112l25 -63q-65 -59 -169 -59q-109 0 -175 64t-66 171q0 102 62 168.5t170 66.5q89 0 149 -57.5t60 -148.5q0 -31 -5 -54h-346q5 -63 47.5 -99t109.5 -36q88 0 138 47zM270 385q-60 0 -98 -33.5t-45 -86.5h273q-3 56 -37.5 88t-92.5 32zM119 610q0 21 13.5 33.5
t33.5 12.5q17 0 30.5 -13t13.5 -33q0 -23 -13 -36.5t-31 -13.5q-20 0 -33.5 13.5t-13.5 36.5zM322 610q0 20 14 33t34 13q17 0 30.5 -13t13.5 -33q0 -23 -13 -36.5t-31 -13.5q-20 0 -34 13.5t-14 36.5z" />
    <glyph glyph-name="igrave" unicode="&#xec;" horiz-adv-x="268" 
d="M94 0v450h80v-450h-80zM127 531l-121 142l63 48l107 -156z" />
    <glyph glyph-name="iacute" unicode="&#xed;" horiz-adv-x="268" 
d="M94 0v450h80v-450h-80zM246 674l-120 -143l-48 34l106 157z" />
    <glyph glyph-name="icircumflex" unicode="&#xee;" horiz-adv-x="268" 
d="M94 0v450h80v-450h-80zM137 707l139 -133l-38 -48l-104 91l-104 -90l-38 47l141 133h4z" />
    <glyph glyph-name="idieresis" unicode="&#xef;" horiz-adv-x="268" 
d="M94 0v450h80v-450h-80zM-13 610q0 21 13.5 33.5t33.5 12.5q17 0 30.5 -13t13.5 -33q0 -23 -13 -36.5t-31 -13.5q-20 0 -33.5 13.5t-13.5 36.5zM190 610q0 20 14 33t34 13q17 0 30.5 -13t13.5 -33q0 -23 -13 -36.5t-31 -13.5q-20 0 -34 13.5t-14 36.5z" />
    <glyph glyph-name="eth" unicode="&#xf0;" horiz-adv-x="565" 
d="M196 512l-23 71l96 40q-50 44 -103 72l90 15q45 -24 84 -57l105 45l23 -71l-72 -30q60 -71 93 -160.5t33 -176.5q0 -126 -65.5 -198t-174.5 -72q-107 0 -173.5 66.5t-66.5 168.5t66.5 168.5t173.5 66.5q43 0 79 -21.5t56 -57.5q-23 101 -93 185zM127 225q0 -70 43.5 -115
t111.5 -45q72 0 115.5 54.5t39.5 145.5q-10 49 -52 84.5t-103 35.5q-67 0 -111 -44.5t-44 -115.5z" />
    <glyph glyph-name="ntilde" unicode="&#xf1;" horiz-adv-x="549" 
d="M72 0v450h80v-55q25 27 65 45t82 18q187 0 187 -198v-260h-80v245q0 138 -127 138q-76 0 -127 -58v-325h-80zM144 557l-33 37q53 60 110 60q24 0 58.5 -22t54.5 -22q29 0 71 35l28 -41q-56 -59 -106 -59q-22 0 -56.5 22t-57.5 22q-27 0 -69 -32z" />
    <glyph glyph-name="ograve" unicode="&#xf2;" horiz-adv-x="565" 
d="M42 225q0 102 66.5 168.5t173.5 66.5t173.5 -66.5t66.5 -168.5t-66.5 -168.5t-173.5 -66.5t-173.5 66.5t-66.5 168.5zM127 225q0 -70 43.5 -115t111.5 -45t111.5 44.5t43.5 115.5q0 70 -43.5 115t-111.5 45q-67 0 -111 -44.5t-44 -115.5zM290 531l-121 142l63 48
l107 -156z" />
    <glyph glyph-name="oacute" unicode="&#xf3;" horiz-adv-x="565" 
d="M42 225q0 102 66.5 168.5t173.5 66.5t173.5 -66.5t66.5 -168.5t-66.5 -168.5t-173.5 -66.5t-173.5 66.5t-66.5 168.5zM127 225q0 -70 43.5 -115t111.5 -45t111.5 44.5t43.5 115.5q0 70 -43.5 115t-111.5 45q-67 0 -111 -44.5t-44 -115.5zM394 674l-120 -143l-48 34
l106 157z" />
    <glyph glyph-name="ocircumflex" unicode="&#xf4;" horiz-adv-x="565" 
d="M42 225q0 102 66.5 168.5t173.5 66.5t173.5 -66.5t66.5 -168.5t-66.5 -168.5t-173.5 -66.5t-173.5 66.5t-66.5 168.5zM127 225q0 -70 43.5 -115t111.5 -45t111.5 44.5t43.5 115.5q0 70 -43.5 115t-111.5 45q-67 0 -111 -44.5t-44 -115.5zM285 707l139 -133l-38 -48
l-104 91l-104 -90l-38 47l141 133h4z" />
    <glyph glyph-name="otilde" unicode="&#xf5;" horiz-adv-x="565" 
d="M42 225q0 102 66.5 168.5t173.5 66.5t173.5 -66.5t66.5 -168.5t-66.5 -168.5t-173.5 -66.5t-173.5 66.5t-66.5 168.5zM127 225q0 -70 43.5 -115t111.5 -45t111.5 44.5t43.5 115.5q0 70 -43.5 115t-111.5 45q-67 0 -111 -44.5t-44 -115.5zM152 557l-33 37q53 60 110 60
q24 0 58.5 -22t54.5 -22q29 0 71 35l28 -41q-56 -59 -106 -59q-22 0 -56.5 22t-57.5 22q-27 0 -69 -32z" />
    <glyph glyph-name="odieresis" unicode="&#xf6;" horiz-adv-x="565" 
d="M42 225q0 102 66.5 168.5t173.5 66.5t173.5 -66.5t66.5 -168.5t-66.5 -168.5t-173.5 -66.5t-173.5 66.5t-66.5 168.5zM127 225q0 -70 43.5 -115t111.5 -45t111.5 44.5t43.5 115.5q0 70 -43.5 115t-111.5 45q-67 0 -111 -44.5t-44 -115.5zM139 610q0 21 13.5 33.5
t33.5 12.5q17 0 30.5 -13t13.5 -33q0 -23 -13 -36.5t-31 -13.5q-20 0 -33.5 13.5t-13.5 36.5zM342 610q0 20 14 33t34 13q17 0 30.5 -13t13.5 -33q0 -23 -13 -36.5t-31 -13.5q-20 0 -34 13.5t-14 36.5z" />
    <glyph glyph-name="divide" unicode="&#xf7;" 
d="M246 564q0 19 13.5 33.5t36.5 14.5q21 0 35 -15t14 -33q0 -20 -13.5 -35.5t-35.5 -15.5q-23 0 -36.5 15t-13.5 36zM246 157q0 18 13.5 32.5t36.5 14.5q21 0 35 -14.5t14 -32.5q0 -21 -13.5 -36t-35.5 -15q-23 0 -36.5 15t-13.5 36zM69 325v70h454v-70h-454z" />
    <glyph glyph-name="oslash" unicode="&#xf8;" horiz-adv-x="565" 
d="M42 225q0 102 66.5 168.5t173.5 66.5q90 0 153 -49l46 44l44 -49l-45 -43q42 -59 42 -138q0 -102 -66.5 -168.5t-173.5 -66.5q-84 0 -146 43l-50 -47l-45 51l46 44q-45 61 -45 144zM127 225q0 -50 21 -86l228 216q-41 30 -94 30q-67 0 -111 -44.5t-44 -115.5zM437 225
q0 41 -18 79l-224 -214q37 -25 87 -25q68 0 111.5 44.5t43.5 115.5z" />
    <glyph glyph-name="ugrave" unicode="&#xf9;" horiz-adv-x="540" 
d="M467 450v-450h-80v64q-26 -31 -67.5 -52.5t-91.5 -21.5q-78 0 -122 48t-44 144v268h80v-250q0 -135 116 -135q37 0 72 19t57 48v318h80zM275 531l-121 142l63 48l107 -156z" />
    <glyph glyph-name="uacute" unicode="&#xfa;" horiz-adv-x="540" 
d="M467 450v-450h-80v64q-26 -31 -67.5 -52.5t-91.5 -21.5q-78 0 -122 48t-44 144v268h80v-250q0 -135 116 -135q37 0 72 19t57 48v318h80zM384 674l-120 -143l-48 34l106 157z" />
    <glyph glyph-name="ucircumflex" unicode="&#xfb;" horiz-adv-x="540" 
d="M467 450v-450h-80v64q-26 -31 -67.5 -52.5t-91.5 -21.5q-78 0 -122 48t-44 144v268h80v-250q0 -135 116 -135q37 0 72 19t57 48v318h80zM269 707l139 -133l-38 -48l-104 91l-104 -90l-38 47l141 133h4z" />
    <glyph glyph-name="udieresis" unicode="&#xfc;" horiz-adv-x="540" 
d="M467 450v-450h-80v64q-26 -31 -67.5 -52.5t-91.5 -21.5q-78 0 -122 48t-44 144v268h80v-250q0 -135 116 -135q37 0 72 19t57 48v318h80zM121 610q0 21 13.5 33.5t33.5 12.5q17 0 30.5 -13t13.5 -33q0 -23 -13 -36.5t-31 -13.5q-20 0 -33.5 13.5t-13.5 36.5zM324 610
q0 20 14 33t34 13q17 0 30.5 -13t13.5 -33q0 -23 -13 -36.5t-31 -13.5q-20 0 -34 13.5t-14 36.5z" />
    <glyph glyph-name="yacute" unicode="&#xfd;" horiz-adv-x="491" 
d="M481 450l-180 -450q-48 -117 -85 -158.5t-87 -41.5q-43 0 -85 28l26 61q32 -15 50 -15q28 0 50.5 24t45.5 78l10 24l-216 450h96l132 -286q4 -9 27 -68q9 33 21 69l104 285h91zM355 674l-120 -143l-48 34l106 157z" />
    <glyph glyph-name="thorn" unicode="&#xfe;" horiz-adv-x="556" 
d="M72 -200v900h80v-298q60 58 153 58q95 0 151.5 -63.5t56.5 -164.5q0 -104 -65 -173t-169 -69q-80 0 -127 31v-221h-80zM282 385q-80 0 -130 -62v-223q52 -35 120 -35q71 0 113.5 46t42.5 118q0 70 -39 113t-107 43z" />
    <glyph glyph-name="ydieresis" unicode="&#xff;" horiz-adv-x="491" 
d="M481 450l-180 -450q-48 -117 -85 -158.5t-87 -41.5q-43 0 -85 28l26 61q32 -15 50 -15q28 0 50.5 24t45.5 78l10 24l-216 450h96l132 -286q4 -9 27 -68q9 33 21 69l104 285h91zM103 610q0 21 13.5 33.5t33.5 12.5q17 0 30.5 -13t13.5 -33q0 -23 -13 -36.5t-31 -13.5
q-20 0 -33.5 13.5t-13.5 36.5zM306 610q0 20 14 33t34 13q17 0 30.5 -13t13.5 -33q0 -23 -13 -36.5t-31 -13.5q-20 0 -34 13.5t-14 36.5z" />
    <glyph glyph-name="Amacron" unicode="&#x100;" horiz-adv-x="705" 
d="M15 0l301 704h73l301 -704h-91l-90 212h-319l-89 -212h-86zM350 591l-126 -299h252zM200 770v65h304v-65h-304z" />
    <glyph glyph-name="amacron" unicode="&#x101;" horiz-adv-x="460" 
d="M96 355l-21 64q66 41 150 41q93 0 133 -46t40 -138v-276h-76v58q-52 -65 -144 -65q-62 0 -100 37.5t-38 101.5q0 67 47.5 105t122.5 38q72 0 112 -29q0 72 -20 107t-82 35q-61 0 -124 -33zM206 65q67 0 116 58v57q-42 30 -101 30q-40 0 -68 -19t-28 -55q0 -33 21.5 -52
t59.5 -19zM101 580v65h264v-65h-264z" />
    <glyph glyph-name="Abreve" unicode="&#x102;" horiz-adv-x="705" 
d="M15 0l301 704h73l301 -704h-91l-90 212h-319l-89 -212h-86zM350 591l-126 -299h252zM177 838l36 42q58 -65 143 -65t140 65l31 -42q-25 -39 -71 -66t-100 -27q-61 0 -108.5 29t-70.5 64z" />
    <glyph glyph-name="abreve" unicode="&#x103;" horiz-adv-x="460" 
d="M96 355l-21 64q66 41 150 41q93 0 133 -46t40 -138v-276h-76v58q-52 -65 -144 -65q-62 0 -100 37.5t-38 101.5q0 67 47.5 105t122.5 38q72 0 112 -29q0 72 -20 107t-82 35q-61 0 -124 -33zM206 65q67 0 116 58v57q-42 30 -101 30q-40 0 -68 -19t-28 -55q0 -33 21.5 -52
t59.5 -19zM79 640l37 41q51 -61 114 -61q65 0 115 60l29 -39q-62 -86 -147 -86q-93 0 -148 85z" />
    <glyph glyph-name="Aogonek" unicode="&#x104;" horiz-adv-x="705" 
d="M661 -126l24 -49q-30 -25 -86 -25q-50 0 -86 22t-36 70q0 43 33.5 72t85.5 42l-87 206h-319l-89 -212h-86l301 704h73l301 -704h-19q-46 -2 -80 -25.5t-34 -56.5q0 -28 19 -40.5t41 -12.5q25 0 44 9zM350 591l-126 -299h252z" />
    <glyph glyph-name="aogonek" unicode="&#x105;" horiz-adv-x="460" 
d="M383 -126l24 -49q-30 -25 -86 -25q-50 0 -86 22t-36 70q0 43 34.5 72.5t88.5 42.5v51q-52 -65 -144 -65q-62 0 -100 37.5t-38 101.5q0 67 47.5 105t122.5 38q72 0 112 -29q0 72 -20 107t-82 35q-61 0 -124 -33l-21 64q66 41 150 41q93 0 133 -46t40 -138v-276
q-47 0 -83 -24.5t-36 -57.5q0 -28 19 -40.5t41 -12.5q25 0 44 9zM206 65q67 0 116 58v57q-42 30 -101 30q-40 0 -68 -19t-28 -55q0 -33 21.5 -52t59.5 -19z" />
    <glyph glyph-name="Cacute" unicode="&#x106;" horiz-adv-x="656" 
d="M592 132l34 -64q-35 -36 -95 -57t-126 -21q-158 0 -256.5 98.5t-98.5 261.5q0 155 94.5 257.5t254.5 102.5q134 0 213 -68l-39 -64q-70 52 -173 52q-114 0 -187 -78t-73 -202q0 -125 75.5 -202.5t197.5 -77.5q103 0 179 62zM538 819l-202 -84l-23 48l195 104z" />
    <glyph glyph-name="cacute" unicode="&#x107;" horiz-adv-x="488" 
d="M418 123l38 -58q-28 -36 -74 -55.5t-99 -19.5q-108 0 -174.5 64.5t-66.5 170.5q0 99 65 167t163 68q118 0 177 -59l-37 -63q-51 47 -129 47q-63 0 -108.5 -45.5t-45.5 -114.5q0 -72 46.5 -116t115.5 -44q78 0 129 58zM382 674l-120 -143l-48 34l106 157z" />
    <glyph glyph-name="Ccircumflex" unicode="&#x108;" horiz-adv-x="656" 
d="M592 132l34 -64q-35 -36 -95 -57t-126 -21q-158 0 -256.5 98.5t-98.5 261.5q0 155 94.5 257.5t254.5 102.5q134 0 213 -68l-39 -64q-70 52 -173 52q-114 0 -187 -78t-73 -202q0 -125 75.5 -202.5t197.5 -77.5q103 0 179 62zM216 778l171 104h4l174 -103l-33 -46l-143 76
l-144 -76z" />
    <glyph glyph-name="ccircumflex" unicode="&#x109;" horiz-adv-x="488" 
d="M418 123l38 -58q-28 -36 -74 -55.5t-99 -19.5q-108 0 -174.5 64.5t-66.5 170.5q0 99 65 167t163 68q118 0 177 -59l-37 -63q-51 47 -129 47q-63 0 -108.5 -45.5t-45.5 -114.5q0 -72 46.5 -116t115.5 -44q78 0 129 58zM279 707l139 -133l-38 -48l-104 91l-104 -90l-38 47
l141 133h4z" />
    <glyph glyph-name="Cdotaccent" unicode="&#x10a;" horiz-adv-x="656" 
d="M592 132l34 -64q-35 -36 -95 -57t-126 -21q-158 0 -256.5 98.5t-98.5 261.5q0 155 94.5 257.5t254.5 102.5q134 0 213 -68l-39 -64q-70 52 -173 52q-114 0 -187 -78t-73 -202q0 -125 75.5 -202.5t197.5 -77.5q103 0 179 62zM325 817q0 23 16.5 37t40.5 14q22 0 38 -14
t16 -37q0 -25 -16 -39.5t-38 -14.5q-24 0 -40.5 14.5t-16.5 39.5z" />
    <glyph glyph-name="cdotaccent" unicode="&#x10b;" horiz-adv-x="488" 
d="M418 123l38 -58q-28 -36 -74 -55.5t-99 -19.5q-108 0 -174.5 64.5t-66.5 170.5q0 99 65 167t163 68q118 0 177 -59l-37 -63q-51 47 -129 47q-63 0 -108.5 -45.5t-45.5 -114.5q0 -72 46.5 -116t115.5 -44q78 0 129 58zM226 619q0 21 15 34.5t37 13.5q20 0 34.5 -13.5
t14.5 -34.5q0 -24 -14.5 -38t-34.5 -14q-22 0 -37 14t-15 38z" />
    <glyph glyph-name="Ccaron" unicode="&#x10c;" horiz-adv-x="656" 
d="M592 132l34 -64q-35 -36 -95 -57t-126 -21q-158 0 -256.5 98.5t-98.5 261.5q0 155 94.5 257.5t254.5 102.5q134 0 213 -68l-39 -64q-70 52 -173 52q-114 0 -187 -78t-73 -202q0 -125 75.5 -202.5t197.5 -77.5q103 0 179 62zM390 738l-175 103l33 46l144 -81l143 81
l30 -45l-171 -104h-4z" />
    <glyph glyph-name="ccaron" unicode="&#x10d;" horiz-adv-x="488" 
d="M418 123l38 -58q-28 -36 -74 -55.5t-99 -19.5q-108 0 -174.5 64.5t-66.5 170.5q0 99 65 167t163 68q118 0 177 -59l-37 -63q-51 47 -129 47q-63 0 -108.5 -45.5t-45.5 -114.5q0 -72 46.5 -116t115.5 -44q78 0 129 58zM273 529l-140 133l39 48l104 -103l104 102l37 -47
l-140 -133h-4z" />
    <glyph glyph-name="Dcaron" unicode="&#x10e;" horiz-adv-x="739" 
d="M105 0v700h12q22 0 85.5 1.5t93.5 1.5q102 0 179 -27.5t123 -76t68.5 -109t22.5 -131.5q0 -157 -104.5 -259t-296.5 -102q-22 0 -81.5 1t-90.5 1h-11zM294 623q-19 0 -36 -0.5t-36.5 -1.5t-31.5 -1v-540q92 -2 101 -2q146 0 227 77.5t81 203.5q0 118 -79 191t-226 73z
M335 738l-175 103l33 46l144 -81l143 81l30 -45l-171 -104h-4z" />
    <glyph glyph-name="dcaron" unicode="&#x10f;" horiz-adv-x="554" 
d="M402 0v57q-60 -65 -143 -65q-99 0 -158 63t-59 167q0 105 69.5 171.5t176.5 66.5q69 0 114 -32v272h80v-700h-80zM274 67q74 0 128 60v223q-55 35 -111 35q-69 0 -116.5 -44.5t-47.5 -116.5q0 -73 41 -115t106 -42zM571 700h78q8 -16 8 -38q0 -56 -25 -95t-61 -58l-36 35
q47 40 47 109q0 27 -11 47z" />
    <glyph glyph-name="Dcroat" unicode="&#x110;" horiz-adv-x="754" 
d="M10 316v75h110v309h12q22 0 85.5 1.5t93.5 1.5q102 0 179 -27.5t123 -76t68.5 -109t22.5 -131.5q0 -157 -104.5 -259t-296.5 -102q-22 0 -81.5 1t-90.5 1h-11v316h-110zM309 623q-19 0 -36 -0.5t-36.5 -1.5t-31.5 -1v-229h188v-75h-188v-236q92 -2 101 -2q146 0 227 77.5
t81 203.5q0 118 -79 191t-226 73z" />
    <glyph glyph-name="dcroat" unicode="&#x111;" horiz-adv-x="554" 
d="M245 534v65h157v101h80v-101h92v-65h-92v-534h-80v57q-60 -65 -143 -65q-99 0 -158 63t-59 167q0 105 69.5 171.5t176.5 66.5q69 0 114 -32v106h-157zM274 67q74 0 128 60v223q-55 35 -111 35q-69 0 -116.5 -44.5t-47.5 -116.5q0 -73 41 -115t106 -42z" />
    <glyph glyph-name="Emacron" unicode="&#x112;" horiz-adv-x="575" 
d="M105 0v700h395v-80h-310v-226h280v-80h-280v-234h320v-80h-405zM150 770v65h304v-65h-304z" />
    <glyph glyph-name="emacron" unicode="&#x113;" horiz-adv-x="520" 
d="M427 112l25 -63q-65 -59 -169 -59q-109 0 -175 64t-66 171q0 102 62 168.5t170 66.5q89 0 149 -57.5t60 -148.5q0 -31 -5 -54h-346q5 -63 47.5 -99t109.5 -36q88 0 138 47zM270 385q-60 0 -98 -33.5t-45 -86.5h273q-3 56 -37.5 88t-92.5 32zM132 580v65h264v-65h-264z
" />
    <glyph glyph-name="Edotaccent" unicode="&#x116;" horiz-adv-x="575" 
d="M105 0v700h395v-80h-310v-226h280v-80h-280v-234h320v-80h-405zM250 817q0 23 16.5 37t40.5 14q22 0 38 -14t16 -37q0 -25 -16 -39.5t-38 -14.5q-24 0 -40.5 14.5t-16.5 39.5z" />
    <glyph glyph-name="edotaccent" unicode="&#x117;" horiz-adv-x="520" 
d="M427 112l25 -63q-65 -59 -169 -59q-109 0 -175 64t-66 171q0 102 62 168.5t170 66.5q89 0 149 -57.5t60 -148.5q0 -31 -5 -54h-346q5 -63 47.5 -99t109.5 -36q88 0 138 47zM270 385q-60 0 -98 -33.5t-45 -86.5h273q-3 56 -37.5 88t-92.5 32zM215 619q0 21 15 34.5
t37 13.5q20 0 34.5 -13.5t14.5 -34.5q0 -24 -14.5 -38t-34.5 -14q-22 0 -37 14t-15 38z" />
    <glyph glyph-name="Eogonek" unicode="&#x118;" horiz-adv-x="575" 
d="M105 0v700h395v-80h-310v-226h280v-80h-280v-234h320v-80h-5q-46 -2 -80 -25.5t-34 -56.5q0 -28 19 -40.5t41 -12.5q25 0 44 9l24 -49q-30 -25 -86 -25q-50 0 -86 22t-36 70q0 74 98 108h-304z" />
    <glyph glyph-name="eogonek" unicode="&#x119;" horiz-adv-x="520" 
d="M427 112l25 -63q-32 -29 -74 -43q-67 -44 -67 -88q0 -28 19.5 -40.5t41.5 -12.5q25 0 44 9l24 -49q-30 -25 -86 -25q-50 0 -86.5 22t-36.5 70q0 56 72 99q-3 0 -10 -0.5t-10 -0.5q-109 0 -175 64t-66 171q0 102 62 168.5t170 66.5q89 0 149 -57.5t60 -148.5q0 -31 -5 -54
h-346q5 -63 47.5 -99t109.5 -36q88 0 138 47zM270 385q-60 0 -98 -33.5t-45 -86.5h273q-3 56 -37.5 88t-92.5 32z" />
    <glyph glyph-name="Ecaron" unicode="&#x11a;" horiz-adv-x="575" 
d="M105 0v700h395v-80h-310v-226h280v-80h-280v-234h320v-80h-405zM310 738l-175 103l33 46l144 -81l143 81l30 -45l-171 -104h-4z" />
    <glyph glyph-name="ecaron" unicode="&#x11b;" horiz-adv-x="520" 
d="M427 112l25 -63q-65 -59 -169 -59q-109 0 -175 64t-66 171q0 102 62 168.5t170 66.5q89 0 149 -57.5t60 -148.5q0 -31 -5 -54h-346q5 -63 47.5 -99t109.5 -36q88 0 138 47zM270 385q-60 0 -98 -33.5t-45 -86.5h273q-3 56 -37.5 88t-92.5 32zM271 529l-140 133l39 48
l104 -103l104 102l37 -47l-140 -133h-4z" />
    <glyph glyph-name="Gcircumflex" unicode="&#x11c;" horiz-adv-x="727" 
d="M398 276v80h269v-269q-45 -45 -119 -71t-143 -26q-163 0 -259 98t-96 262q0 154 95 257t249 103q134 0 220 -68l-37 -68q-62 56 -173 56q-118 0 -191 -77t-73 -203q0 -127 73.5 -203.5t193.5 -76.5q50 0 101 17.5t79 44.5v144h-189zM216 778l171 104h4l174 -103l-33 -46
l-143 76l-144 -76z" />
    <glyph glyph-name="gcircumflex" unicode="&#x11d;" horiz-adv-x="494" 
d="M10 -65q0 53 38.5 88t105.5 49q-11 14 -11 37t12 38q-48 19 -74.5 58.5t-26.5 89.5q0 70 50.5 117.5t133.5 47.5q65 0 114 -33l132 32l2 -65l-85 -21q21 -34 21 -78q0 -69 -51 -115.5t-133 -46.5q-20 0 -30 1q-5 -10 -5 -25q0 -18 9 -30q4 0 13 0.5t14 0.5q103 0 166 -37
t63 -108q0 -70 -63 -106.5t-166 -36.5t-166 36t-63 107zM85 -65q0 -37 41.5 -57.5t112.5 -20.5t112.5 20t41.5 58q0 37 -41 58.5t-113 21.5t-113 -21.5t-41 -58.5zM129 295q0 -42 30 -69.5t79 -27.5q48 0 78.5 27t30.5 70t-30 71.5t-79 28.5t-79 -28.5t-30 -71.5zM245 707
l139 -133l-38 -48l-104 91l-104 -90l-38 47l141 133h4z" />
    <glyph glyph-name="Gbreve" unicode="&#x11e;" horiz-adv-x="727" 
d="M398 276v80h269v-269q-45 -45 -119 -71t-143 -26q-163 0 -259 98t-96 262q0 154 95 257t249 103q134 0 220 -68l-37 -68q-62 56 -173 56q-118 0 -191 -77t-73 -203q0 -127 73.5 -203.5t193.5 -76.5q50 0 101 17.5t79 44.5v144h-189zM226 838l36 42q58 -65 143 -65t140 65
l31 -42q-25 -39 -71 -66t-100 -27q-61 0 -108.5 29t-70.5 64z" />
    <glyph glyph-name="gbreve" unicode="&#x11f;" horiz-adv-x="494" 
d="M10 -65q0 53 38.5 88t105.5 49q-11 14 -11 37t12 38q-48 19 -74.5 58.5t-26.5 89.5q0 70 50.5 117.5t133.5 47.5q65 0 114 -33l132 32l2 -65l-85 -21q21 -34 21 -78q0 -69 -51 -115.5t-133 -46.5q-20 0 -30 1q-5 -10 -5 -25q0 -18 9 -30q4 0 13 0.5t14 0.5q103 0 166 -37
t63 -108q0 -70 -63 -106.5t-166 -36.5t-166 36t-63 107zM85 -65q0 -37 41.5 -57.5t112.5 -20.5t112.5 20t41.5 58q0 37 -41 58.5t-113 21.5t-113 -21.5t-41 -58.5zM129 295q0 -42 30 -69.5t79 -27.5q48 0 78.5 27t30.5 70t-30 71.5t-79 28.5t-79 -28.5t-30 -71.5zM92 640
l37 41q51 -61 114 -61q65 0 115 60l29 -39q-62 -86 -147 -86q-93 0 -148 85z" />
    <glyph glyph-name="Gdotaccent" unicode="&#x120;" horiz-adv-x="727" 
d="M398 276v80h269v-269q-45 -45 -119 -71t-143 -26q-163 0 -259 98t-96 262q0 154 95 257t249 103q134 0 220 -68l-37 -68q-62 56 -173 56q-118 0 -191 -77t-73 -203q0 -127 73.5 -203.5t193.5 -76.5q50 0 101 17.5t79 44.5v144h-189zM325 817q0 23 16.5 37t40.5 14
q22 0 38 -14t16 -37q0 -25 -16 -39.5t-38 -14.5q-24 0 -40.5 14.5t-16.5 39.5z" />
    <glyph glyph-name="gdotaccent" unicode="&#x121;" horiz-adv-x="494" 
d="M10 -65q0 53 38.5 88t105.5 49q-11 14 -11 37t12 38q-48 19 -74.5 58.5t-26.5 89.5q0 70 50.5 117.5t133.5 47.5q65 0 114 -33l132 32l2 -65l-85 -21q21 -34 21 -78q0 -69 -51 -115.5t-133 -46.5q-20 0 -30 1q-5 -10 -5 -25q0 -18 9 -30q4 0 13 0.5t14 0.5q103 0 166 -37
t63 -108q0 -70 -63 -106.5t-166 -36.5t-166 36t-63 107zM85 -65q0 -37 41.5 -57.5t112.5 -20.5t112.5 20t41.5 58q0 37 -41 58.5t-113 21.5t-113 -21.5t-41 -58.5zM129 295q0 -42 30 -69.5t79 -27.5q48 0 78.5 27t30.5 70t-30 71.5t-79 28.5t-79 -28.5t-30 -71.5zM189 619
q0 21 15 34.5t37 13.5q20 0 34.5 -13.5t14.5 -34.5q0 -24 -14.5 -38t-34.5 -14q-22 0 -37 14t-15 38z" />
    <glyph glyph-name="Gcommaaccent" unicode="&#x122;" horiz-adv-x="727" 
d="M398 276v80h269v-269q-45 -45 -119 -71t-143 -26q-163 0 -259 98t-96 262q0 154 95 257t249 103q134 0 220 -68l-37 -68q-62 56 -173 56q-118 0 -191 -77t-73 -203q0 -127 73.5 -203.5t193.5 -76.5q50 0 101 17.5t79 44.5v144h-189zM351 -65l75 19q29 -7 29 -49
q0 -44 -30 -72t-73 -37l-23 36q46 18 46 62q0 31 -24 41z" />
    <glyph glyph-name="gcommaaccent" unicode="&#x123;" horiz-adv-x="494" 
d="M10 -65q0 53 38.5 88t105.5 49q-11 14 -11 37t12 38q-48 19 -74.5 58.5t-26.5 89.5q0 70 50.5 117.5t133.5 47.5q65 0 114 -33l132 32l2 -65l-85 -21q21 -34 21 -78q0 -69 -51 -115.5t-133 -46.5q-20 0 -30 1q-5 -10 -5 -25q0 -18 9 -30q4 0 13 0.5t14 0.5q103 0 166 -37
t63 -108q0 -70 -63 -106.5t-166 -36.5t-166 36t-63 107zM85 -65q0 -37 41.5 -57.5t112.5 -20.5t112.5 20t41.5 58q0 37 -41 58.5t-113 21.5t-113 -21.5t-41 -58.5zM129 295q0 -42 30 -69.5t79 -27.5q48 0 78.5 27t30.5 70t-30 71.5t-79 28.5t-79 -28.5t-30 -71.5zM285 562
l-75 -19q-29 7 -29 49q0 44 30 72t73 37l23 -36q-46 -18 -46 -62q0 -31 24 -41z" />
    <glyph glyph-name="Hcircumflex" unicode="&#x124;" horiz-adv-x="765" 
d="M575 0v317h-385v-317h-85v700h85v-303h385v303h85v-700h-85zM209 778l171 104h4l174 -103l-33 -46l-143 76l-144 -76z" />
    <glyph glyph-name="hcircumflex" unicode="&#x125;" horiz-adv-x="549" 
d="M72 0v700h80v-302q26 26 65.5 43t81.5 17q187 0 187 -200v-258h-80v247q0 136 -126 136q-36 0 -71 -16t-57 -41v-326h-80zM-17 778l171 104h4l174 -103l-33 -46l-143 76l-144 -76z" />
    <glyph glyph-name="Hbar" unicode="&#x126;" horiz-adv-x="775" 
d="M25 514v75h85v111h85v-111h385v111h85v-111h85v-75h-85v-514h-85v317h-385v-317h-85v514h-85zM195 397h385v117h-385v-117z" />
    <glyph glyph-name="hbar" unicode="&#x127;" horiz-adv-x="574" 
d="M-20 520v75h117v105h80v-105h162v-75h-162v-122q26 26 65.5 43t81.5 17q187 0 187 -200v-258h-80v247q0 136 -126 136q-36 0 -71 -16t-57 -41v-326h-80v520h-117z" />
    <glyph glyph-name="Imacron" unicode="&#x12a;" horiz-adv-x="335" 
d="M125 0v700h85v-700h-85zM18 770v65h304v-65h-304z" />
    <glyph glyph-name="imacron" unicode="&#x12b;" horiz-adv-x="268" 
d="M94 0v450h80v-450h-80zM2 580v65h264v-65h-264z" />
    <glyph glyph-name="Iogonek" unicode="&#x12e;" horiz-adv-x="335" 
d="M195 -126l24 -49q-30 -25 -86 -25q-50 0 -86 22t-36 70q0 41 31.5 70t82.5 43v695h85v-700h-5q-46 -2 -80 -25.5t-34 -56.5q0 -28 19 -40.5t41 -12.5q25 0 44 9z" />
    <glyph glyph-name="iogonek" unicode="&#x12f;" horiz-adv-x="268" 
d="M158 -126l24 -49q-30 -25 -86 -25q-50 0 -86 22t-36 70q0 43 33.5 72t86.5 42v444h80v-450h-6q-46 -2 -80 -25.5t-34 -56.5q0 -28 19 -40.5t41 -12.5q25 0 44 9zM81 619q0 21 15 34.5t37 13.5q20 0 34.5 -13.5t14.5 -34.5q0 -24 -14.5 -38t-34.5 -14q-22 0 -37 14t-15 38
z" />
    <glyph glyph-name="Idotaccent" unicode="&#x130;" horiz-adv-x="335" 
d="M125 0v700h85v-700h-85zM112 817q0 23 16.5 37t40.5 14q22 0 38 -14t16 -37q0 -25 -16 -39.5t-38 -14.5q-24 0 -40.5 14.5t-16.5 39.5z" />
    <glyph glyph-name="dotlessi" unicode="&#x131;" horiz-adv-x="268" 
d="M94 0v450h80v-450h-80z" />
    <glyph glyph-name="Jcircumflex" unicode="&#x134;" horiz-adv-x="374" 
d="M269 700v-541q0 -169 -153 -169q-69 0 -106 37l29 65q29 -22 66 -22q79 0 79 103v527h85zM47 778l171 104h4l174 -103l-33 -46l-143 76l-144 -76z" />
    <glyph glyph-name="jcircumflex" unicode="&#x135;" horiz-adv-x="266" 
d="M178 450v-483q0 -175 -141 -175q-63 0 -100 29l23 64q29 -18 59 -18q79 0 79 106v477h80zM141 707l139 -133l-38 -48l-104 91l-104 -90l-38 47l141 133h4z" />
    <glyph glyph-name="Kcommaaccent" unicode="&#x136;" horiz-adv-x="653" 
d="M617 700l-312 -329l328 -371h-109l-317 365l307 335h103zM105 0v700h85v-700h-85zM271 -65l75 19q29 -7 29 -49q0 -44 -30 -72t-73 -37l-23 36q46 18 46 62q0 31 -24 41z" />
    <glyph glyph-name="kcommaaccent" unicode="&#x137;" horiz-adv-x="491" 
d="M457 450l-191 -209l215 -241h-109l-203 235l186 215h102zM72 0v700h80v-700h-80zM185 -65l75 19q29 -7 29 -49q0 -44 -30 -72t-73 -37l-23 36q46 18 46 62q0 31 -24 41z" />
    <glyph glyph-name="Lacute" unicode="&#x139;" horiz-adv-x="550" 
d="M105 0v700h85v-620h345v-80h-430zM438 819l-202 -84l-23 48l195 104z" />
    <glyph glyph-name="lacute" unicode="&#x13a;" horiz-adv-x="290" 
d="M72 120v580h80v-544q0 -46 12.5 -67.5t40.5 -21.5q27 0 57 20l18 -61q-43 -34 -106 -34q-102 0 -102 128zM295 819l-202 -84l-23 48l195 104z" />
    <glyph glyph-name="Lcommaaccent" unicode="&#x13b;" horiz-adv-x="550" 
d="M105 0v700h85v-620h345v-80h-430zM261 -65l75 19q29 -7 29 -49q0 -44 -30 -72t-73 -37l-23 36q46 18 46 62q0 31 -24 41z" />
    <glyph glyph-name="lcommaaccent" unicode="&#x13c;" horiz-adv-x="290" 
d="M72 120v580h80v-544q0 -46 12.5 -67.5t40.5 -21.5q27 0 57 20l18 -61q-43 -34 -106 -34q-102 0 -102 128zM118 -65l75 19q29 -7 29 -49q0 -44 -30 -72t-73 -37l-23 36q46 18 46 62q0 31 -24 41z" />
    <glyph glyph-name="Lcaron" unicode="&#x13d;" horiz-adv-x="550" 
d="M105 0v700h85v-620h345v-80h-430zM356 700h78q8 -16 8 -38q0 -56 -25 -95t-61 -58l-36 35q47 40 47 109q0 27 -11 47z" />
    <glyph glyph-name="lcaron" unicode="&#x13e;" horiz-adv-x="290" 
d="M72 120v580h80v-544q0 -46 12.5 -67.5t40.5 -21.5q27 0 57 20l18 -61q-43 -34 -106 -34q-102 0 -102 128zM246 700h78q8 -16 8 -38q0 -56 -25 -95t-61 -58l-36 35q47 40 47 109q0 27 -11 47z" />
    <glyph glyph-name="Ldot" unicode="&#x13f;" horiz-adv-x="550" 
d="M105 0v700h85v-620h345v-80h-430zM368 374q0 21 16 37t41 16q22 0 37.5 -16.5t15.5 -36.5q0 -23 -15 -40t-38 -17q-25 0 -41 17t-16 40z" />
    <glyph glyph-name="ldot" unicode="&#x140;" horiz-adv-x="324" 
d="M72 120v580h80v-544q0 -46 12.5 -67.5t40.5 -21.5q27 0 57 20l18 -61q-43 -34 -106 -34q-102 0 -102 128zM226 326q0 21 15 34.5t37 13.5q20 0 34.5 -13.5t14.5 -34.5q0 -24 -14.5 -38t-34.5 -14q-22 0 -37 14t-15 38z" />
    <glyph glyph-name="Lslash" unicode="&#x141;" horiz-adv-x="560" 
d="M25 219v83l90 43v355h85v-314l176 86v-82l-176 -86v-224h345v-80h-430v263z" />
    <glyph glyph-name="lslash" unicode="&#x142;" horiz-adv-x="320" 
d="M15 222v83l77 37v358h80v-320l105 51v-82l-105 -51v-142q0 -46 12.5 -67.5t40.5 -21.5q27 0 57 20l18 -61q-43 -34 -106 -34q-102 0 -102 128v139z" />
    <glyph glyph-name="Nacute" unicode="&#x143;" horiz-adv-x="795" 
d="M690 0h-68l-437 550v-550h-80v700h68l437 -552v552h80v-700zM563 819l-202 -84l-23 48l195 104z" />
    <glyph glyph-name="nacute" unicode="&#x144;" horiz-adv-x="549" 
d="M72 0v450h80v-55q25 27 65 45t82 18q187 0 187 -198v-260h-80v245q0 138 -127 138q-76 0 -127 -58v-325h-80zM391 674l-120 -143l-48 34l106 157z" />
    <glyph glyph-name="Ncommaaccent" unicode="&#x145;" horiz-adv-x="795" 
d="M690 0h-68l-437 550v-550h-80v700h68l437 -552v552h80v-700zM346 -65l75 19q29 -7 29 -49q0 -44 -30 -72t-73 -37l-23 36q46 18 46 62q0 31 -24 41z" />
    <glyph glyph-name="ncommaaccent" unicode="&#x146;" horiz-adv-x="549" 
d="M72 0v450h80v-55q25 27 65 45t82 18q187 0 187 -198v-260h-80v245q0 138 -127 138q-76 0 -127 -58v-325h-80zM224 -65l75 19q29 -7 29 -49q0 -44 -30 -72t-73 -37l-23 36q46 18 46 62q0 31 -24 41z" />
    <glyph glyph-name="Ncaron" unicode="&#x147;" horiz-adv-x="795" 
d="M690 0h-68l-437 550v-550h-80v700h68l437 -552v552h80v-700zM397 738l-175 103l33 46l144 -81l143 81l30 -45l-171 -104h-4z" />
    <glyph glyph-name="ncaron" unicode="&#x148;" horiz-adv-x="549" 
d="M72 0v450h80v-55q25 27 65 45t82 18q187 0 187 -198v-260h-80v245q0 138 -127 138q-76 0 -127 -58v-325h-80zM271 529l-140 133l39 48l104 -103l104 102l37 -47l-140 -133h-4z" />
    <glyph glyph-name="Omacron" unicode="&#x14c;" horiz-adv-x="814" 
d="M50 350q0 153 101 256.5t256 103.5q154 0 255.5 -101t101.5 -259q0 -155 -102 -257.5t-255 -102.5q-154 0 -255.5 101t-101.5 259zM140 350q0 -119 77 -199.5t190 -80.5q118 0 192.5 80t74.5 200q0 121 -77 200.5t-190 79.5q-115 0 -191 -79t-76 -201zM260 770v65h304
v-65h-304z" />
    <glyph glyph-name="omacron" unicode="&#x14d;" horiz-adv-x="565" 
d="M42 225q0 102 66.5 168.5t173.5 66.5t173.5 -66.5t66.5 -168.5t-66.5 -168.5t-173.5 -66.5t-173.5 66.5t-66.5 168.5zM127 225q0 -70 43.5 -115t111.5 -45t111.5 44.5t43.5 115.5q0 70 -43.5 115t-111.5 45q-67 0 -111 -44.5t-44 -115.5zM155 580v65h264v-65h-264z" />
    <glyph glyph-name="Ohungarumlaut" unicode="&#x150;" horiz-adv-x="814" 
d="M50 350q0 153 101 256.5t256 103.5q154 0 255.5 -101t101.5 -259q0 -155 -102 -257.5t-255 -102.5q-154 0 -255.5 101t-101.5 259zM140 350q0 -119 77 -199.5t190 -80.5q118 0 192.5 80t74.5 200q0 121 -77 200.5t-190 79.5q-115 0 -191 -79t-76 -201zM662 836l-179 -101
l-33 35l157 117zM467 851l-161 -116l-34 32l128 120z" />
    <glyph glyph-name="ohungarumlaut" unicode="&#x151;" horiz-adv-x="565" 
d="M42 225q0 102 66.5 168.5t173.5 66.5t173.5 -66.5t66.5 -168.5t-66.5 -168.5t-173.5 -66.5t-173.5 66.5t-66.5 168.5zM127 225q0 -70 43.5 -115t111.5 -45t111.5 44.5t43.5 115.5q0 70 -43.5 115t-111.5 45q-67 0 -111 -44.5t-44 -115.5zM485 671l-125 -140l-48 34
l114 151zM318 680l-113 -149l-48 34l103 158z" />
    <glyph glyph-name="OE" unicode="&#x152;" horiz-adv-x="1042" 
d="M572 0v28q-71 -38 -167 -38q-158 0 -256.5 98.5t-98.5 261.5q0 155 94.5 257.5t254.5 102.5q99 0 173 -40v30h395v-80h-310v-226h280v-80h-280v-234h320v-80h-405zM413 70q90 0 159 46v462q-70 52 -172 52q-114 0 -187 -78t-73 -202q0 -125 75.5 -202.5t197.5 -77.5z" />
    <glyph glyph-name="oe" unicode="&#x153;" horiz-adv-x="837" 
d="M744 112l25 -63q-63 -59 -168 -59q-98 0 -161 51q-63 -51 -158 -51q-107 0 -173.5 66.5t-66.5 168.5t66.5 168.5t173.5 66.5q93 0 156 -52q63 52 154 52q89 0 148.5 -57.5t59.5 -148.5q0 -31 -5 -54h-345q4 -63 47 -99t110 -36q87 0 137 47zM282 65q65 0 107 37
q-29 52 -29 123q0 68 29 123q-44 37 -107 37q-67 0 -111 -44.5t-44 -115.5q0 -70 43.5 -115t111.5 -45zM587 385q-60 0 -97.5 -33.5t-44.5 -86.5h273q-4 56 -38.5 88t-92.5 32z" />
    <glyph glyph-name="Racute" unicode="&#x154;" horiz-adv-x="643" 
d="M190 0h-85v700q22 0 101 1t87 1q249 0 249 -208q0 -77 -44.5 -129.5t-107.5 -68.5l233 -296h-104l-215 280h-114v-280zM288 622q-32 0 -98 -2v-260h103q64 0 111.5 36.5t47.5 96.5q0 129 -164 129zM433 819l-202 -84l-23 48l195 104z" />
    <glyph glyph-name="racute" unicode="&#x155;" horiz-adv-x="340" 
d="M72 0v450h80v-53q41 61 113 61q47 0 70 -17l-28 -75q-29 17 -61 17q-61 0 -94 -64v-319h-80zM305 674l-120 -143l-48 34l106 157z" />
    <glyph glyph-name="Rcommaaccent" unicode="&#x156;" horiz-adv-x="643" 
d="M190 0h-85v700q22 0 101 1t87 1q249 0 249 -208q0 -77 -44.5 -129.5t-107.5 -68.5l233 -296h-104l-215 280h-114v-280zM288 622q-32 0 -98 -2v-260h103q64 0 111.5 36.5t47.5 96.5q0 129 -164 129zM266 -65l75 19q29 -7 29 -49q0 -44 -30 -72t-73 -37l-23 36q46 18 46 62
q0 31 -24 41z" />
    <glyph glyph-name="rcommaaccent" unicode="&#x157;" horiz-adv-x="340" 
d="M72 0v450h80v-53q41 61 113 61q47 0 70 -17l-28 -75q-29 17 -61 17q-61 0 -94 -64v-319h-80zM109 -65l75 19q29 -7 29 -49q0 -44 -30 -72t-73 -37l-23 36q46 18 46 62q0 31 -24 41z" />
    <glyph glyph-name="Rcaron" unicode="&#x158;" horiz-adv-x="643" 
d="M190 0h-85v700q22 0 101 1t87 1q249 0 249 -208q0 -77 -44.5 -129.5t-107.5 -68.5l233 -296h-104l-215 280h-114v-280zM288 622q-32 0 -98 -2v-260h103q64 0 111.5 36.5t47.5 96.5q0 129 -164 129zM290 738l-175 103l33 46l144 -81l143 81l30 -45l-171 -104h-4z" />
    <glyph glyph-name="rcaron" unicode="&#x159;" horiz-adv-x="340" 
d="M72 0v450h80v-53q41 61 113 61q47 0 70 -17l-28 -75q-29 17 -61 17q-61 0 -94 -64v-319h-80zM191 529l-140 133l39 48l104 -103l104 102l37 -47l-140 -133h-4z" />
    <glyph glyph-name="Sacute" unicode="&#x15a;" horiz-adv-x="549" 
d="M409 179q0 35 -19 61t-49 42.5t-66.5 31.5t-73 32.5t-66.5 39.5t-49 58t-19 83q0 78 57 130.5t154 52.5q60 0 111.5 -20t81.5 -53l-46 -64q-57 57 -142 57q-58 0 -92 -28t-34 -75q0 -35 19 -61t49 -42t66.5 -30.5t73 -31.5t66.5 -38.5t49 -58.5t19 -85
q0 -85 -65.5 -137.5t-162.5 -52.5q-68 0 -132 28.5t-89 76.5l49 58q30 -39 78 -61t95 -22q58 0 97.5 29t39.5 80zM441 819l-202 -84l-23 48l195 104z" />
    <glyph glyph-name="sacute" unicode="&#x15b;" horiz-adv-x="430" 
d="M300 122q0 25 -25 40.5t-60.5 26t-71.5 24.5t-61 44t-25 76q0 58 42.5 92.5t110.5 34.5q100 0 155 -53l-38 -61q-49 44 -113 44q-33 0 -52.5 -16.5t-19.5 -39.5q0 -26 25 -42.5t60.5 -27t71.5 -24t61 -42t25 -72.5q0 -67 -50 -101.5t-124 -34.5q-52 0 -100.5 22t-65.5 48
l45 57q20 -23 58.5 -40t71.5 -17q34 0 57 16.5t23 45.5zM326 674l-120 -143l-48 34l106 157z" />
    <glyph glyph-name="Scircumflex" unicode="&#x15c;" horiz-adv-x="549" 
d="M409 179q0 35 -19 61t-49 42.5t-66.5 31.5t-73 32.5t-66.5 39.5t-49 58t-19 83q0 78 57 130.5t154 52.5q60 0 111.5 -20t81.5 -53l-46 -64q-57 57 -142 57q-58 0 -92 -28t-34 -75q0 -35 19 -61t49 -42t66.5 -30.5t73 -31.5t66.5 -38.5t49 -58.5t19 -85
q0 -85 -65.5 -137.5t-162.5 -52.5q-68 0 -132 28.5t-89 76.5l49 58q30 -39 78 -61t95 -22q58 0 97.5 29t39.5 80zM99 778l171 104h4l174 -103l-33 -46l-143 76l-144 -76z" />
    <glyph glyph-name="scircumflex" unicode="&#x15d;" horiz-adv-x="430" 
d="M300 122q0 25 -25 40.5t-60.5 26t-71.5 24.5t-61 44t-25 76q0 58 42.5 92.5t110.5 34.5q100 0 155 -53l-38 -61q-49 44 -113 44q-33 0 -52.5 -16.5t-19.5 -39.5q0 -26 25 -42.5t60.5 -27t71.5 -24t61 -42t25 -72.5q0 -67 -50 -101.5t-124 -34.5q-52 0 -100.5 22t-65.5 48
l45 57q20 -23 58.5 -40t71.5 -17q34 0 57 16.5t23 45.5zM219 707l139 -133l-38 -48l-104 91l-104 -90l-38 47l141 133h4z" />
    <glyph glyph-name="Scedilla" unicode="&#x15e;" horiz-adv-x="549" 
d="M152 -169l26 42q40 -28 74 -28q25 0 40.5 9.5t15.5 26.5q0 39 -58 39h-6v71q-62 6 -117 33.5t-77 70.5l49 58q30 -39 78 -61t95 -22q58 0 97.5 29t39.5 80q0 35 -19 61t-49 42.5t-66.5 31.5t-73 32.5t-66.5 39.5t-49 58t-19 83q0 78 57 130.5t154 52.5q60 0 111.5 -20
t81.5 -53l-46 -64q-57 57 -142 57q-58 0 -92 -28t-34 -75q0 -35 19 -61t49 -42t66.5 -30.5t73 -31.5t66.5 -38.5t49 -58.5t19 -85q0 -81 -60.5 -132.5t-151.5 -56.5v-34q106 -6 106 -80q0 -37 -33 -59.5t-90 -22.5q-64 0 -118 36z" />
    <glyph glyph-name="scedilla" unicode="&#x15f;" horiz-adv-x="430" 
d="M94 -171l24 39q35 -23 71 -23q25 0 40.5 9.5t15.5 26.5q0 39 -58 39h-6v72q-45 6 -83.5 26t-52.5 42l45 57q20 -23 58.5 -40t71.5 -17q34 0 57 16.5t23 45.5q0 25 -25 40.5t-60.5 26t-71.5 24.5t-61 44t-25 76q0 58 42.5 92.5t110.5 34.5q100 0 155 -53l-38 -61
q-49 44 -113 44q-33 0 -52.5 -16.5t-19.5 -39.5q0 -26 25 -42.5t60.5 -27t71.5 -24t61 -42t25 -72.5q0 -64 -46 -98.5t-115 -37.5v-33q101 -6 101 -80q0 -37 -33.5 -59.5t-92.5 -22.5q-54 0 -105 34z" />
    <glyph glyph-name="Scaron" unicode="&#x160;" horiz-adv-x="549" 
d="M409 179q0 35 -19 61t-49 42.5t-66.5 31.5t-73 32.5t-66.5 39.5t-49 58t-19 83q0 78 57 130.5t154 52.5q60 0 111.5 -20t81.5 -53l-46 -64q-57 57 -142 57q-58 0 -92 -28t-34 -75q0 -35 19 -61t49 -42t66.5 -30.5t73 -31.5t66.5 -38.5t49 -58.5t19 -85
q0 -85 -65.5 -137.5t-162.5 -52.5q-68 0 -132 28.5t-89 76.5l49 58q30 -39 78 -61t95 -22q58 0 97.5 29t39.5 80zM278 738l-175 103l33 46l144 -81l143 81l30 -45l-171 -104h-4z" />
    <glyph glyph-name="scaron" unicode="&#x161;" horiz-adv-x="430" 
d="M300 122q0 25 -25 40.5t-60.5 26t-71.5 24.5t-61 44t-25 76q0 58 42.5 92.5t110.5 34.5q100 0 155 -53l-38 -61q-49 44 -113 44q-33 0 -52.5 -16.5t-19.5 -39.5q0 -26 25 -42.5t60.5 -27t71.5 -24t61 -42t25 -72.5q0 -67 -50 -101.5t-124 -34.5q-52 0 -100.5 22t-65.5 48
l45 57q20 -23 58.5 -40t71.5 -17q34 0 57 16.5t23 45.5zM212 529l-140 133l39 48l104 -103l104 102l37 -47l-140 -133h-4z" />
    <glyph glyph-name="Tcedilla" unicode="&#x162;" horiz-adv-x="595" 
d="M184 -169l26 42q40 -28 74 -28q25 0 40.5 9.5t15.5 26.5q0 39 -58 39h-6v80h-21v620h-245v80h575v-80h-245v-620h-21v-43q106 -6 106 -80q0 -37 -33 -59.5t-90 -22.5q-64 0 -118 36z" />
    <glyph glyph-name="tcedilla" unicode="&#x163;" horiz-adv-x="353" 
d="M67 -171l24 39q35 -23 71 -23q25 0 40.5 9.5t15.5 26.5q0 39 -58 39h-6v79q-92 25 -92 172v404h80v-125h165v-75h-165v-196q0 -112 80 -112q38 0 71 25l25 -62q-46 -38 -115 -38h-6v-35q101 -6 101 -80q0 -37 -33.5 -59.5t-92.5 -22.5q-54 0 -105 34z" />
    <glyph glyph-name="Tcaron" unicode="&#x164;" horiz-adv-x="595" 
d="M10 620v80h575v-80h-245v-620h-85v620h-245zM294 738l-175 103l33 46l144 -81l143 81l30 -45l-171 -104h-4z" />
    <glyph glyph-name="tcaron" unicode="&#x165;" horiz-adv-x="353" 
d="M62 171v404h80v-125h165v-75h-165v-196q0 -112 80 -112q38 0 71 25l25 -62q-46 -38 -115 -38q-74 0 -107.5 45t-33.5 134zM246 700h78q8 -16 8 -38q0 -56 -25 -95t-61 -58l-36 35q47 40 47 109q0 27 -11 47z" />
    <glyph glyph-name="Umacron" unicode="&#x16a;" horiz-adv-x="751" 
d="M656 700v-408q0 -151 -77 -226t-194 -75q-131 0 -210.5 79.5t-79.5 228.5v401h85v-385q0 -115 53.5 -179.5t151.5 -64.5q88 0 137 60.5t49 177.5v391h85zM228 770v65h304v-65h-304z" />
    <glyph glyph-name="umacron" unicode="&#x16b;" horiz-adv-x="540" 
d="M467 450v-450h-80v64q-26 -31 -67.5 -52.5t-91.5 -21.5q-78 0 -122 48t-44 144v268h80v-250q0 -135 116 -135q37 0 72 19t57 48v318h80zM135 580v65h264v-65h-264z" />
    <glyph glyph-name="Ubreve" unicode="&#x16c;" horiz-adv-x="751" 
d="M656 700v-408q0 -151 -77 -226t-194 -75q-131 0 -210.5 79.5t-79.5 228.5v401h85v-385q0 -115 53.5 -179.5t151.5 -64.5q88 0 137 60.5t49 177.5v391h85zM198 838l36 42q58 -65 143 -65t140 65l31 -42q-25 -39 -71 -66t-100 -27q-61 0 -108.5 29t-70.5 64z" />
    <glyph glyph-name="ubreve" unicode="&#x16d;" horiz-adv-x="540" 
d="M467 450v-450h-80v64q-26 -31 -67.5 -52.5t-91.5 -21.5q-78 0 -122 48t-44 144v268h80v-250q0 -135 116 -135q37 0 72 19t57 48v318h80zM119 640l37 41q51 -61 114 -61q65 0 115 60l29 -39q-62 -86 -147 -86q-93 0 -148 85z" />
    <glyph glyph-name="Uring" unicode="&#x16e;" horiz-adv-x="751" 
d="M656 700v-408q0 -151 -77 -226t-194 -75q-131 0 -210.5 79.5t-79.5 228.5v401h85v-385q0 -115 53.5 -179.5t151.5 -64.5q88 0 137 60.5t49 177.5v391h85zM251 792q0 48 34.5 72t89.5 24q56 0 91 -24t35 -72t-35.5 -74t-90.5 -26q-54 0 -89 26t-35 74zM311 792
q0 -27 18 -41t47 -14q28 0 46.5 14t18.5 41q0 51 -65 51t-65 -51z" />
    <glyph glyph-name="uring" unicode="&#x16f;" horiz-adv-x="540" 
d="M467 450v-450h-80v64q-26 -31 -67.5 -52.5t-91.5 -21.5q-78 0 -122 48t-44 144v268h80v-250q0 -135 116 -135q37 0 72 19t57 48v318h80zM152 613q0 46 33 78.5t81 32.5q49 0 82.5 -32.5t33.5 -78.5t-33.5 -78t-82.5 -32q-48 0 -81 32t-33 78zM204 614q0 -28 18 -47
t45 -19t45 19t18 47q0 27 -18 46t-45 19t-45 -19t-18 -46z" />
    <glyph glyph-name="Uhungarumlaut" unicode="&#x170;" horiz-adv-x="751" 
d="M656 700v-408q0 -151 -77 -226t-194 -75q-131 0 -210.5 79.5t-79.5 228.5v401h85v-385q0 -115 53.5 -179.5t151.5 -64.5q88 0 137 60.5t49 177.5v391h85zM617 836l-179 -101l-33 35l157 117zM422 851l-161 -116l-34 32l128 120z" />
    <glyph glyph-name="uhungarumlaut" unicode="&#x171;" horiz-adv-x="540" 
d="M467 450v-450h-80v64q-26 -31 -67.5 -52.5t-91.5 -21.5q-78 0 -122 48t-44 144v268h80v-250q0 -135 116 -135q37 0 72 19t57 48v318h80zM470 671l-125 -140l-48 34l114 151zM303 680l-113 -149l-48 34l103 158z" />
    <glyph glyph-name="Uogonek" unicode="&#x172;" horiz-adv-x="751" 
d="M656 700v-408q0 -125 -54 -198t-142 -94q-76 -36 -76 -82q0 -28 19 -40.5t41 -12.5q25 0 44 9l24 -49q-30 -25 -86 -25q-50 0 -86 22t-36 70q0 61 80 99q-130 0 -209.5 79.5t-79.5 228.5v401h85v-385q0 -115 53.5 -179.5t151.5 -64.5q88 0 137 60.5t49 177.5v391h85z" />
    <glyph glyph-name="uogonek" unicode="&#x173;" horiz-adv-x="540" 
d="M452 -126l24 -49q-30 -25 -86 -25q-50 0 -86 22t-36 70q0 42 33.5 71.5t85.5 42.5v58q-26 -31 -67.5 -52.5t-91.5 -21.5q-78 0 -122 48t-44 144v268h80v-250q0 -135 116 -135q37 0 72 19t57 48v318h80v-450h-5q-46 -2 -80 -25.5t-34 -56.5q0 -28 19 -40.5t41 -12.5
q25 0 44 9z" />
    <glyph glyph-name="Ydieresis" unicode="&#x178;" horiz-adv-x="604" 
d="M594 700l-251 -400v-300h-85v300l-248 400h98l196 -320l197 320h93zM132 813q0 20 16 32.5t39 12.5q21 0 36.5 -12.5t15.5 -32.5q0 -22 -15.5 -35t-36.5 -13q-24 0 -39.5 13t-15.5 35zM364 813q0 20 16.5 32.5t39.5 12.5q21 0 36 -12t15 -33q0 -22 -15 -35t-36 -13
q-24 0 -40 13t-16 35z" />
    <glyph glyph-name="Zacute" unicode="&#x179;" horiz-adv-x="635" 
d="M60 620v80h525v-57l-430 -563h440v-80h-555v57l428 563h-408zM478 819l-202 -84l-23 48l195 104z" />
    <glyph glyph-name="zacute" unicode="&#x17a;" horiz-adv-x="485" 
d="M60 375v75h380v-56l-282 -319h277v-75h-390v56l281 319h-266zM359 674l-120 -143l-48 34l106 157z" />
    <glyph glyph-name="Zdotaccent" unicode="&#x17b;" horiz-adv-x="635" 
d="M60 620v80h525v-57l-430 -563h440v-80h-555v57l428 563h-408zM260 817q0 23 16.5 37t40.5 14q22 0 38 -14t16 -37q0 -25 -16 -39.5t-38 -14.5q-24 0 -40.5 14.5t-16.5 39.5z" />
    <glyph glyph-name="zdotaccent" unicode="&#x17c;" horiz-adv-x="485" 
d="M60 375v75h380v-56l-282 -319h277v-75h-390v56l281 319h-266zM189 619q0 21 15 34.5t37 13.5q20 0 34.5 -13.5t14.5 -34.5q0 -24 -14.5 -38t-34.5 -14q-22 0 -37 14t-15 38z" />
    <glyph glyph-name="Zcaron" unicode="&#x17d;" horiz-adv-x="635" 
d="M60 620v80h525v-57l-430 -563h440v-80h-555v57l428 563h-408zM320 738l-175 103l33 46l144 -81l143 81l30 -45l-171 -104h-4z" />
    <glyph glyph-name="zcaron" unicode="&#x17e;" horiz-adv-x="485" 
d="M60 375v75h380v-56l-282 -319h277v-75h-390v56l281 319h-266zM245 529l-140 133l39 48l104 -103l104 102l37 -47l-140 -133h-4z" />
    <glyph glyph-name="longs" unicode="&#x17f;" horiz-adv-x="255" 
d="M82 0v523q0 93 41 140t117 47q78 0 120 -40l-28 -61q-31 26 -79 26q-91 0 -91 -121v-514h-80z" />
    <glyph glyph-name="uni018F" unicode="&#x18f;" horiz-adv-x="779" 
d="M48 397h589q-13 109 -87.5 171t-190.5 62q-104 0 -177 -57l-34 64q85 73 230 73q158 0 254.5 -97.5t96.5 -260.5q0 -161 -94.5 -261.5t-252.5 -100.5q-160 0 -253.5 112.5t-80.5 294.5zM381 70q111 0 179.5 67t79.5 180h-504q5 -105 71 -176t174 -71z" />
    <glyph glyph-name="florin" unicode="&#x192;" 
d="M377 514l-12 -64h144v-75h-157l-72 -408q-16 -89 -51 -132t-106 -43q-65 0 -100 29l22 64q29 -18 59 -18q42 0 64.5 27t31.5 81l71 400h-139v75h152l13 73q18 98 57 142.5t112 44.5q79 0 121 -40l-28 -61q-31 26 -79 26q-43 0 -67 -28.5t-36 -92.5z" />
    <glyph glyph-name="uni01DD" unicode="&#x1dd;" horiz-adv-x="520" 
d="M98 338l-25 62q32 29 79.5 44.5t94.5 15.5q108 0 169.5 -63.5t61.5 -171.5q0 -102 -61.5 -168.5t-167.5 -66.5q-91 0 -151.5 57t-60.5 149q0 36 5 59h346q-3 57 -42.5 93.5t-104.5 36.5q-43 0 -82 -13t-61 -34zM253 65q58 0 96.5 35t43.5 90h-273q2 -60 37 -92.5
t96 -32.5z" />
    <glyph glyph-name="Scommaaccent" unicode="&#x218;" horiz-adv-x="549" 
d="M409 179q0 35 -19 61t-49 42.5t-66.5 31.5t-73 32.5t-66.5 39.5t-49 58t-19 83q0 78 57 130.5t154 52.5q60 0 111.5 -20t81.5 -53l-46 -64q-57 57 -142 57q-58 0 -92 -28t-34 -75q0 -35 19 -61t49 -42t66.5 -30.5t73 -31.5t66.5 -38.5t49 -58.5t19 -85
q0 -85 -65.5 -137.5t-162.5 -52.5q-68 0 -132 28.5t-89 76.5l49 58q30 -39 78 -61t95 -22q58 0 97.5 29t39.5 80zM229 -65l75 19q29 -7 29 -49q0 -44 -30 -72t-73 -37l-23 36q46 18 46 62q0 31 -24 41z" />
    <glyph glyph-name="scommaaccent" unicode="&#x219;" horiz-adv-x="430" 
d="M300 122q0 25 -25 40.5t-60.5 26t-71.5 24.5t-61 44t-25 76q0 58 42.5 92.5t110.5 34.5q100 0 155 -53l-38 -61q-49 44 -113 44q-33 0 -52.5 -16.5t-19.5 -39.5q0 -26 25 -42.5t60.5 -27t71.5 -24t61 -42t25 -72.5q0 -67 -50 -101.5t-124 -34.5q-52 0 -100.5 22t-65.5 48
l45 57q20 -23 58.5 -40t71.5 -17q34 0 57 16.5t23 45.5zM170 -65l75 19q29 -7 29 -49q0 -44 -30 -72t-73 -37l-23 36q46 18 46 62q0 31 -24 41z" />
    <glyph glyph-name="Tcommaaccent" unicode="&#x21a;" horiz-adv-x="595" 
d="M10 620v80h575v-80h-245v-620h-85v620h-245zM246 -65l75 19q29 -7 29 -49q0 -44 -30 -72t-73 -37l-23 36q46 18 46 62q0 31 -24 41z" />
    <glyph glyph-name="tcommaaccent" unicode="&#x21b;" horiz-adv-x="353" 
d="M62 171v404h80v-125h165v-75h-165v-196q0 -112 80 -112q38 0 71 25l25 -62q-46 -38 -115 -38q-74 0 -107.5 45t-33.5 134zM133 -65l75 19q29 -7 29 -49q0 -44 -30 -72t-73 -37l-23 36q46 18 46 62q0 31 -24 41z" />
    <glyph glyph-name="uni0237" unicode="&#x237;" horiz-adv-x="266" 
d="M178 450v-483q0 -175 -141 -175q-63 0 -100 29l23 64q29 -18 59 -18q79 0 79 106v477h80z" />
    <glyph glyph-name="uni0259" unicode="&#x259;" horiz-adv-x="520" 
d="M98 338l-25 62q32 29 79.5 44.5t94.5 15.5q108 0 169.5 -63.5t61.5 -171.5q0 -102 -61.5 -168.5t-167.5 -66.5q-91 0 -151.5 57t-60.5 149q0 36 5 59h346q-3 57 -42.5 93.5t-104.5 36.5q-43 0 -82 -13t-61 -34zM253 65q58 0 96.5 35t43.5 90h-273q2 -60 37 -92.5
t96 -32.5z" />
    <glyph glyph-name="afii57929" unicode="&#x2bc;" horiz-adv-x="242" 
d="M86 630l67 40q29 -31 29 -82q0 -101 -85 -149l-37 35q47 33 47 97q0 38 -21 59z" />
    <glyph glyph-name="circumflex" unicode="&#x2c6;" horiz-adv-x="404" 
d="M205 707l139 -133l-38 -48l-104 91l-104 -90l-38 47l141 133h4z" />
    <glyph glyph-name="caron" unicode="&#x2c7;" horiz-adv-x="404" 
d="M200 529l-140 133l39 48l104 -103l104 102l37 -47l-140 -133h-4z" />
    <glyph glyph-name="breve" unicode="&#x2d8;" horiz-adv-x="415" 
d="M60 640l37 41q51 -61 114 -61q65 0 115 60l29 -39q-62 -86 -147 -86q-93 0 -148 85z" />
    <glyph glyph-name="dotaccent" unicode="&#x2d9;" horiz-adv-x="221" 
d="M60 619q0 21 15 34.5t37 13.5q20 0 34.5 -13.5t14.5 -34.5q0 -24 -14.5 -38t-34.5 -14q-22 0 -37 14t-15 38z" />
    <glyph glyph-name="ring" unicode="&#x2da;" horiz-adv-x="350" 
d="M60 613q0 46 33 78.5t81 32.5q49 0 82.5 -32.5t33.5 -78.5t-33.5 -78t-82.5 -32q-48 0 -81 32t-33 78zM112 614q0 -28 18 -47t45 -19t45 19t18 47q0 27 -18 46t-45 19t-45 -19t-18 -46z" />
    <glyph glyph-name="ogonek" unicode="&#x2db;" horiz-adv-x="328" 
d="M244 -126l24 -49q-30 -25 -86 -25q-50 0 -86 22t-36 70q0 58 61.5 91.5t137.5 32.5v-16q-47 0 -83 -24.5t-36 -57.5q0 -28 19 -40.5t41 -12.5q25 0 44 9z" />
    <glyph glyph-name="tilde" unicode="&#x2dc;" horiz-adv-x="442" 
d="M93 557l-33 37q53 60 110 60q24 0 58.5 -22t54.5 -22q29 0 71 35l28 -41q-56 -59 -106 -59q-22 0 -56.5 22t-57.5 22q-27 0 -69 -32z" />
    <glyph glyph-name="hungarumlaut" unicode="&#x2dd;" horiz-adv-x="448" 
d="M388 671l-125 -140l-48 34l114 151zM221 680l-113 -149l-48 34l103 158z" />
    <glyph glyph-name="gravecomb" unicode="&#x300;" horiz-adv-x="0" 
d="M-269 531l-121 142l63 48l107 -156z" />
    <glyph glyph-name="acutecomb" unicode="&#x301;" horiz-adv-x="0" 
d="M-153 674l-120 -143l-48 34l106 157z" />
    <glyph glyph-name="uni0394" unicode="&#x394;" horiz-adv-x="726" 
d="M30 0l303 708h53l310 -708h-666zM357 564l-204 -484h416z" />
    <glyph glyph-name="uni0394" unicode="&#x2206;" horiz-adv-x="726" 
d="M30 0l303 708h53l310 -708h-666zM357 564l-204 -484h416z" />
    <glyph glyph-name="uni03A9" unicode="&#x3a9;" horiz-adv-x="816" 
d="M68 0v80h169q-74 25 -127.5 105t-53.5 185q0 150 101 245t251 95q152 0 252 -94.5t100 -245.5q0 -108 -54 -186.5t-128 -103.5h169v-80h-286v80q94 24 151.5 101t57.5 175q0 115 -73 194.5t-189 79.5q-118 0 -190 -79.5t-72 -195.5q0 -94 57.5 -173.5t150.5 -101.5v-80
h-286z" />
    <glyph glyph-name="uni03A9" unicode="&#x2126;" horiz-adv-x="816" 
d="M68 0v80h169q-74 25 -127.5 105t-53.5 185q0 150 101 245t251 95q152 0 252 -94.5t100 -245.5q0 -108 -54 -186.5t-128 -103.5h169v-80h-286v80q94 24 151.5 101t57.5 175q0 115 -73 194.5t-189 79.5q-118 0 -190 -79.5t-72 -195.5q0 -94 57.5 -173.5t150.5 -101.5v-80
h-286z" />
    <glyph glyph-name="pi" unicode="&#x3c0;" horiz-adv-x="635" 
d="M46 375v75h536v-75h-90v-229q0 -43 9 -61t32 -18q24 0 54 20l18 -61q-43 -34 -103 -34q-90 0 -90 118v265h-192v-61q0 -96 -12 -159.5t-36.5 -98.5t-56.5 -48.5t-79 -13.5l-6 78q50 -2 79 48t30 179l1 76h-94z" />
    <glyph glyph-name="afii10023" unicode="&#x401;" horiz-adv-x="575" 
d="M105 0v700h395v-80h-310v-226h280v-80h-280v-234h320v-80h-405zM139 813q0 20 16 32.5t39 12.5q21 0 36.5 -12.5t15.5 -32.5q0 -22 -15.5 -35t-36.5 -13q-24 0 -39.5 13t-15.5 35zM371 813q0 20 16.5 32.5t39.5 12.5q21 0 36 -12t15 -33q0 -22 -15 -35t-36 -13
q-24 0 -40 13t-16 35z" />
    <glyph glyph-name="afii10051" unicode="&#x402;" horiz-adv-x="762" 
d="M712 204q0 -108 -46.5 -161t-127.5 -53q-33 0 -63.5 12t-41.5 25l29 65q29 -22 66 -22q99 0 99 132q0 141 -140 141q-33 0 -63.5 -9t-44.5 -16.5t-39 -22.5v-295h-85v620h-245v80h575v-80h-245v-247q75 50 163 50q209 0 209 -219z" />
    <glyph glyph-name="afii10052" unicode="&#x403;" horiz-adv-x="505" 
d="M105 0v700h390v-80h-305v-620h-85zM483 819l-202 -84l-23 48l195 104z" />
    <glyph glyph-name="afii10053" unicode="&#x404;" horiz-adv-x="677" 
d="M483 397v-80h-347q11 -116 90 -181.5t194 -65.5q104 0 189 64l33 -71q-91 -73 -229 -73q-164 0 -263.5 98t-99.5 262q0 159 97.5 259.5t253.5 100.5q145 0 230 -73l-39 -64q-73 57 -177 57q-115 0 -189 -63t-88 -170h345z" />
    <glyph glyph-name="afii10054" unicode="&#x405;" horiz-adv-x="549" 
d="M409 179q0 35 -19 61t-49 42.5t-66.5 31.5t-73 32.5t-66.5 39.5t-49 58t-19 83q0 78 57 130.5t154 52.5q60 0 111.5 -20t81.5 -53l-46 -64q-57 57 -142 57q-58 0 -92 -28t-34 -75q0 -35 19 -61t49 -42t66.5 -30.5t73 -31.5t66.5 -38.5t49 -58.5t19 -85
q0 -85 -65.5 -137.5t-162.5 -52.5q-68 0 -132 28.5t-89 76.5l49 58q30 -39 78 -61t95 -22q58 0 97.5 29t39.5 80z" />
    <glyph glyph-name="afii10055" unicode="&#x406;" horiz-adv-x="335" 
d="M125 0v700h85v-700h-85z" />
    <glyph glyph-name="afii10056" unicode="&#x407;" horiz-adv-x="335" 
d="M43 813q0 20 14 32.5t34 12.5q19 0 32.5 -12.5t13.5 -32.5q0 -22 -13.5 -35t-32.5 -13q-20 0 -34 13t-14 35zM199 813q0 20 14 32.5t34 12.5q19 0 32.5 -12.5t13.5 -32.5q0 -22 -13.5 -35t-32.5 -13q-20 0 -34 13t-14 35zM125 0v700h85v-700h-85z" />
    <glyph glyph-name="afii10057" unicode="&#x408;" horiz-adv-x="374" 
d="M269 700v-541q0 -169 -153 -169q-69 0 -106 37l29 65q29 -22 66 -22q79 0 79 103v527h85z" />
    <glyph glyph-name="afii10058" unicode="&#x409;" horiz-adv-x="1023" 
d="M536 0v620h-254l-12 -132q-12 -130 -31 -222.5t-41 -145.5t-51.5 -82t-57.5 -36t-64 -2l1 85q19 -2 34 3t36.5 31.5t38 74.5t32.5 142t25 224l10 140h419v-260q63 5 93 5q129 0 194 -57t65 -159q0 -110 -73.5 -170.5t-204.5 -60.5q-32 0 -86.5 1t-72.5 1zM708 365
q-34 0 -87 -6v-278q81 -3 84 -3q178 0 178 149q0 67 -45 102.5t-130 35.5z" />
    <glyph glyph-name="afii10059" unicode="&#x40a;" horiz-adv-x="1052" 
d="M105 0v700h85v-279h375v279h85v-275q63 5 93 5q129 0 194 -55.5t65 -153.5q0 -105 -73.5 -164t-204.5 -59q-25 0 -70 1t-63 1h-26v341h-375v-341h-85zM650 344v-263q81 -3 84 -3q87 0 132.5 36t45.5 106q0 62 -45 96t-130 34q-35 0 -87 -6z" />
    <glyph glyph-name="afii10060" unicode="&#x40b;" horiz-adv-x="762" 
d="M10 620v80h575v-80h-245v-247q70 50 168 50q90 0 147 -54.5t57 -169.5v-199h-85v177q0 166 -142 166q-72 0 -145 -48v-295h-85v620h-245z" />
    <glyph glyph-name="afii10061" unicode="&#x40c;" horiz-adv-x="653" 
d="M617 700l-312 -329l328 -371h-109l-317 365l307 335h103zM105 0v700h85v-700h-85zM513 819l-202 -84l-23 48l195 104z" />
    <glyph glyph-name="afii10062" unicode="&#x40e;" horiz-adv-x="666" 
d="M651 700l-242 -540q-37 -83 -77.5 -121.5t-96.5 -38.5q-53 0 -85 25l30 72q26 -18 54 -18q52 0 86 71l12 26l-317 524h96l262 -439l192 439h86zM159 860h80q24 -65 107 -65q88 0 103 65h80q-7 -56 -58.5 -90.5t-124.5 -34.5q-77 0 -127.5 34.5t-59.5 90.5z" />
    <glyph glyph-name="afii10145" unicode="&#x40f;" horiz-adv-x="750" 
d="M105 0v700h85v-620h370v620h85v-700h-231v-155h-80v155h-229z" />
    <glyph glyph-name="afii10017" unicode="&#x410;" horiz-adv-x="705" 
d="M15 0l301 704h73l301 -704h-91l-90 212h-319l-89 -212h-86zM350 591l-126 -299h252z" />
    <glyph glyph-name="afii10018" unicode="&#x411;" horiz-adv-x="612" 
d="M105 0v700h396v-80h-311v-201q53 6 107 6q116 0 180.5 -55t64.5 -151q0 -108 -71 -165.5t-198 -57.5q-39 0 -95 2t-73 2zM292 345q-47 0 -102 -6v-259q62 -4 96 -4q85 0 128 36t43 101q0 61 -42 96.5t-123 35.5z" />
    <glyph glyph-name="afii10019" unicode="&#x412;" horiz-adv-x="617" 
d="M105 1v698q156 4 192 4q118 0 171.5 -47t53.5 -126q0 -63 -33 -103.5t-87 -58.5v-2q67 -11 106 -53.5t39 -112.5q0 -102 -69.5 -152.5t-184.5 -50.5q-106 0 -188 4zM303 319h-113v-238q46 -4 108 -4q79 0 121.5 32.5t42.5 95.5q0 55 -41.5 84.5t-117.5 29.5zM295 623
q-30 0 -105 -3v-226h112q58 0 96.5 31t38.5 86q0 112 -142 112z" />
    <glyph glyph-name="afii10020" unicode="&#x413;" horiz-adv-x="505" 
d="M105 0v700h390v-80h-305v-620h-85z" />
    <glyph glyph-name="afii10021" unicode="&#x414;" horiz-adv-x="749" 
d="M15 -130v210h75q32 40 68.5 163.5t46.5 316.5l7 140h412v-620h95v-210h-80v130h-544v-130h-80zM285 495q-11 -160 -43 -271.5t-58 -143.5h355v540h-245z" />
    <glyph glyph-name="afii10022" unicode="&#x415;" horiz-adv-x="575" 
d="M105 0v700h395v-80h-310v-226h280v-80h-280v-234h320v-80h-405z" />
    <glyph glyph-name="afii10024" unicode="&#x416;" horiz-adv-x="934" 
d="M903 700l-283 -334l294 -366h-99l-288 365l277 335h99zM424 0v700h85v-700h-85zM314 365l-283 335h99l277 -335l-288 -365h-99z" />
    <glyph glyph-name="afii10025" unicode="&#x417;" horiz-adv-x="578" 
d="M269 -10q-76 0 -137.5 32t-91.5 78l47 57q33 -39 83 -63t94 -24q71 0 115 35.5t44 98.5q0 52 -36 83t-101 31h-81v80h75q46 0 81 33.5t35 84.5q0 55 -35.5 84.5t-91.5 29.5q-93 0 -159 -78l-50 56q36 47 93.5 74.5t124.5 27.5q92 0 147.5 -49t55.5 -137q0 -47 -26 -91
t-75 -69v-3q62 -12 95 -57t33 -108q0 -94 -69.5 -150t-169.5 -56z" />
    <glyph glyph-name="afii10026" unicode="&#x418;" horiz-adv-x="795" 
d="M180 0h-75v700h85v-560l425 560h75v-700h-85v560z" />
    <glyph glyph-name="afii10027" unicode="&#x419;" horiz-adv-x="795" 
d="M180 0h-75v700h85v-560l425 560h75v-700h-85v560zM217 860h80q24 -65 107 -65q88 0 103 65h80q-7 -56 -58.5 -90.5t-124.5 -34.5q-77 0 -127.5 34.5t-59.5 90.5z" />
    <glyph glyph-name="afii10028" unicode="&#x41a;" horiz-adv-x="653" 
d="M617 700l-312 -329l328 -371h-109l-317 365l307 335h103zM105 0v700h85v-700h-85z" />
    <glyph glyph-name="afii10029" unicode="&#x41b;" horiz-adv-x="726" 
d="M536 0v620h-254l-12 -132q-12 -130 -31 -222.5t-41 -145.5t-51.5 -82t-57.5 -36t-64 -2l1 85q19 -2 34 3t36.5 31.5t38 74.5t32.5 142t25 224l10 140h419v-700h-85z" />
    <glyph glyph-name="afii10030" unicode="&#x41c;" horiz-adv-x="892" 
d="M105 0v700h86l263 -359l252 359h81v-700h-85v566l-248 -348h-13l-251 345v-563h-85z" />
    <glyph glyph-name="afii10031" unicode="&#x41d;" horiz-adv-x="765" 
d="M575 0v317h-385v-317h-85v700h85v-303h385v303h85v-700h-85z" />
    <glyph glyph-name="afii10032" unicode="&#x41e;" horiz-adv-x="814" 
d="M50 350q0 153 101 256.5t256 103.5q154 0 255.5 -101t101.5 -259q0 -155 -102 -257.5t-255 -102.5q-154 0 -255.5 101t-101.5 259zM140 350q0 -119 77 -199.5t190 -80.5q118 0 192.5 80t74.5 200q0 121 -77 200.5t-190 79.5q-115 0 -191 -79t-76 -201z" />
    <glyph glyph-name="afii10033" unicode="&#x41f;" horiz-adv-x="760" 
d="M570 0v620h-380v-620h-85v700h550v-700h-85z" />
    <glyph glyph-name="afii10034" unicode="&#x420;" horiz-adv-x="597" 
d="M190 0h-85v700q19 0 89.5 1t93.5 1q138 0 198.5 -61.5t60.5 -155.5q0 -92 -65.5 -156t-186.5 -64q-58 0 -105 4v-269zM296 622q-40 0 -106 -2v-270q57 -5 102 -5q77 0 121 37.5t44 103.5q0 64 -40 100t-121 36z" />
    <glyph glyph-name="afii10035" unicode="&#x421;" horiz-adv-x="656" 
d="M592 132l34 -64q-35 -36 -95 -57t-126 -21q-158 0 -256.5 98.5t-98.5 261.5q0 155 94.5 257.5t254.5 102.5q134 0 213 -68l-39 -64q-70 52 -173 52q-114 0 -187 -78t-73 -202q0 -125 75.5 -202.5t197.5 -77.5q103 0 179 62z" />
    <glyph glyph-name="afii10036" unicode="&#x422;" horiz-adv-x="595" 
d="M10 620v80h575v-80h-245v-620h-85v620h-245z" />
    <glyph glyph-name="afii10037" unicode="&#x423;" horiz-adv-x="666" 
d="M651 700l-242 -540q-37 -83 -77.5 -121.5t-96.5 -38.5q-53 0 -85 25l30 72q26 -18 54 -18q52 0 86 71l12 26l-317 524h96l262 -439l192 439h86z" />
    <glyph glyph-name="afii10038" unicode="&#x424;" horiz-adv-x="834" 
d="M373 -8v92h-1q-151 0 -241.5 73t-90.5 203t90 202.5t243 73.5v72h85v-72q154 -1 245 -74t91 -202q0 -130 -91.5 -203t-241.5 -73h-3v-92h-85zM459 557h-1v-395h2q115 0 179.5 50.5t64.5 147.5q0 93 -64.5 145t-180.5 52zM130 360q0 -96 65 -147t177 -51h1v395
q-114 0 -178.5 -52.5t-64.5 -144.5z" />
    <glyph glyph-name="afii10039" unicode="&#x425;" horiz-adv-x="664" 
d="M635 700l-248 -344l257 -356h-101l-212 291l-211 -291h-100l257 356l-246 344h100l203 -280l200 280h101z" />
    <glyph glyph-name="afii10040" unicode="&#x426;" horiz-adv-x="775" 
d="M105 0v700h85v-620h375v620h85v-620h95v-210h-80v130h-560z" />
    <glyph glyph-name="afii10041" unicode="&#x427;" horiz-adv-x="650" 
d="M545 700v-700h-85v306q-75 -54 -185 -54q-92 0 -151 54t-59 169v225h85v-202q0 -86 39.5 -126t107.5 -40q85 0 163 53v315h85z" />
    <glyph glyph-name="afii10042" unicode="&#x428;" horiz-adv-x="995" 
d="M105 0v700h85v-620h265v620h85v-620h265v620h85v-700h-785z" />
    <glyph glyph-name="afii10043" unicode="&#x429;" horiz-adv-x="1015" 
d="M105 0v700h85v-620h265v620h85v-620h265v620h85v-620h95v-210h-80v130h-800z" />
    <glyph glyph-name="afii10044" unicode="&#x42a;" horiz-adv-x="669" 
d="M5 620v80h252v-260q63 5 98 5q132 0 198 -57t66 -159q0 -110 -74.5 -170.5t-208.5 -60.5q-32 0 -89 1t-75 1v620h-167zM349 365q-40 0 -92 -6v-278q81 -3 89 -3q88 0 135.5 37.5t47.5 111.5q0 67 -47 102.5t-133 35.5z" />
    <glyph glyph-name="afii10045" unicode="&#x42b;" horiz-adv-x="845" 
d="M655 0v700h85v-700h-85zM277 365q-35 0 -87 -6v-278q81 -3 84 -3q178 0 178 149q0 67 -45 102.5t-130 35.5zM190 700v-260q63 5 93 5q129 0 194 -57t65 -159q0 -110 -73.5 -170.5t-204.5 -60.5q-32 0 -86.5 1t-72.5 1v700h85z" />
    <glyph glyph-name="afii10046" unicode="&#x42c;" horiz-adv-x="602" 
d="M282 365q-39 0 -92 -6v-278q81 -3 89 -3q88 0 135.5 37.5t47.5 111.5q0 67 -47 102.5t-133 35.5zM190 700v-260q63 5 98 5q132 0 198 -57t66 -159q0 -110 -74.5 -170.5t-208.5 -60.5q-32 0 -89 1t-75 1v700h85z" />
    <glyph glyph-name="afii10047" unicode="&#x42d;" horiz-adv-x="677" 
d="M193 317v80h346q-13 109 -89 171t-194 62q-103 0 -177 -57l-33 64q83 73 230 73q157 0 254 -98t97 -260q0 -161 -98 -261.5t-261 -100.5q-142 0 -233 73l37 71q85 -64 194 -64q112 0 187.5 66.5t86.5 180.5h-347z" />
    <glyph glyph-name="afii10048" unicode="&#x42e;" horiz-adv-x="1078" 
d="M105 0v700h85v-303h151q15 137 108.5 225t231.5 88q153 0 250 -100.5t97 -259.5q0 -156 -97.5 -258t-249.5 -102q-138 0 -234.5 91t-106.5 236h-150v-317h-85zM429 350q0 -119 72.5 -199.5t181.5 -80.5q118 0 186.5 79t68.5 201q0 123 -71 201.5t-184 78.5
q-110 0 -182 -79t-72 -201z" />
    <glyph glyph-name="afii10049" unicode="&#x42f;" horiz-adv-x="623" 
d="M433 0v260h-131l-181 -260h-96l194 275q-59 24 -98.5 75t-39.5 121q0 101 69 166.5t204 65.5q24 0 84 -1.5t80 -1.5v-700h-85zM292 340h141v280q-69 3 -95 3q-79 0 -123 -41t-44 -106q0 -53 36 -90.5t85 -45.5z" />
    <glyph glyph-name="afii10065" unicode="&#x430;" horiz-adv-x="460" 
d="M96 355l-21 64q66 41 150 41q93 0 133 -46t40 -138v-276h-76v58q-52 -65 -144 -65q-62 0 -100 37.5t-38 101.5q0 67 47.5 105t122.5 38q72 0 112 -29q0 72 -20 107t-82 35q-61 0 -124 -33zM206 65q67 0 116 58v57q-42 30 -101 30q-40 0 -68 -19t-28 -55q0 -33 21.5 -52
t59.5 -19z" />
    <glyph glyph-name="afii10066" unicode="&#x431;" horiz-adv-x="552" 
d="M420 710l43 -63q-24 -33 -58 -45t-84 -20t-87 -25q-102 -46 -114 -217h2q22 47 71.5 76t106.5 29q96 0 152.5 -61t56.5 -163q0 -96 -65 -163.5t-166 -67.5q-110 0 -174 75t-64 205q0 293 167 363q41 18 88 25.5t76 16.5t49 35zM125 255q0 -86 42 -138t109 -52
q65 0 106.5 44t41.5 108q0 68 -38 110.5t-106 42.5q-60 0 -102 -34t-53 -81z" />
    <glyph glyph-name="afii10067" unicode="&#x432;" horiz-adv-x="494" 
d="M72 0v450q16 0 71.5 2t91.5 2q194 0 194 -116q0 -40 -25 -68.5t-65 -34.5v-2q105 -19 105 -106q0 -131 -207 -131q-30 0 -88 2t-77 2zM248 202h-96v-138q72 -3 92 -3q115 0 115 72q0 69 -111 69zM241 389q-29 0 -89 -3v-134h101q41 0 66 19t25 51q0 67 -103 67z" />
    <glyph glyph-name="afii10068" unicode="&#x433;" horiz-adv-x="362" 
d="M72 0v450h285v-75h-205v-375h-80z" />
    <glyph glyph-name="afii10069" unicode="&#x434;" horiz-adv-x="539" 
d="M10 -110v185h56q24 30 43.5 99t25.5 157l7 119h307v-375h75v-185h-75v110h-364v-110h-75zM212 300q-7 -79 -25 -140t-36 -85h218v300h-152z" />
    <glyph glyph-name="afii10070" unicode="&#x435;" horiz-adv-x="520" 
d="M427 112l25 -63q-65 -59 -169 -59q-109 0 -175 64t-66 171q0 102 62 168.5t170 66.5q89 0 149 -57.5t60 -148.5q0 -31 -5 -54h-346q5 -63 47.5 -99t109.5 -36q88 0 138 47zM270 385q-60 0 -98 -33.5t-45 -86.5h273q-3 56 -37.5 88t-92.5 32z" />
    <glyph glyph-name="afii10072" unicode="&#x436;" horiz-adv-x="679" 
d="M652 450l-163 -217l175 -233h-99l-167 233l155 217h99zM298 0v450h80v-450h-80zM187 233l-163 217h100l154 -217l-165 -233h-98z" />
    <glyph glyph-name="afii10073" unicode="&#x437;" horiz-adv-x="462" 
d="M221 -10q-52 0 -108 17.5t-78 43.5l41 60q27 -22 64.5 -35.5t68.5 -13.5q52 0 85 20.5t33 53.5q0 28 -23.5 43t-64.5 15h-76v65h71q34 0 56 18.5t22 45.5q0 30 -26 47.5t-70 17.5q-72 0 -135 -50l-31 62q27 28 75.5 44t102.5 16q81 0 125 -32.5t44 -88.5q0 -78 -79 -106
v-2q45 -5 69.5 -35t24.5 -71q0 -62 -53 -98.5t-138 -36.5z" />
    <glyph glyph-name="afii10074" unicode="&#x438;" horiz-adv-x="565" 
d="M152 0h-80v450h80v-335l260 335h80v-450h-80v335z" />
    <glyph glyph-name="afii10075" unicode="&#x439;" horiz-adv-x="565" 
d="M152 0h-80v450h80v-335l260 335h80v-450h-80v335zM136 680h75q6 -79 77 -79q67 0 73 79h75q0 -60 -41 -100t-107 -40q-72 0 -112 39t-40 101z" />
    <glyph glyph-name="afii10076" unicode="&#x43a;" horiz-adv-x="498" 
d="M466 450l-197 -215l216 -235h-111l-203 230l190 220h105zM72 0v450h80v-450h-80z" />
    <glyph glyph-name="afii10077" unicode="&#x43b;" horiz-adv-x="532" 
d="M380 0v370h-158l-5 -76q-6 -75 -18 -129.5t-27.5 -87t-37.5 -51.5t-45 -25.5t-53 -6.5l-6 78q12 -1 23.5 3.5t26 19.5t26 40t21 70.5t12.5 104.5l8 140h313v-450h-80z" />
    <glyph glyph-name="afii10078" unicode="&#x43c;" horiz-adv-x="626" 
d="M72 0v450h73l173 -223l164 223h71v-450h-80v328l-156 -209h-3l-162 209v-328h-80z" />
    <glyph glyph-name="afii10079" unicode="&#x43d;" horiz-adv-x="555" 
d="M402 0v190h-250v-190h-80v450h80v-185h250v185h80v-450h-80z" />
    <glyph glyph-name="afii10080" unicode="&#x43e;" horiz-adv-x="565" 
d="M42 225q0 102 66.5 168.5t173.5 66.5t173.5 -66.5t66.5 -168.5t-66.5 -168.5t-173.5 -66.5t-173.5 66.5t-66.5 168.5zM127 225q0 -70 43.5 -115t111.5 -45t111.5 44.5t43.5 115.5q0 70 -43.5 115t-111.5 45q-67 0 -111 -44.5t-44 -115.5z" />
    <glyph glyph-name="afii10081" unicode="&#x43f;" horiz-adv-x="550" 
d="M397 0v375h-245v-375h-80v450h405v-450h-80z" />
    <glyph glyph-name="afii10082" unicode="&#x440;" horiz-adv-x="556" 
d="M72 -200v650h80v-53q24 28 65.5 45.5t87.5 17.5q95 0 151.5 -63.5t56.5 -164.5q0 -104 -65 -173t-169 -69q-80 0 -127 31v-221h-80zM282 385q-80 0 -130 -62v-223q52 -35 120 -35q71 0 113.5 46t42.5 118q0 70 -39 113t-107 43z" />
    <glyph glyph-name="afii10083" unicode="&#x441;" horiz-adv-x="488" 
d="M418 123l38 -58q-28 -36 -74 -55.5t-99 -19.5q-108 0 -174.5 64.5t-66.5 170.5q0 99 65 167t163 68q118 0 177 -59l-37 -63q-51 47 -129 47q-63 0 -108.5 -45.5t-45.5 -114.5q0 -72 46.5 -116t115.5 -44q78 0 129 58z" />
    <glyph glyph-name="afii10084" unicode="&#x442;" horiz-adv-x="440" 
d="M15 370v80h410v-80h-165v-370h-80v370h-165z" />
    <glyph glyph-name="afii10085" unicode="&#x443;" horiz-adv-x="491" 
d="M481 450l-180 -450q-48 -117 -85 -158.5t-87 -41.5q-43 0 -85 28l26 61q32 -15 50 -15q28 0 50.5 24t45.5 78l10 24l-216 450h96l132 -286q4 -9 27 -68q9 33 21 69l104 285h91z" />
    <glyph glyph-name="afii10086" unicode="&#x444;" horiz-adv-x="675" 
d="M297 -200v190h-11q-113 0 -178.5 66t-65.5 169q0 97 66 166t177 69h12v240h80v-240h13q110 0 176 -67t66 -168q0 -104 -63.5 -169.5t-178.5 -65.5h-13v-190h-80zM127 225q0 -72 43 -116t119 -44h8v320h-13q-74 0 -115.5 -45.5t-41.5 -114.5zM390 385h-13v-320h9
q77 0 119 44t42 116q0 66 -42 113t-115 47z" />
    <glyph glyph-name="afii10087" unicode="&#x445;" horiz-adv-x="507" 
d="M472 450l-161 -217l171 -233h-98l-132 182l-134 -182h-93l170 229l-160 221h98l122 -170l124 170h93z" />
    <glyph glyph-name="afii10088" unicode="&#x446;" horiz-adv-x="562" 
d="M72 0v450h80v-375h240v375h80v-375h75v-185h-75v110h-400z" />
    <glyph glyph-name="afii10089" unicode="&#x447;" horiz-adv-x="482" 
d="M410 450v-450h-80v175q-52 -33 -125 -33q-160 0 -160 172v136h85v-127q0 -106 97 -106q63 0 103 28v205h80z" />
    <glyph glyph-name="afii10090" unicode="&#x448;" horiz-adv-x="715" 
d="M72 0v450h80v-375h165v375h80v-375h165v375h80v-450h-570z" />
    <glyph glyph-name="afii10091" unicode="&#x449;" horiz-adv-x="732" 
d="M72 0v450h80v-375h165v375h80v-375h165v375h80v-375h75v-185h-75v110h-570z" />
    <glyph glyph-name="afii10092" unicode="&#x44a;" horiz-adv-x="509" 
d="M5 375v75h209v-135h82q96 0 137 -43.5t41 -111.5t-45 -114t-143 -46h-152v375h-129zM281 240h-67v-165h66q109 0 109 82q0 83 -108 83z" />
    <glyph glyph-name="afii10093" unicode="&#x44b;" horiz-adv-x="642" 
d="M72 0v450h80v-135h74q96 0 137 -43.5t41 -111.5t-44.5 -114t-142.5 -46h-145zM490 0v450h80v-450h-80zM211 240h-59v-165h58q58 0 83.5 20.5t25.5 61.5q0 83 -108 83z" />
    <glyph glyph-name="afii10094" unicode="&#x44c;" horiz-adv-x="447" 
d="M72 0v450h80v-135h82q96 0 137 -43.5t41 -111.5t-45 -114t-143 -46h-152zM219 240h-67v-165h66q109 0 109 82q0 83 -108 83z" />
    <glyph glyph-name="afii10095" unicode="&#x44d;" horiz-adv-x="489" 
d="M142 196v65h221q-9 61 -51 92.5t-105 31.5q-83 0 -138 -49l-34 60q30 30 78 47t93 17q107 0 173.5 -64t66.5 -171q0 -99 -65 -167t-163 -68q-123 0 -181 57l38 59q45 -41 138 -41q63 0 103 34.5t48 96.5h-222z" />
    <glyph glyph-name="afii10096" unicode="&#x44e;" horiz-adv-x="760" 
d="M72 0v450h85v-180h98q14 85 75 137.5t152 52.5q105 0 170 -66.5t65 -168.5t-65.5 -168.5t-169.5 -66.5q-94 0 -155.5 55.5t-72.5 144.5h-97v-190h-85zM342 225q0 -70 40 -112.5t103 -42.5t102.5 42.5t39.5 112.5q0 69 -39 112t-103 43q-63 0 -103 -43t-40 -112z" />
    <glyph glyph-name="afii10097" unicode="&#x44f;" horiz-adv-x="482" 
d="M269 450h140v-450h-80v150h-87l-110 -150h-97l130 170q-39 9 -68 43.5t-29 86.5q0 65 48 107.5t153 42.5zM153 298q0 -33 26 -53t58 -20h92v150h-73q-53 0 -78 -21.5t-25 -55.5z" />
    <glyph glyph-name="afii10071" unicode="&#x451;" horiz-adv-x="520" 
d="M427 112l25 -63q-65 -59 -169 -59q-109 0 -175 64t-66 171q0 102 62 168.5t170 66.5q89 0 149 -57.5t60 -148.5q0 -31 -5 -54h-346q5 -63 47.5 -99t109.5 -36q88 0 138 47zM270 385q-60 0 -98 -33.5t-45 -86.5h273q-3 56 -37.5 88t-92.5 32zM121 610q0 21 13.5 33.5
t33.5 12.5q17 0 30.5 -13t13.5 -33q0 -23 -13 -36.5t-31 -13.5q-20 0 -33.5 13.5t-13.5 36.5zM324 610q0 20 14 33t34 13q17 0 30.5 -13t13.5 -33q0 -23 -13 -36.5t-31 -13.5q-20 0 -34 13.5t-14 36.5z" />
    <glyph glyph-name="afii10099" unicode="&#x452;" horiz-adv-x="596" 
d="M5 460v65h130v175h80v-175h180v-65h-180v-152q26 26 65.5 43t81.5 17q187 0 187 -197q0 -121 -46 -220.5t-127 -150.5h-87q90 64 134.5 157.5t44.5 193.5q0 142 -126 142q-37 0 -71 -16t-56 -41v-236h-80v460h-130z" />
    <glyph glyph-name="afii10100" unicode="&#x453;" horiz-adv-x="362" 
d="M72 0v450h285v-75h-205v-375h-80zM344 674l-120 -143l-48 34l106 157z" />
    <glyph glyph-name="afii10101" unicode="&#x454;" horiz-adv-x="489" 
d="M346 261v-65h-222q9 -64 54 -97.5t109 -33.5q87 0 132 41l33 -59q-60 -57 -176 -57q-103 0 -168.5 66.5t-65.5 168.5q0 107 66.5 171t174.5 64q45 0 92.5 -17t77.5 -47l-33 -60q-55 49 -139 49q-62 0 -104.5 -32t-52.5 -92h222z" />
    <glyph glyph-name="afii10102" unicode="&#x455;" horiz-adv-x="430" 
d="M300 122q0 25 -25 40.5t-60.5 26t-71.5 24.5t-61 44t-25 76q0 58 42.5 92.5t110.5 34.5q100 0 155 -53l-38 -61q-49 44 -113 44q-33 0 -52.5 -16.5t-19.5 -39.5q0 -26 25 -42.5t60.5 -27t71.5 -24t61 -42t25 -72.5q0 -67 -50 -101.5t-124 -34.5q-52 0 -100.5 22t-65.5 48
l45 57q20 -23 58.5 -40t71.5 -17q34 0 57 16.5t23 45.5z" />
    <glyph glyph-name="afii10103" unicode="&#x456;" horiz-adv-x="268" 
d="M94 0v450h80v-450h-80zM84 619q0 21 15 34.5t37 13.5q20 0 34.5 -13.5t14.5 -34.5q0 -24 -14.5 -38t-34.5 -14q-22 0 -37 14t-15 38z" />
    <glyph glyph-name="afii10104" unicode="&#x457;" horiz-adv-x="293" 
d="M35 608q0 18 13 30t31 12q16 0 28 -12t12 -30q0 -19 -12 -31.5t-28 -12.5q-19 0 -31.5 12t-12.5 32zM175 608q0 18 12.5 30t30.5 12q16 0 28 -12t12 -30q0 -20 -12 -32t-28 -12q-18 0 -30.5 12t-12.5 32zM106 0v450h80v-450h-80z" />
    <glyph glyph-name="afii10105" unicode="&#x458;" horiz-adv-x="273" 
d="M178 450v-483q0 -175 -141 -175q-63 0 -100 29l23 64q29 -18 59 -18q79 0 79 106v477h80zM87 619q0 21 15 34.5t37 13.5q20 0 34.5 -13.5t14.5 -34.5q0 -24 -14.5 -38t-34.5 -14q-22 0 -37 14t-15 38z" />
    <glyph glyph-name="afii10106" unicode="&#x459;" horiz-adv-x="742" 
d="M380 0v370h-158l-5 -76q-6 -75 -18 -129.5t-27.5 -87t-37.5 -51.5t-45 -25.5t-53 -6.5l-6 78q12 -1 23.5 3.5t26 19.5t26 40t21 70.5t12.5 104.5l8 140h313v-135h69q96 0 137 -43.5t41 -111.5t-45 -114t-143 -46h-139zM514 240h-54v-165h53q109 0 109 82q0 83 -108 83z
" />
    <glyph glyph-name="afii10107" unicode="&#x45a;" horiz-adv-x="764" 
d="M72 0v450h80v-175h250v175h80v-145h69q178 0 178 -150q0 -67 -44.5 -111t-142.5 -44h-140v200h-250v-200h-80zM536 230h-54v-155h53q59 0 84 18.5t25 58.5q0 41 -25.5 59.5t-82.5 18.5z" />
    <glyph glyph-name="afii10108" unicode="&#x45b;" horiz-adv-x="596" 
d="M5 460v65h130v175h80v-175h180v-65h-180v-152q26 26 65.5 43t81.5 17q187 0 187 -200v-168h-80v157q0 136 -127 136q-37 0 -71 -16t-56 -41v-236h-80v460h-130z" />
    <glyph glyph-name="afii10109" unicode="&#x45c;" horiz-adv-x="498" 
d="M466 450l-197 -215l216 -235h-111l-203 230l190 220h105zM72 0v450h80v-450h-80zM365 674l-120 -143l-48 34l106 157z" />
    <glyph glyph-name="afii10110" unicode="&#x45e;" horiz-adv-x="491" 
d="M481 450l-180 -450q-48 -117 -85 -158.5t-87 -41.5q-43 0 -85 28l26 61q32 -15 50 -15q28 0 50.5 24t45.5 78l10 24l-216 450h96l132 -286q4 -9 27 -68q9 33 21 69l104 285h91zM101 680h75q6 -79 77 -79q67 0 73 79h75q0 -60 -41 -100t-107 -40q-72 0 -112 39t-40 101z
" />
    <glyph glyph-name="afii10193" unicode="&#x45f;" horiz-adv-x="540" 
d="M72 0v450h80v-375h235v375h80v-450h-160v-125h-75v125h-160z" />
    <glyph glyph-name="afii10146" unicode="&#x462;" horiz-adv-x="639" 
d="M227 700v-100h157v-80h-157v-100q63 5 98 5q264 0 264 -206q0 -109 -73.5 -165t-209.5 -56q-32 0 -89 1t-75 1v520h-132v80h132v100h85zM319 345q-39 0 -92 -6v-258q81 -3 89 -3q183 0 183 139q0 128 -180 128z" />
    <glyph glyph-name="afii10194" unicode="&#x463;" horiz-adv-x="506" 
d="M5 375v75h129v250h80v-250h150v-75h-150v-90h79q178 0 178 -146q0 -139 -187 -139h-150v375h-129zM292 210h-78v-135h78q51 0 72.5 17t21.5 51q0 67 -94 67z" />
    <glyph glyph-name="afii10147" unicode="&#x472;" horiz-adv-x="814" 
d="M50 350q0 153 101 256.5t256 103.5q154 0 255.5 -101t101.5 -259q0 -155 -102 -257.5t-255 -102.5q-154 0 -255.5 101t-101.5 259zM287 357q-73 0 -142 -62q17 -99 90 -162t172 -63q111 0 184 71t81 182q-70 -47 -137 -47q-53 0 -127 40.5t-121 40.5zM541 351q32 0 68 16
t60 37q-17 100 -90 163t-172 63q-107 0 -181.5 -70t-84.5 -181q76 53 147 53q54 0 129 -40.5t124 -40.5z" />
    <glyph glyph-name="afii10195" unicode="&#x473;" horiz-adv-x="575" 
d="M42 225q0 103 67.5 169t177.5 66t177.5 -66t67.5 -169t-67.5 -169t-177.5 -66t-177.5 66t-67.5 169zM203 227q-43 0 -79 -37q10 -63 55.5 -99t107.5 -36q65 0 111 38.5t53 107.5q-40 -33 -82 -33q-35 0 -87 29.5t-79 29.5zM379 223q40 0 71 32q-9 66 -54.5 103t-108.5 37
q-64 0 -110.5 -39.5t-53.5 -108.5q42 35 84 35q36 0 91.5 -29.5t80.5 -29.5z" />
    <glyph glyph-name="afii10148" unicode="&#x474;" horiz-adv-x="659" 
d="M547 504l-184 -508h-63l-295 704h91l238 -575l148 427q36 105 77 136t120 10l-13 -75q-44 16 -66.5 -10t-52.5 -109z" />
    <glyph glyph-name="afii10196" unicode="&#x475;" horiz-adv-x="485" 
d="M393 288l-116 -292h-58l-214 454h94l114 -243q17 -38 37 -98q15 48 33 100l49 128q32 83 67 107t106 3l-13 -74q-34 16 -53.5 -4.5t-45.5 -80.5z" />
    <glyph glyph-name="afii10050" unicode="&#x490;" horiz-adv-x="505" 
d="M105 0v700h310v125h80v-205h-305v-620h-85z" />
    <glyph glyph-name="afii10098" unicode="&#x491;" horiz-adv-x="362" 
d="M72 0v450h210v105h75v-180h-205v-375h-80z" />
    <glyph glyph-name="uni1E9E" unicode="&#x1e9e;" horiz-adv-x="644" 
d="M499 173q0 25 -13 50.5t-29.5 45.5t-50 46.5t-56 42t-65.5 43.5l135 191q-36 38 -102 38q-58 0 -93 -35t-35 -107v-490h-85v488q0 113 59 168.5t158 55.5q119 0 202 -98l-137 -185q202 -125 202 -266q0 -75 -52.5 -123t-118.5 -48q-93 0 -161 62l38 66q20 -17 31 -25
t31 -15.5t42 -7.5q40 0 70 28t30 75z" />
    <glyph glyph-name="uni2010" unicode="&#x2010;" horiz-adv-x="389" 
d="M75 235v75h239v-75h-239z" />
    <glyph glyph-name="uni2011" unicode="&#x2011;" horiz-adv-x="389" 
d="M75 235v75h239v-75h-239z" />
    <glyph glyph-name="figuredash" unicode="&#x2012;" horiz-adv-x="594" 
d="M90 319v70h414v-70h-414z" />
    <glyph glyph-name="endash" unicode="&#x2013;" horiz-adv-x="594" 
d="M90 235v70h414v-70h-414z" />
    <glyph glyph-name="emdash" unicode="&#x2014;" horiz-adv-x="804" 
d="M90 235v70h624v-70h-624z" />
    <glyph glyph-name="afii00208" unicode="&#x2015;" horiz-adv-x="804" 
d="M90 235v70h624v-70h-624z" />
    <glyph glyph-name="quoteleft" unicode="&#x2018;" horiz-adv-x="239" 
d="M161 552l-67 -41q-29 32 -29 82q0 102 85 150l37 -36q-47 -32 -47 -96q0 -38 21 -59z" />
    <glyph glyph-name="quoteright" unicode="&#x2019;" horiz-adv-x="239" 
d="M78 700l67 40q29 -31 29 -82q0 -101 -85 -149l-37 35q47 33 47 97q0 38 -21 59z" />
    <glyph glyph-name="quotesinglbase" unicode="&#x201a;" horiz-adv-x="239" 
d="M78 35l67 40q29 -31 29 -82q0 -101 -85 -149l-37 35q47 33 47 97q0 38 -21 59z" />
    <glyph glyph-name="quotedblleft" unicode="&#x201c;" horiz-adv-x="384" 
d="M306 552l-67 -41q-29 32 -29 82q0 102 85 150l37 -36q-47 -32 -47 -96q0 -38 21 -59zM161 552l-67 -41q-29 32 -29 82q0 102 85 150l37 -36q-47 -32 -47 -96q0 -38 21 -59z" />
    <glyph glyph-name="quotedblright" unicode="&#x201d;" horiz-adv-x="384" 
d="M223 700l67 40q29 -31 29 -82q0 -101 -85 -149l-37 35q47 33 47 97q0 38 -21 59zM78 700l67 40q29 -31 29 -82q0 -101 -85 -149l-37 35q47 33 47 97q0 38 -21 59z" />
    <glyph glyph-name="quotedblbase" unicode="&#x201e;" horiz-adv-x="384" 
d="M223 35l67 40q29 -31 29 -82q0 -101 -85 -149l-37 35q47 33 47 97q0 38 -21 59zM78 35l67 40q29 -31 29 -82q0 -101 -85 -149l-37 35q47 33 47 97q0 38 -21 59z" />
    <glyph glyph-name="dagger" unicode="&#x2020;" horiz-adv-x="459" 
d="M40 410v70h152v220h75v-220h152v-70h-152v-510h-75v510h-152z" />
    <glyph glyph-name="daggerdbl" unicode="&#x2021;" horiz-adv-x="459" 
d="M40 410v70h152v220h75v-220h152v-70h-152v-190h152v-70h-152v-250h-75v250h-152v70h152v190h-152z" />
    <glyph glyph-name="bullet" unicode="&#x2022;" horiz-adv-x="230" 
d="M30 263q0 35 25 60t59 25q35 0 60.5 -25t25.5 -60t-25.5 -60t-60.5 -25q-34 0 -59 25t-25 60z" />
    <glyph glyph-name="ellipsis" unicode="&#x2026;" horiz-adv-x="850" 
d="M670 54q0 21 16 37t41 16q22 0 37.5 -16.5t15.5 -36.5q0 -23 -15 -40t-38 -17q-25 0 -41 17t-16 40zM370 54q0 21 16 37t41 16q22 0 37.5 -16.5t15.5 -36.5q0 -23 -15 -40t-38 -17q-25 0 -41 17t-16 40zM70 54q0 21 16 37t41 16q22 0 37.5 -16.5t15.5 -36.5
q0 -23 -15 -40t-38 -17q-25 0 -41 17t-16 40z" />
    <glyph glyph-name="perthousand" unicode="&#x2030;" horiz-adv-x="1300" 
d="M889 164q0 75 51.5 122t131.5 47t131.5 -47t51.5 -122t-52 -122.5t-131 -47.5t-131 47.5t-52 122.5zM964 164q0 -47 32 -76t76 -29q45 0 76.5 29t31.5 76q0 46 -31.5 75t-76.5 29t-76.5 -29t-31.5 -75zM159 23l514 687l46 -34l-513 -686zM45 537q0 75 51.5 122t131.5 47
t131.5 -47t51.5 -122t-52 -122.5t-131 -47.5t-131 47.5t-52 122.5zM120 537q0 -47 32 -76t76 -29q45 0 76.5 29t31.5 76q0 46 -31.5 75t-76.5 29t-76.5 -29t-31.5 -75zM466 164q0 75 51.5 122t131.5 47t131.5 -47t51.5 -122t-52 -122.5t-131 -47.5t-131 47.5t-52 122.5z
M541 164q0 -47 32 -76t76 -29q45 0 76.5 29t31.5 76q0 46 -31.5 75t-76.5 29t-76.5 -29t-31.5 -75z" />
    <glyph glyph-name="guilsinglleft" unicode="&#x2039;" horiz-adv-x="340" 
d="M230 30l-185 218v4l188 216l52 -46l-148 -172l147 -173z" />
    <glyph glyph-name="guilsinglright" unicode="&#x203a;" horiz-adv-x="340" 
d="M295 248l-185 -218l-54 47l147 173l-148 172l52 46l188 -216v-4z" />
    <glyph glyph-name="fraction" unicode="&#x2044;" horiz-adv-x="200" 
d="M-180 23l514 687l46 -34l-513 -686z" />
    <glyph glyph-name="uni2070" unicode="&#x2070;" horiz-adv-x="384" 
d="M40 525q0 79 39.5 129t112.5 50q72 0 112 -51t40 -128q0 -78 -39.5 -128.5t-111.5 -50.5q-73 0 -113 49.5t-40 129.5zM115 525q0 -59 20.5 -89t57.5 -30q76 0 76 119t-77 119t-77 -119z" />
    <glyph glyph-name="uni2074" unicode="&#x2074;" horiz-adv-x="353" 
d="M209 350v79h-194v46l168 225h67l-163 -216h122v91h65v-91h59v-55h-59v-79h-65z" />
    <glyph glyph-name="uni2075" unicode="&#x2075;" horiz-adv-x="337" 
d="M65 512l22 188h208v-55h-159l-13 -82q23 7 49 7q58 0 93 -28.5t35 -77.5q0 -56 -39.5 -88t-101.5 -32q-100 0 -137 58l37 38q30 -41 88 -41q37 0 58 17t21 45q0 26 -24.5 42.5t-67.5 16.5q-47 0 -69 -8z" />
    <glyph glyph-name="uni2076" unicode="&#x2076;" horiz-adv-x="380" 
d="M37 480q0 91 70 155t169 70l14 -48q-66 -8 -114 -43.5t-63 -91.5q36 45 104 45q58 0 93 -29.5t35 -77.5q0 -50 -42 -83t-103 -33q-78 0 -120.5 38t-42.5 98zM112 471q1 -29 24 -50.5t64 -21.5q30 0 50 17.5t20 41.5q0 26 -19.5 42.5t-54.5 16.5q-30 0 -51.5 -14
t-32.5 -32z" />
    <glyph glyph-name="uni2077" unicode="&#x2077;" horiz-adv-x="313" 
d="M17 640v60h278v-42l-157 -308h-76l152 290h-197z" />
    <glyph glyph-name="uni2078" unicode="&#x2078;" horiz-adv-x="393" 
d="M190 555h14q25 0 43 13.5t18 33.5q0 22 -19.5 35t-49.5 13q-29 0 -48.5 -13t-19.5 -35q0 -20 18.5 -33.5t43.5 -13.5zM203 505h-11q-32 0 -54.5 -15t-22.5 -37q0 -24 22 -39t59 -15q36 0 59 15t23 39t-21 38t-54 14zM197 344q-67 0 -109.5 26.5t-42.5 70.5q0 33 20 56
t55 32v2q-28 9 -45 30.5t-17 52.5q0 41 39 66t99 25q61 0 100 -25t39 -66q0 -27 -17 -49.5t-49 -33.5v-1q35 -6 57 -28.5t22 -55.5q0 -48 -42 -75t-109 -27z" />
    <glyph glyph-name="uni2079" unicode="&#x2079;" horiz-adv-x="380" 
d="M343 561q0 -95 -68 -154t-176 -63l-10 50q75 8 125 44.5t53 88.5q-34 -50 -104 -50q-57 0 -92.5 31.5t-35.5 78.5q0 52 41.5 85t103.5 33q79 0 121 -39t42 -105zM268 574q-2 33 -24.5 54.5t-63.5 21.5q-30 0 -50 -17t-20 -41q0 -27 19.5 -46t54.5 -19q58 0 84 47z" />
    <glyph glyph-name="uni207A" unicode="&#x207a;" horiz-adv-x="360" 
d="M45 502v55h106v105h55v-105h109v-55h-109v-105h-55v105h-106z" />
    <glyph glyph-name="uni207B" unicode="&#x207b;" horiz-adv-x="360" 
d="M45 502v55h270v-55h-270z" />
    <glyph glyph-name="uni207C" unicode="&#x207c;" horiz-adv-x="360" 
d="M45 432v55h270v-55h-270zM45 572v55h270v-55h-270z" />
    <glyph glyph-name="uni207D" unicode="&#x207d;" horiz-adv-x="212" 
d="M202 348l-41 -41q-68 36 -99.5 94.5t-31.5 121.5q0 131 132 215l37 -40q-99 -67 -99 -175q0 -111 102 -175z" />
    <glyph glyph-name="uni207E" unicode="&#x207e;" horiz-adv-x="212" 
d="M10 697l41 41q68 -36 99.5 -94.5t31.5 -121.5q0 -132 -132 -215l-37 40q99 66 99 175t-102 175z" />
    <glyph glyph-name="uni2080" unicode="&#x2080;" horiz-adv-x="384" 
d="M40 175q0 79 39.5 129t112.5 50q72 0 112 -51t40 -128q0 -78 -39.5 -128.5t-111.5 -50.5q-73 0 -113 49.5t-40 129.5zM115 175q0 -59 20.5 -89t57.5 -30q76 0 76 119t-77 119t-77 -119z" />
    <glyph glyph-name="uni2081" unicode="&#x2081;" horiz-adv-x="252" 
d="M22 280l105 71h50v-351h-70v269l-58 -37z" />
    <glyph glyph-name="uni2082" unicode="&#x2082;" horiz-adv-x="349" 
d="M35 0v51q4 3 25 16.5t29 19t27.5 19.5t28.5 21.5t25 21t24 23t17 22t12.5 23.5t3.5 22q0 24 -16 39.5t-45 15.5q-25 0 -45 -16.5t-24 -41.5l-59 21q7 45 44.5 71t90.5 26q62 0 95 -30t33 -77q0 -32 -20 -64t-51.5 -57t-55.5 -40t-47 -26h192v-60h-284z" />
    <glyph glyph-name="uni2083" unicode="&#x2083;" horiz-adv-x="350" 
d="M169 -6q-106 0 -144 70l41 38q12 -23 38 -36.5t54 -13.5q36 0 56.5 15t20.5 38q0 21 -18.5 34t-52.5 13h-34v50h30q26 0 44 14.5t18 36.5q0 21 -17 33t-46 12q-58 0 -89 -45l-34 38q36 64 137 64q56 0 90 -23.5t34 -64.5q0 -31 -19.5 -53t-54.5 -31v-1q41 -3 64 -27
t23 -56q0 -47 -40.5 -76t-100.5 -29z" />
    <glyph glyph-name="uni2084" unicode="&#x2084;" horiz-adv-x="353" 
d="M209 0v79h-194v46l168 225h67l-163 -216h122v91h65v-91h59v-55h-59v-79h-65z" />
    <glyph glyph-name="uni2085" unicode="&#x2085;" horiz-adv-x="337" 
d="M65 162l22 188h208v-55h-159l-13 -82q23 7 49 7q58 0 93 -28.5t35 -77.5q0 -56 -39.5 -88t-101.5 -32q-100 0 -137 58l37 38q30 -41 88 -41q37 0 58 17t21 45q0 26 -24.5 42.5t-67.5 16.5q-47 0 -69 -8z" />
    <glyph glyph-name="uni2086" unicode="&#x2086;" horiz-adv-x="380" 
d="M37 130q0 91 70 155t169 70l14 -48q-66 -8 -114 -43.5t-63 -91.5q36 45 104 45q58 0 93 -29.5t35 -77.5q0 -50 -42 -83t-103 -33q-78 0 -120.5 38t-42.5 98zM112 121q1 -29 24 -50.5t64 -21.5q30 0 50 17.5t20 41.5q0 26 -19.5 42.5t-54.5 16.5q-30 0 -51.5 -14
t-32.5 -32z" />
    <glyph glyph-name="uni2087" unicode="&#x2087;" horiz-adv-x="313" 
d="M17 290v60h278v-42l-157 -308h-76l152 290h-197z" />
    <glyph glyph-name="uni2088" unicode="&#x2088;" horiz-adv-x="393" 
d="M190 205h14q25 0 43 13.5t18 33.5q0 22 -19.5 35t-49.5 13q-29 0 -48.5 -13t-19.5 -35q0 -20 18.5 -33.5t43.5 -13.5zM203 155h-11q-32 0 -54.5 -15t-22.5 -37q0 -24 22 -39t59 -15q36 0 59 15t23 39t-21 38t-54 14zM197 -6q-67 0 -109.5 26.5t-42.5 70.5q0 33 20 56
t55 32v2q-28 9 -45 30.5t-17 52.5q0 41 39 66t99 25q61 0 100 -25t39 -66q0 -27 -17 -49.5t-49 -33.5v-1q35 -6 57 -28.5t22 -55.5q0 -48 -42 -75t-109 -27z" />
    <glyph glyph-name="uni2089" unicode="&#x2089;" horiz-adv-x="380" 
d="M343 211q0 -95 -68 -154t-176 -63l-10 50q75 8 125 44.5t53 88.5q-34 -50 -104 -50q-57 0 -92.5 31.5t-35.5 78.5q0 52 41.5 85t103.5 33q79 0 121 -39t42 -105zM268 224q-2 33 -24.5 54.5t-63.5 21.5q-30 0 -50 -17t-20 -41q0 -27 19.5 -46t54.5 -19q58 0 84 47z" />
    <glyph glyph-name="uni208A" unicode="&#x208a;" horiz-adv-x="360" 
d="M45 152v55h106v105h55v-105h109v-55h-109v-105h-55v105h-106z" />
    <glyph glyph-name="uni208B" unicode="&#x208b;" horiz-adv-x="360" 
d="M45 152v55h270v-55h-270z" />
    <glyph glyph-name="uni208C" unicode="&#x208c;" horiz-adv-x="360" 
d="M45 82v55h270v-55h-270zM45 222v55h270v-55h-270z" />
    <glyph glyph-name="uni208D" unicode="&#x208d;" horiz-adv-x="212" 
d="M202 -2l-41 -41q-68 36 -99.5 94.5t-31.5 121.5q0 131 132 215l37 -40q-99 -67 -99 -175q0 -111 102 -175z" />
    <glyph glyph-name="uni208E" unicode="&#x208e;" horiz-adv-x="212" 
d="M10 347l41 41q68 -36 99.5 -94.5t31.5 -121.5q0 -132 -132 -215l-37 40q99 66 99 175t-102 175z" />
    <glyph glyph-name="Euro" unicode="&#x20ac;" 
d="M18 410l26 65h74q32 107 117.5 171t206.5 64q81 0 135 -29l-31 -73q-46 22 -104 22q-79 0 -140 -41t-90 -114h299l-24 -65h-292q-5 -32 -5 -60q0 -24 3 -45h266l-21 -65h-230q29 -79 95 -124.5t153 -45.5q62 0 96 18l14 -77q-40 -21 -117 -21q-125 0 -215 67t-121 183
h-94l25 65h58q-2 28 -2 45q0 33 4 60h-86z" />
    <glyph glyph-name="uni20B4" unicode="&#x20b4;" horiz-adv-x="600" 
d="M73 412v65h305q16 21 16 69q0 35 -22.5 59.5t-70.5 24.5q-79 0 -133 -52l-41 60q61 72 177 72q81 0 129.5 -42.5t48.5 -109.5q0 -50 -26 -81h71v-65h-112q-23 -23 -71 -55.5t-66 -49.5h249v-65h-308q-29 -32 -29 -75q0 -45 36 -71t89 -26q89 0 145 69l43 -54
q-65 -95 -200 -95q-78 0 -135.5 44t-57.5 120q0 48 30 88h-67v65h114q21 21 70 54t69 51h-253z" />
    <glyph glyph-name="uni20B6" unicode="&#x20b6;" horiz-adv-x="600" 
d="M19 308v65h106v327q19 0 89.5 1t93.5 1q259 0 259 -199q0 -88 -64 -141.5t-188 -53.5h-105v-105h173v-65h-173v-138h-85v138h-106v65h106v105h-106zM316 622q-40 0 -106 -2v-247h102q79 0 122 31t43 93q0 125 -161 125z" />
    <glyph glyph-name="uni20B6" unicode="&#x20cf;" horiz-adv-x="600" 
d="M19 308v65h106v327q19 0 89.5 1t93.5 1q259 0 259 -199q0 -88 -64 -141.5t-188 -53.5h-105v-105h173v-65h-173v-138h-85v138h-106v65h106v105h-106zM316 622q-40 0 -106 -2v-247h102q79 0 122 31t43 93q0 125 -161 125z" />
    <glyph glyph-name="uni20B6" unicode="&#x20ce;" horiz-adv-x="600" 
d="M19 308v65h106v327q19 0 89.5 1t93.5 1q259 0 259 -199q0 -88 -64 -141.5t-188 -53.5h-105v-105h173v-65h-173v-138h-85v138h-106v65h106v105h-106zM316 622q-40 0 -106 -2v-247h102q79 0 122 31t43 93q0 125 -161 125z" />
    <glyph glyph-name="uni20B6" unicode="&#x20cd;" horiz-adv-x="600" 
d="M19 308v65h106v327q19 0 89.5 1t93.5 1q259 0 259 -199q0 -88 -64 -141.5t-188 -53.5h-105v-105h173v-65h-173v-138h-85v138h-106v65h106v105h-106zM316 622q-40 0 -106 -2v-247h102q79 0 122 31t43 93q0 125 -161 125z" />
    <glyph glyph-name="uni20B6" unicode="&#x20cc;" horiz-adv-x="600" 
d="M19 308v65h106v327q19 0 89.5 1t93.5 1q259 0 259 -199q0 -88 -64 -141.5t-188 -53.5h-105v-105h173v-65h-173v-138h-85v138h-106v65h106v105h-106zM316 622q-40 0 -106 -2v-247h102q79 0 122 31t43 93q0 125 -161 125z" />
    <glyph glyph-name="uni20B6" unicode="&#x20cb;" horiz-adv-x="600" 
d="M19 308v65h106v327q19 0 89.5 1t93.5 1q259 0 259 -199q0 -88 -64 -141.5t-188 -53.5h-105v-105h173v-65h-173v-138h-85v138h-106v65h106v105h-106zM316 622q-40 0 -106 -2v-247h102q79 0 122 31t43 93q0 125 -161 125z" />
    <glyph glyph-name="uni20B6" unicode="&#x20ca;" horiz-adv-x="600" 
d="M19 308v65h106v327q19 0 89.5 1t93.5 1q259 0 259 -199q0 -88 -64 -141.5t-188 -53.5h-105v-105h173v-65h-173v-138h-85v138h-106v65h106v105h-106zM316 622q-40 0 -106 -2v-247h102q79 0 122 31t43 93q0 125 -161 125z" />
    <glyph glyph-name="uni20B6" unicode="&#x20c9;" horiz-adv-x="600" 
d="M19 308v65h106v327q19 0 89.5 1t93.5 1q259 0 259 -199q0 -88 -64 -141.5t-188 -53.5h-105v-105h173v-65h-173v-138h-85v138h-106v65h106v105h-106zM316 622q-40 0 -106 -2v-247h102q79 0 122 31t43 93q0 125 -161 125z" />
    <glyph glyph-name="uni20B6" unicode="&#x20c8;" horiz-adv-x="600" 
d="M19 308v65h106v327q19 0 89.5 1t93.5 1q259 0 259 -199q0 -88 -64 -141.5t-188 -53.5h-105v-105h173v-65h-173v-138h-85v138h-106v65h106v105h-106zM316 622q-40 0 -106 -2v-247h102q79 0 122 31t43 93q0 125 -161 125z" />
    <glyph glyph-name="uni20B6" unicode="&#x20c7;" horiz-adv-x="600" 
d="M19 308v65h106v327q19 0 89.5 1t93.5 1q259 0 259 -199q0 -88 -64 -141.5t-188 -53.5h-105v-105h173v-65h-173v-138h-85v138h-106v65h106v105h-106zM316 622q-40 0 -106 -2v-247h102q79 0 122 31t43 93q0 125 -161 125z" />
    <glyph glyph-name="uni20B6" unicode="&#x20c6;" horiz-adv-x="600" 
d="M19 308v65h106v327q19 0 89.5 1t93.5 1q259 0 259 -199q0 -88 -64 -141.5t-188 -53.5h-105v-105h173v-65h-173v-138h-85v138h-106v65h106v105h-106zM316 622q-40 0 -106 -2v-247h102q79 0 122 31t43 93q0 125 -161 125z" />
    <glyph glyph-name="uni20B6" unicode="&#x20c5;" horiz-adv-x="600" 
d="M19 308v65h106v327q19 0 89.5 1t93.5 1q259 0 259 -199q0 -88 -64 -141.5t-188 -53.5h-105v-105h173v-65h-173v-138h-85v138h-106v65h106v105h-106zM316 622q-40 0 -106 -2v-247h102q79 0 122 31t43 93q0 125 -161 125z" />
    <glyph glyph-name="uni20B6" unicode="&#x20c4;" horiz-adv-x="600" 
d="M19 308v65h106v327q19 0 89.5 1t93.5 1q259 0 259 -199q0 -88 -64 -141.5t-188 -53.5h-105v-105h173v-65h-173v-138h-85v138h-106v65h106v105h-106zM316 622q-40 0 -106 -2v-247h102q79 0 122 31t43 93q0 125 -161 125z" />
    <glyph glyph-name="uni20B6" unicode="&#x20c3;" horiz-adv-x="600" 
d="M19 308v65h106v327q19 0 89.5 1t93.5 1q259 0 259 -199q0 -88 -64 -141.5t-188 -53.5h-105v-105h173v-65h-173v-138h-85v138h-106v65h106v105h-106zM316 622q-40 0 -106 -2v-247h102q79 0 122 31t43 93q0 125 -161 125z" />
    <glyph glyph-name="uni20B6" unicode="&#x20c2;" horiz-adv-x="600" 
d="M19 308v65h106v327q19 0 89.5 1t93.5 1q259 0 259 -199q0 -88 -64 -141.5t-188 -53.5h-105v-105h173v-65h-173v-138h-85v138h-106v65h106v105h-106zM316 622q-40 0 -106 -2v-247h102q79 0 122 31t43 93q0 125 -161 125z" />
    <glyph glyph-name="uni20B6" unicode="&#x20c1;" horiz-adv-x="600" 
d="M19 308v65h106v327q19 0 89.5 1t93.5 1q259 0 259 -199q0 -88 -64 -141.5t-188 -53.5h-105v-105h173v-65h-173v-138h-85v138h-106v65h106v105h-106zM316 622q-40 0 -106 -2v-247h102q79 0 122 31t43 93q0 125 -161 125z" />
    <glyph glyph-name="uni20B6" unicode="&#x20c0;" horiz-adv-x="600" 
d="M19 308v65h106v327q19 0 89.5 1t93.5 1q259 0 259 -199q0 -88 -64 -141.5t-188 -53.5h-105v-105h173v-65h-173v-138h-85v138h-106v65h106v105h-106zM316 622q-40 0 -106 -2v-247h102q79 0 122 31t43 93q0 125 -161 125z" />
    <glyph glyph-name="uni20B6" unicode="&#x20bf;" horiz-adv-x="600" 
d="M19 308v65h106v327q19 0 89.5 1t93.5 1q259 0 259 -199q0 -88 -64 -141.5t-188 -53.5h-105v-105h173v-65h-173v-138h-85v138h-106v65h106v105h-106zM316 622q-40 0 -106 -2v-247h102q79 0 122 31t43 93q0 125 -161 125z" />
    <glyph glyph-name="uni20B6" unicode="&#x20be;" horiz-adv-x="600" 
d="M19 308v65h106v327q19 0 89.5 1t93.5 1q259 0 259 -199q0 -88 -64 -141.5t-188 -53.5h-105v-105h173v-65h-173v-138h-85v138h-106v65h106v105h-106zM316 622q-40 0 -106 -2v-247h102q79 0 122 31t43 93q0 125 -161 125z" />
    <glyph glyph-name="uni20B6" unicode="&#x20bd;" horiz-adv-x="600" 
d="M19 308v65h106v327q19 0 89.5 1t93.5 1q259 0 259 -199q0 -88 -64 -141.5t-188 -53.5h-105v-105h173v-65h-173v-138h-85v138h-106v65h106v105h-106zM316 622q-40 0 -106 -2v-247h102q79 0 122 31t43 93q0 125 -161 125z" />
    <glyph glyph-name="uni20B6" unicode="&#x20bc;" horiz-adv-x="600" 
d="M19 308v65h106v327q19 0 89.5 1t93.5 1q259 0 259 -199q0 -88 -64 -141.5t-188 -53.5h-105v-105h173v-65h-173v-138h-85v138h-106v65h106v105h-106zM316 622q-40 0 -106 -2v-247h102q79 0 122 31t43 93q0 125 -161 125z" />
    <glyph glyph-name="uni20B6" unicode="&#x20bb;" horiz-adv-x="600" 
d="M19 308v65h106v327q19 0 89.5 1t93.5 1q259 0 259 -199q0 -88 -64 -141.5t-188 -53.5h-105v-105h173v-65h-173v-138h-85v138h-106v65h106v105h-106zM316 622q-40 0 -106 -2v-247h102q79 0 122 31t43 93q0 125 -161 125z" />
    <glyph glyph-name="uni20B6" unicode="&#x20ba;" horiz-adv-x="600" 
d="M19 308v65h106v327q19 0 89.5 1t93.5 1q259 0 259 -199q0 -88 -64 -141.5t-188 -53.5h-105v-105h173v-65h-173v-138h-85v138h-106v65h106v105h-106zM316 622q-40 0 -106 -2v-247h102q79 0 122 31t43 93q0 125 -161 125z" />
    <glyph glyph-name="uni20B6" unicode="&#x20b9;" horiz-adv-x="600" 
d="M19 308v65h106v327q19 0 89.5 1t93.5 1q259 0 259 -199q0 -88 -64 -141.5t-188 -53.5h-105v-105h173v-65h-173v-138h-85v138h-106v65h106v105h-106zM316 622q-40 0 -106 -2v-247h102q79 0 122 31t43 93q0 125 -161 125z" />
    <glyph glyph-name="uni20B6" unicode="&#x20b7;" horiz-adv-x="600" 
d="M19 308v65h106v327q19 0 89.5 1t93.5 1q259 0 259 -199q0 -88 -64 -141.5t-188 -53.5h-105v-105h173v-65h-173v-138h-85v138h-106v65h106v105h-106zM316 622q-40 0 -106 -2v-247h102q79 0 122 31t43 93q0 125 -161 125z" />
    <glyph glyph-name="afii61352" unicode="&#x2116;" horiz-adv-x="1176" 
d="M670 0h-68l-417 550v-550h-80v700h68l417 -552v552h80v-700zM740 489q0 75 51.5 122t131.5 47t131.5 -47t51.5 -122t-52 -122.5t-131 -47.5t-131 47.5t-52 122.5zM815 489q0 -47 32 -76t76 -29q45 0 76.5 29t31.5 76q0 46 -31.5 75t-76.5 29t-76.5 -29t-31.5 -75z
M775 185v75h296v-75h-296z" />
    <glyph glyph-name="trademark" unicode="&#x2122;" horiz-adv-x="847" 
d="M380 385v315h69l133 -140l126 140h66v-315h-75v219l-119 -132h-2l-122 132v-219h-76zM15 627v73h318v-73h-122v-242h-75v242h-121z" />
    <glyph glyph-name="arrowleft" unicode="&#x2190;" horiz-adv-x="643" 
d="M323 555l56 -56l-186 -186h410v-80h-411l187 -187l-56 -56l-283 283z" />
    <glyph glyph-name="arrowup" unicode="&#x2191;" horiz-adv-x="645" 
d="M96 223l-56 57l282 283l283 -283l-56 -57l-187 187v-410h-80v409z" />
    <glyph glyph-name="arrowright" unicode="&#x2192;" horiz-adv-x="643" 
d="M263 499l57 56l283 -282l-283 -283l-57 56l187 187h-410v80h409z" />
    <glyph glyph-name="arrowdown" unicode="&#x2193;" horiz-adv-x="645" 
d="M40 263l56 56l186 -186v410h80v-411l187 187l56 -56l-283 -283z" />
    <glyph glyph-name="partialdiff" unicode="&#x2202;" horiz-adv-x="588" 
d="M42 202q0 106 70 182t178 76q64 0 108 -27t62 -64q0 114 -64 187t-196 82l12 72q158 -6 245.5 -96.5t87.5 -248.5q0 -156 -75.5 -265.5t-209.5 -109.5q-97 0 -157.5 60.5t-60.5 151.5zM127 209q0 -60 39 -102t103 -42q77 0 126.5 67t58.5 159q-56 94 -160 94
q-70 0 -118.5 -52t-48.5 -124z" />
    <glyph glyph-name="product" unicode="&#x220f;" horiz-adv-x="880" 
d="M690 -200v820h-500v-820h-85v900h670v-900h-85z" />
    <glyph glyph-name="summation" unicode="&#x2211;" horiz-adv-x="635" 
d="M340 250l-300 393v57h555v-80h-435l278 -370l-283 -370h440v-80h-555v57z" />
    <glyph glyph-name="minus" unicode="&#x2212;" 
d="M69 325v70h454v-70h-454z" />
    <glyph glyph-name="uni2215" unicode="&#x2215;" horiz-adv-x="335" 
d="M-30 -185l333 895l62 -23l-332 -895z" />
    <glyph glyph-name="radical" unicode="&#x221a;" horiz-adv-x="603" 
d="M5 370v80h161l168 -315l131 565h278v-80h-208l-148 -624h-68l-208 374h-106z" />
    <glyph glyph-name="infinity" unicode="&#x221e;" horiz-adv-x="746" 
d="M547 183q-94 0 -175 102q-36 -48 -74 -75t-91 -27q-61 0 -109 43.5t-48 114.5q0 65 44.5 112.5t115.5 47.5q49 0 86.5 -27.5t75.5 -76.5q36 49 75 76.5t99 27.5q68 0 109 -46t41 -118q0 -61 -41 -107.5t-108 -46.5zM532 431q-35 0 -62 -22.5t-58 -65.5q33 -44 62 -67
t65 -23q38 0 60 26t22 60q0 39 -23.5 65.5t-65.5 26.5zM215 253q37 0 63 21.5t54 62.5q-34 47 -60 70.5t-56 23.5q-41 0 -66 -26t-25 -64q0 -40 27.5 -64t62.5 -24z" />
    <glyph glyph-name="integral" unicode="&#x222b;" horiz-adv-x="330" 
d="M162 -17q0 -87 -26.5 -135t-92.5 -54q-15 -2 -47 0q-47 4 -75 27l22 64q29 -18 59 -18q45 0 62.5 31t17.5 90v535q0 84 35 131t100 53q24 3 49 0q59 -5 94 -37l-28 -61q-29 22 -64 24q-33 2 -54 -8q-52 -22 -52 -111v-531z" />
    <glyph glyph-name="approxequal" unicode="&#x2248;" 
d="M86 217l-36 51q67 72 136 72q42 0 118 -35.5t114 -35.5q46 0 91 45l32 -55q-63 -60 -124 -60q-41 0 -116 35.5t-111 35.5q-49 0 -104 -53zM86 397l-36 51q67 72 136 72q42 0 118 -35.5t114 -35.5q46 0 91 45l32 -55q-63 -60 -124 -60q-41 0 -116 35.5t-111 35.5
q-49 0 -104 -53z" />
    <glyph glyph-name="notequal" unicode="&#x2260;" 
d="M69 415v70h235l84 225l62 -23l-75 -202h148v-70h-174l-41 -110h215v-70h-241l-91 -245l-63 23l83 222h-142v70h168l41 110h-209z" />
    <glyph glyph-name="lessequal" unicode="&#x2264;" 
d="M57 255v74l440 -263v-77zM497 169l-440 266v34l440 264v-87l-329 -194l329 -196v-87z" />
    <glyph glyph-name="greaterequal" unicode="&#x2265;" 
d="M534 329v-74l-439 -266v77zM534 435l-439 -266v87l329 196l-329 194v87l439 -264v-34z" />
    <glyph glyph-name="lozenge" unicode="&#x25ca;" horiz-adv-x="478" 
d="M207 -4l-167 253l168 267h63l167 -256l-168 -264h-63zM121 250l118 -179l118 189l-118 177z" />
    <glyph glyph-name="spade" unicode="&#x2660;" horiz-adv-x="632" 
d="M316 510q88 -55 172 -151t84 -160q0 -42 -30 -73t-87 -31q-79 0 -131 72q28 -119 107 -167h-230q73 52 105 164q-51 -69 -129 -69q-58 0 -87.5 31t-29.5 74q0 63 84 159t172 151z" />
    <glyph glyph-name="club" unicode="&#x2663;" horiz-adv-x="612" 
d="M177 381q0 53 38 91t91 38t91 -38t38 -91q0 -7 -2 -19q50 -4 84.5 -41t34.5 -87q0 -53 -38 -91t-91 -38q-66 0 -104 53q31 -115 102 -158h-230q63 44 100 156q-40 -51 -102 -51q-53 0 -91 38t-38 91q0 50 34 87t84 41q-1 6 -1 19z" />
    <glyph glyph-name="heart" unicode="&#x2665;" horiz-adv-x="649" 
d="M325 0q-93 70 -179 181.5t-86 188.5q0 53 30.5 91.5t90.5 38.5q88 0 144 -104q54 104 143 104q59 0 90 -38t31 -91q0 -77 -85.5 -188.5t-178.5 -182.5z" />
    <glyph glyph-name="diamond" unicode="&#x2666;" horiz-adv-x="583" 
d="M523 249q-109 -109 -232 -268q-103 136 -231 268q108 113 231 269q120 -153 232 -269z" />
    <glyph glyph-name="uniF350" unicode="&#xf350;" horiz-adv-x="590" 
d="M12 0l246 528h74l246 -528h-91l-64 140h-261l-64 -140h-86zM293 426l-95 -206h189z" />
    <glyph glyph-name="uniF351" unicode="&#xf351;" horiz-adv-x="521" 
d="M84 0v525h347v-80h-262v-125q33 4 92 4q98 0 151 -40.5t53 -116.5q0 -86 -57.5 -128.5t-164.5 -42.5q-35 0 -90.5 2t-68.5 2zM252 245q-46 0 -83 -4v-162q75 -3 83 -3q128 0 128 87q0 82 -128 82z" />
    <glyph glyph-name="uniF352" unicode="&#xf352;" horiz-adv-x="524" 
d="M84 1v523q128 4 177 4q98 0 143 -35.5t45 -94.5q0 -46 -26.5 -78.5t-70.5 -44.5v-1q116 -16 116 -121q0 -78 -58 -117t-154 -39q-104 0 -172 4zM267 228h-98v-147q32 -4 93 -4q121 0 121 79q0 72 -116 72zM260 448q-34 0 -91 -3v-142h96q42 0 70.5 19.5t28.5 53.5
q0 72 -104 72z" />
    <glyph glyph-name="uniF353" unicode="&#xf353;" horiz-adv-x="427" 
d="M84 0v525h333v-80h-248v-445h-85z" />
    <glyph glyph-name="uniF354" unicode="&#xf354;" horiz-adv-x="621" 
d="M11 -95v175h63q26 29 55 118t36 222l6 105h349v-445h78v-175h-80v95h-427v-95h-80zM245 362q-9 -110 -33 -184.5t-45 -97.5h268v365h-182z" />
    <glyph glyph-name="uniF355" unicode="&#xf355;" horiz-adv-x="488" 
d="M84 0v525h340v-80h-255v-140h230v-80h-230v-145h263v-80h-348z" />
    <glyph glyph-name="uniF356" unicode="&#xf356;" horiz-adv-x="784" 
d="M760 525l-223 -249l231 -276h-103l-223 274l214 251h104zM350 0v525h85v-525h-85zM247 274l-223 251h104l215 -251l-224 -274h-104z" />
    <glyph glyph-name="uniF357" unicode="&#xf357;" horiz-adv-x="495" 
d="M234 -9q-68 0 -123 26t-80 61l47 57q61 -64 156 -64q57 0 88.5 22t31.5 61q0 73 -108 73h-78v80h74q36 0 62.5 21t26.5 52q0 35 -25.5 53.5t-68.5 18.5q-89 0 -140 -57l-49 57q65 80 191 80q79 0 128 -38t49 -105q0 -38 -19.5 -70t-55.5 -46v-3q47 -8 72.5 -42.5
t25.5 -81.5q0 -72 -56.5 -113.5t-148.5 -41.5z" />
    <glyph glyph-name="uniF358" unicode="&#xf358;" horiz-adv-x="656" 
d="M159 0h-75v525h85v-390l328 390h75v-525h-85v390z" />
    <glyph glyph-name="uniF359" unicode="&#xf359;" horiz-adv-x="656" 
d="M159 0h-75v525h85v-390l328 390h75v-525h-85v390zM175 680h75q0 -65 77 -65q73 0 73 65h75q0 -59 -40 -92t-108 -33q-74 0 -113 32.5t-39 92.5z" />
    <glyph glyph-name="uniF35A" unicode="&#xf35a;" horiz-adv-x="554" 
d="M526 525l-246 -245l259 -280h-116l-247 274l239 251h111zM84 0v525h85v-525h-85z" />
    <glyph glyph-name="uniF35B" unicode="&#xf35b;" horiz-adv-x="601" 
d="M432 0v445h-192l-10 -99q-11 -114 -31 -187.5t-48.5 -108.5t-59 -45.5t-72.5 -4.5l2 82q16 -2 28.5 2t29.5 22.5t30 53.5t25.5 101.5t19.5 158.5l8 105h355v-525h-85z" />
    <glyph glyph-name="uniF35C" unicode="&#xf35c;" horiz-adv-x="740" 
d="M84 0v525h86l207 -251l198 251h81v-525h-85v396l-194 -240h-12l-196 237v-393h-85z" />
    <glyph glyph-name="uniF35D" unicode="&#xf35d;" horiz-adv-x="640" 
d="M471 0v228h-302v-228h-85v525h85v-217h302v217h85v-525h-85z" />
    <glyph glyph-name="uniF35E" unicode="&#xf35e;" horiz-adv-x="655" 
d="M40 262q0 115 81 192.5t207 77.5q124 0 205.5 -75t81.5 -195q0 -118 -81.5 -194.5t-205.5 -76.5q-125 0 -206.5 75t-81.5 196zM130 262q0 -81 57 -136t141 -55q90 0 143.5 54t53.5 137t-56.5 136.5t-140.5 53.5q-85 0 -141.5 -53.5t-56.5 -136.5z" />
    <glyph glyph-name="uniF35F" unicode="&#xf35f;" horiz-adv-x="639" 
d="M470 0v445h-301v-445h-85v525h471v-525h-85z" />
    <glyph glyph-name="uniF360" unicode="&#xf360;" horiz-adv-x="499" 
d="M169 0h-85v525q15 0 76 1t81 1q116 0 167 -48.5t51 -126.5q0 -77 -54.5 -127t-154.5 -50q-40 0 -81 3v-178zM249 447q-36 0 -80 -2v-186q52 -4 78 -4q58 0 90 26t32 71q0 95 -120 95z" />
    <glyph glyph-name="uniF361" unicode="&#xf361;" horiz-adv-x="542" 
d="M481 114l33 -64q-28 -27 -78 -43t-105 -16q-131 0 -211 74t-80 197q0 115 76 192.5t211 77.5q109 0 176 -52l-39 -64q-61 36 -137 36q-88 0 -142.5 -52t-54.5 -138t57 -138.5t152 -52.5q82 0 142 43z" />
    <glyph glyph-name="uniF362" unicode="&#xf362;" horiz-adv-x="492" 
d="M8 445v80h476v-80h-196v-445h-85v445h-195z" />
    <glyph glyph-name="uniF363" unicode="&#xf363;" horiz-adv-x="546" 
d="M536 525l-197 -401q-31 -63 -67 -93.5t-85 -30.5q-42 0 -69 20l30 72q22 -13 43 -13q35 0 61 48l10 18l-251 380h106l189 -296l143 296h87z" />
    <glyph glyph-name="uniF364" unicode="&#xf364;" horiz-adv-x="690" 
d="M301 -6v60q-123 0 -196.5 57t-73.5 159q0 100 73.5 157t196.5 59v45h85v-45q125 -1 199 -57t74 -159q0 -101 -74.5 -158.5t-197.5 -57.5h-1v-60h-85zM569 270q0 60 -48 98.5t-135 39.5v-277q86 0 134.5 37.5t48.5 101.5zM121 270q0 -63 48.5 -101t131.5 -38v277
q-84 -1 -132 -40t-48 -98z" />
    <glyph glyph-name="uniF365" unicode="&#xf365;" horiz-adv-x="550" 
d="M529 525l-199 -258l207 -267h-105l-158 202l-156 -202h-106l207 267l-198 258h106l149 -194l148 194h105z" />
    <glyph glyph-name="uniF366" unicode="&#xf366;" horiz-adv-x="648" 
d="M84 0v525h85v-445h292v445h85v-445h79v-175h-80v95h-461z" />
    <glyph glyph-name="uniF367" unicode="&#xf367;" horiz-adv-x="548" 
d="M464 525v-525h-85v219q-56 -37 -146 -37q-75 0 -127 40.5t-52 126.5v176h85v-146q0 -117 112 -117q73 0 128 35v228h85z" />
    <glyph glyph-name="uniF368" unicode="&#xf368;" horiz-adv-x="822" 
d="M84 0v525h85v-445h199v445h85v-445h200v445h85v-525h-654z" />
    <glyph glyph-name="uniF369" unicode="&#xf369;" horiz-adv-x="840" 
d="M84 0v525h85v-445h199v445h85v-445h200v445h85v-445h79v-175h-80v95h-653z" />
    <glyph glyph-name="uniF36A" unicode="&#xf36a;" horiz-adv-x="553" 
d="M5 445v80h217v-183q44 3 74 3q110 0 164 -44t54 -124q0 -84 -62 -131.5t-174 -47.5q-29 0 -77.5 1t-63.5 1v445h-132zM290 265q-29 0 -68 -3v-182q42 -2 71 -2q131 0 131 97q0 90 -134 90z" />
    <glyph glyph-name="uniF36B" unicode="&#xf36b;" horiz-adv-x="706" 
d="M537 0v525h85v-525h-85zM233 265q-25 0 -64 -3v-182q40 -2 62 -2q131 0 131 97q0 90 -129 90zM169 525v-183q42 3 71 3q105 0 158.5 -44.5t53.5 -123.5q0 -83 -61.5 -131t-169.5 -48q-28 0 -75 1t-62 1v525h85z" />
    <glyph glyph-name="uniF36C" unicode="&#xf36c;" horiz-adv-x="500" 
d="M236 265q-28 0 -67 -3v-182q40 -2 65 -2q137 0 137 97q0 90 -135 90zM169 525v-183q42 3 74 3q109 0 163.5 -44.5t54.5 -123.5q0 -84 -62.5 -131.5t-174.5 -47.5q-28 0 -76.5 1t-63.5 1v525h85z" />
    <glyph glyph-name="uniF36D" unicode="&#xf36d;" horiz-adv-x="557" 
d="M157 228v80h272q-14 70 -67 107.5t-138 37.5q-99 0 -157 -41l-34 64q75 57 195 57q129 0 209.5 -74t80.5 -196q0 -123 -81.5 -197t-217.5 -74q-121 0 -193 55l37 71q66 -46 166 -46q83 0 137 40.5t64 115.5h-273z" />
    <glyph glyph-name="uniF36E" unicode="&#xf36e;" horiz-adv-x="871" 
d="M84 0v525h85v-217h112q14 99 87 162t184 63q127 0 203 -74t76 -196q0 -120 -76.5 -195.5t-202.5 -75.5q-111 0 -186 64.5t-86 171.5h-111v-228h-85zM368 263q0 -83 52 -137t134 -54q86 0 136.5 54t50.5 137q0 85 -51.5 137.5t-135.5 52.5q-82 0 -134 -53t-52 -137z" />
    <glyph glyph-name="uniF36F" unicode="&#xf36f;" horiz-adv-x="534" 
d="M365 0v180h-112l-134 -180h-101l149 197q-45 20 -74 58t-29 90q0 79 57 131t169 52q32 0 89 -1.5t71 -1.5v-525h-85zM245 260h120v185q-51 3 -83 3q-62 0 -95 -27.5t-33 -70.5q0 -35 27 -59.5t64 -30.5z" />
    <glyph glyph-name="uniF371" unicode="&#xf371;" horiz-adv-x="488" 
d="M84 0v525h340v-80h-255v-140h230v-80h-230v-145h263v-80h-348zM119 654q0 19 14 31t34 12q17 0 30 -12t13 -31q0 -21 -13 -33.5t-30 -12.5q-20 0 -34 12.5t-14 33.5zM297 654q0 19 13.5 31t32.5 12q18 0 31 -12t13 -31q0 -21 -13 -33.5t-31 -12.5q-19 0 -32.5 12.5
t-13.5 33.5z" />
    <glyph glyph-name="uniF372" unicode="&#xf372;" horiz-adv-x="630" 
d="M590 158q0 -84 -38.5 -125t-106.5 -41q-29 0 -55.5 10t-36.5 21l28 65q23 -16 53 -16q71 0 71 82q0 88 -103 88q-25 0 -50 -7t-32.5 -10.5t-31.5 -16.5v-208h-85v445h-195v80h476v-80h-196v-155q68 32 130 32q78 0 125 -39.5t47 -124.5z" />
    <glyph glyph-name="uniF373" unicode="&#xf373;" horiz-adv-x="427" 
d="M84 0v525h333v-80h-248v-445h-85zM362 705l-135 -125l-40 44l126 142z" />
    <glyph glyph-name="uniF374" unicode="&#xf374;" horiz-adv-x="558" 
d="M401 306v-80h-274q12 -75 69.5 -114.5t144.5 -39.5q91 0 159 46l32 -71q-72 -55 -190 -55q-137 0 -219.5 73t-82.5 198q0 120 81 195t209 75q121 0 194 -57l-38 -64q-58 41 -153 41q-181 0 -205 -147h273z" />
    <glyph glyph-name="uniF375" unicode="&#xf375;" horiz-adv-x="485" 
d="M355 143q0 25 -22.5 43.5t-56 29t-72.5 24.5t-72.5 30t-56 46.5t-22.5 72.5q0 63 49.5 103t149.5 40q48 0 102.5 -19.5t80.5 -47.5l-39 -63q-27 22 -70 36t-78 14q-49 0 -77 -18t-28 -49q0 -28 31 -47t75.5 -31.5t89 -29.5t75.5 -52t31 -87q0 -66 -56 -106.5t-141 -40.5
q-66 0 -125.5 22.5t-88.5 60.5l49 58q27 -27 74.5 -44t95.5 -17q43 0 72.5 19t29.5 53z" />
    <glyph glyph-name="uniF376" unicode="&#xf376;" horiz-adv-x="281" 
d="M98 0v525h85v-525h-85z" />
    <glyph glyph-name="uniF377" unicode="&#xf377;" horiz-adv-x="297" 
d="M38 653q0 18 12.5 30t30.5 12q16 0 28 -12t12 -30q0 -19 -12 -31.5t-28 -12.5q-18 0 -30.5 12t-12.5 32zM177 653q0 18 13 30t31 12q16 0 28 -12t12 -30q0 -19 -12 -31.5t-28 -12.5q-19 0 -31.5 12t-12.5 32zM106 0v525h85v-525h-85z" />
    <glyph glyph-name="uniF378" unicode="&#xf378;" horiz-adv-x="315" 
d="M231 525v-402q0 -131 -132 -131q-62 0 -93 31l29 65q23 -16 52 -16q59 0 59 65v388h85z" />
    <glyph glyph-name="uniF379" unicode="&#xf379;" horiz-adv-x="839" 
d="M432 0v445h-190l-11 -99q-12 -114 -32.5 -187.5t-49 -108.5t-58.5 -45.5t-72 -4.5l2 85q16 -2 28.5 1.5t29.5 22t30 52.5t25.5 100.5t19.5 158.5l8 105h355v-183q42 3 70 3q105 0 158.5 -44.5t53.5 -123.5q0 -84 -61 -131.5t-170 -47.5q-28 0 -75 1t-61 1zM580 265
q-26 0 -63 -3v-182q38 -2 61 -2q131 0 131 97q0 90 -129 90z" />
    <glyph glyph-name="uniF37A" unicode="&#xf37a;" horiz-adv-x="870" 
d="M84 0v525h85v-200h294v200h85v-196q42 3 70 3q105 0 159 -43t54 -118q0 -80 -61.5 -126.5t-169.5 -46.5q-28 0 -75.5 1t-61.5 1v245h-294v-245h-85zM548 249v-169q40 -2 62 -2q131 0 131 91q0 40 -34 62t-95 22q-29 0 -64 -4z" />
    <glyph glyph-name="uniF37B" unicode="&#xf37b;" horiz-adv-x="630" 
d="M8 445v80h476v-80h-196v-161q53 33 132 33q74 0 122 -40.5t48 -127.5v-149h-85v126q0 111 -104 111q-64 0 -113 -31v-206h-85v445h-195z" />
    <glyph glyph-name="uniF37C" unicode="&#xf37c;" horiz-adv-x="554" 
d="M526 525l-246 -245l259 -280h-116l-247 274l239 251h111zM84 0v525h85v-525h-85zM392 705l-135 -125l-40 44l126 142z" />
    <glyph glyph-name="uniF37E" unicode="&#xf37e;" horiz-adv-x="546" 
d="M536 525l-197 -401q-31 -63 -67 -93.5t-85 -30.5q-42 0 -69 20l30 72q22 -13 43 -13q35 0 61 48l10 18l-251 380h106l189 -296l143 296h87zM128 680h75q0 -65 77 -65q73 0 73 65h75q0 -59 -40 -92t-108 -33q-74 0 -113 32.5t-39 92.5z" />
    <glyph glyph-name="uniF37F" unicode="&#xf37f;" horiz-adv-x="631" 
d="M84 0v525h85v-445h293v445h85v-525h-192v-115h-80v115h-191z" />
    <glyph glyph-name="uniF381" unicode="&#xf381;" horiz-adv-x="515" 
d="M5 387v70h94v68h85v-68h130v-70h-130v-65q42 3 74 3q218 0 218 -158q0 -83 -61.5 -126t-175.5 -43q-28 0 -76.5 1t-63.5 1v387h-94zM251 250q-28 0 -67 -3v-172q40 -2 65 -2q137 0 137 92q0 85 -135 85z" />
    <glyph glyph-name="uniF389" unicode="&#xf389;" horiz-adv-x="655" 
d="M40 262q0 115 81 192.5t207 77.5q124 0 205.5 -75t81.5 -195q0 -118 -81.5 -194.5t-205.5 -76.5q-125 0 -206.5 75t-81.5 196zM224 268q-48 0 -92 -39q12 -69 66.5 -113.5t129.5 -44.5q74 0 125 38.5t66 100.5q-40 -28 -83 -28q-44 0 -111.5 43t-100.5 43zM443 257
q42 0 80 33q-10 72 -64.5 117t-130.5 45q-71 0 -123 -38t-69 -101q44 30 89 30q47 0 115 -43t103 -43z" />
    <glyph glyph-name="uniF38A" unicode="&#xf38a;" horiz-adv-x="541" 
d="M455 369l-149 -371h-64l-241 527h96l180 -410l108 290q31 84 69.5 110.5t106.5 8.5v-69q-35 10 -59.5 -10.5t-46.5 -75.5z" />
    <glyph glyph-name="uniF393" unicode="&#xf393;" horiz-adv-x="432" 
d="M84 0v525h258v90h80v-170h-253v-445h-85z" />
    <glyph glyph-name="uniF3CF" unicode="&#xf3cf;" horiz-adv-x="976" 
d="M555 0h-68l-323 386v-386h-80v525h68l323 -387v387h80v-525zM607 367q0 59 44 95.5t112 36.5q69 0 113 -36.5t44 -95.5t-44 -96t-113 -37q-68 0 -112 37t-44 96zM682 367q0 -31 23.5 -49.5t57.5 -18.5q35 0 58.5 18.5t23.5 49.5q0 30 -23.5 48.5t-58.5 18.5t-58 -18.5
t-23 -48.5zM637 116v75h253v-75h-253z" />
    <glyph glyph-name="uniF3D0" unicode="&#xf3d0;" horiz-adv-x="420" 
d="M60 680h75q0 -65 77 -65q73 0 73 65h75q0 -59 -40 -92t-108 -33q-74 0 -113 32.5t-39 92.5z" />
    <glyph glyph-name="uniF400" unicode="&#xf400;" horiz-adv-x="0" 
d="M-153 674l-120 -143l-48 34l106 157z" />
    <glyph glyph-name="uniF401" unicode="&#xf401;" horiz-adv-x="0" 
d="M-269 819l-202 -84l-23 48l195 104z" />
    <glyph glyph-name="uniF406" unicode="&#xf406;" horiz-adv-x="470" 
d="M60 838l36 42q57 -65 143 -65q85 0 140 65l31 -42q-25 -39 -71 -66t-100 -27q-61 0 -108.5 29t-70.5 64z" />
    <glyph glyph-name="uniF407" unicode="&#xf407;" horiz-adv-x="361" 
d="M60 -169l26 42q40 -28 74 -28q25 0 40.5 9.5t15.5 26.5q0 39 -58 39h-6v80h43v-43q106 -6 106 -80q0 -37 -33 -59.5t-90 -22.5q-64 0 -118 36z" />
    <glyph glyph-name="uniF408" unicode="&#xf408;" horiz-adv-x="469" 
d="M60 778l171 104h4l174 -103l-33 -46l-143 76l-144 -76z" />
    <glyph glyph-name="uniF409" unicode="&#xf409;" horiz-adv-x="246" 
d="M82 -65l75 19q29 -7 29 -49q0 -44 -30 -72t-73 -37l-23 36q46 18 46 62q0 31 -24 41z" />
    <glyph glyph-name="uniF40A" unicode="&#xf40a;" horiz-adv-x="242" 
d="M86 718l67 40q29 -31 29 -82q0 -101 -85 -149l-37 35q47 33 47 97q0 38 -21 59z" />
    <glyph glyph-name="uniF40B" unicode="&#xf40b;" horiz-adv-x="231" 
d="M60 817q0 23 16.5 37t40.5 14q22 0 38 -14t16 -37q0 -25 -16 -39.5t-38 -14.5q-24 0 -40.5 14.5t-16.5 39.5z" />
    <glyph glyph-name="uniF40C" unicode="&#xf40c;" horiz-adv-x="370" 
d="M60 792q0 48 34.5 72t89.5 24q56 0 91 -24t35 -72t-35.5 -74t-90.5 -26q-54 0 -89 26t-35 74zM120 792q0 -27 18 -41t47 -14q28 0 46.5 14t18.5 41q0 51 -65 51t-65 -51z" />
    <glyph glyph-name="uniF40D" unicode="&#xf40d;" horiz-adv-x="467" 
d="M86 761l-26 50q44 47 100 47q31 0 77.5 -20t72.5 -20q45 0 75 32l22 -50q-39 -52 -102 -52q-27 0 -75.5 20t-77.5 20q-33 0 -66 -27z" />
    <glyph glyph-name="uniF40E" unicode="&#xf40e;" horiz-adv-x="328" 
d="M244 -126l24 -49q-30 -25 -86 -25q-50 0 -86 22t-36 70q0 58 61.5 91.5t137.5 32.5v-16q-47 0 -83 -24.5t-36 -57.5q0 -28 19 -40.5t41 -12.5q25 0 44 9z" />
    <glyph glyph-name="uniF410" unicode="&#xf410;" horiz-adv-x="0" 
d="M-332 735l-202 84l30 68l195 -104z" />
    <glyph glyph-name="uniF416" unicode="&#xf416;" horiz-adv-x="246" 
d="M82 -65l75 19q29 -7 29 -49q0 -44 -30 -72t-73 -37l-23 36q46 18 46 62q0 31 -24 41z" />
    <glyph glyph-name="uniF418" unicode="&#xf418;" horiz-adv-x="242" 
d="M86 524l67 40q29 -31 29 -82q0 -101 -85 -149l-37 35q47 33 47 97q0 38 -21 59z" />
    <glyph glyph-name="uniF447" unicode="&#xf447;" horiz-adv-x="492" 
d="M136 -171l24 39q35 -23 71 -23q25 0 40.5 9.5t15.5 26.5q0 39 -58 39h-6v80h-20v445h-195v80h476v-80h-196v-445h-22v-43q101 -6 101 -80q0 -37 -33.5 -59.5t-92.5 -22.5q-54 0 -105 34z" />
    <glyph glyph-name="uniF44E" unicode="&#xf44e;" horiz-adv-x="623" 
d="M39 307h453q-10 68 -63 106.5t-134 38.5q-84 0 -142 -41l-33 64q73 57 184 57q128 0 204 -73.5t76 -196.5q0 -122 -77 -196.5t-202 -74.5q-132 0 -206 85.5t-60 230.5zM304 71q87 0 136 42.5t55 113.5h-368q1 -66 49.5 -111t127.5 -45z" />
    <glyph glyph-name="uniF639" unicode="&#xf639;" 
d="M69 350q0 165 56.5 261.5t170.5 96.5t170.5 -96.5t56.5 -261.5q0 -166 -55.5 -262t-169.5 -96t-171.5 96.5t-57.5 261.5zM154 350q0 -283 144 -283q74 0 107 71t33 212q0 140 -34 211.5t-108 71.5q-142 0 -142 -283z" />
    <glyph glyph-name="uniF63A" unicode="&#xf63a;" 
d="M84 0v65q142 140 200 212q113 141 113 238q0 49 -29.5 81t-84.5 32q-45 0 -80 -29t-45 -83l-68 28q12 76 68 120t132 44q92 0 142 -52.5t50 -124.5q0 -68 -35.5 -143.5t-93.5 -143t-92.5 -102t-72.5 -67.5h323v-75h-427z" />
    <glyph glyph-name="uniF63B" unicode="&#xf63b;" 
d="M289 -10q-74 0 -129.5 31t-82.5 89l46 57q25 -47 69 -72t94 -25q64 0 101 35.5t37 90.5q0 56 -39.5 89t-103.5 33h-55v80h50q48 0 84.5 34.5t36.5 86.5t-30.5 81.5t-83.5 29.5q-94 0 -144 -87l-45 55q24 53 75.5 82.5t119.5 29.5q88 0 140.5 -47.5t52.5 -129.5
q0 -58 -28 -102t-81 -66v-3q63 -10 99.5 -57.5t36.5 -111.5q0 -92 -62 -147.5t-158 -55.5z" />
    <glyph glyph-name="uniF63C" unicode="&#xf63c;" 
d="M372 0v175h-323v57l290 468h92l-277 -445h218v195h80v-195h97v-80h-97v-175h-80z" />
    <glyph glyph-name="uniF63D" unicode="&#xf63d;" 
d="M135 348l44 352h316v-80h-246l-26 -189q26 7 56 7q97 0 159 -59.5t62 -157.5q0 -105 -66 -168t-162 -63q-60 0 -115.5 27t-85.5 79l46 59q25 -40 68.5 -62.5t88.5 -22.5q60 0 100.5 42t40.5 106t-46.5 106t-123.5 42q-64 0 -110 -18z" />
    <glyph glyph-name="uniF63E" unicode="&#xf63e;" 
d="M60 248q0 92 31 174.5t81.5 140t109 95.5t118.5 52l33 -61q-100 -26 -178.5 -107t-100.5 -204q49 93 165 93q87 0 143.5 -60t56.5 -155q0 -99 -65 -162.5t-151 -63.5q-113 0 -178 74.5t-65 183.5zM145 248q0 -76 41 -127t116 -51q57 0 94.5 41.5t37.5 98.5q0 64 -37 105
t-105 41q-56 0 -94.5 -32.5t-52.5 -75.5z" />
    <glyph glyph-name="uniF63F" unicode="&#xf63f;" 
d="M93 620v80h420v-52l-258 -648h-88l249 620h-323z" />
    <glyph glyph-name="uniF640" unicode="&#xf640;" 
d="M284 400h26q45 0 78.5 34t33.5 81q0 53 -37 84t-90 31t-88.5 -32t-35.5 -83q0 -47 33.5 -81t79.5 -34zM309 320h-22q-57 0 -97.5 -35t-40.5 -89q0 -55 41.5 -90.5t105.5 -35.5q67 0 107.5 34.5t40.5 91.5q-1 57 -39.5 90.5t-95.5 33.5zM297 -10q-98 0 -165.5 52
t-67.5 139q0 64 36.5 112t95.5 65v3q-47 16 -78.5 62.5t-31.5 103.5q0 81 60.5 132t149.5 51t150 -51t61 -132q0 -52 -31 -98t-84 -67v-3q59 -10 98 -57t39 -115q0 -91 -67 -144t-165 -53z" />
    <glyph glyph-name="uniF641" unicode="&#xf641;" 
d="M529 447q0 -193 -98.5 -315.5t-251.5 -141.5l-27 63q118 23 192.5 101.5t90.5 201.5q-47 -87 -158 -87q-91 0 -150 61.5t-59 153.5q0 99 68 162.5t155 63.5q113 0 175.5 -73.5t62.5 -189.5zM444 447q0 77 -39 130t-113 53q-57 0 -98 -41.5t-41 -98.5q0 -61 38.5 -103.5
t105.5 -42.5q57 0 95 30.5t52 72.5z" />
    <glyph glyph-name="uniF643" unicode="&#xf643;" 
d="M36 250q0 107 71 183.5t189 76.5t189 -76.5t71 -183.5t-71 -183.5t-189 -76.5t-189 76.5t-71 183.5zM121 250q0 -75 48 -127.5t127 -52.5q80 0 127.5 52t47.5 128q0 77 -48 128.5t-127 51.5t-127 -51.5t-48 -128.5z" />
    <glyph glyph-name="uniF644" unicode="&#xf644;" 
d="M134 405l162 103h55v-508h-85v405l-105 -71z" />
    <glyph glyph-name="uniF645" unicode="&#xf645;" 
d="M84 0v60q313 129 313 261q0 49 -29 79.5t-82 30.5q-46 0 -84 -27t-52 -79l-53 49q17 62 72 99.5t119 37.5q95 0 142 -48t47 -124q0 -48 -23 -93.5t-57.5 -78t-67 -54.5t-60.5 -33h242v-80h-427z" />
    <glyph glyph-name="uniF646" unicode="&#xf646;" horiz-adv-x="532" 
d="M247 -210q-74 0 -129.5 31t-82.5 89l46 57q25 -47 69 -72t94 -25q64 0 101 35.5t37 90.5q0 56 -39.5 89t-103.5 33h-55v80h50q48 0 84.5 34.5t36.5 86.5t-30.5 81.5t-83.5 29.5q-94 0 -144 -87l-45 55q24 53 75.5 82.5t119.5 29.5q88 0 140.5 -47.5t52.5 -129.5
q0 -58 -28 -102t-81 -66v-3q63 -10 99.5 -57.5t36.5 -111.5q0 -92 -62 -147.5t-158 -55.5z" />
    <glyph glyph-name="uniF647" unicode="&#xf647;" 
d="M372 -200v200h-323v57l277 443h92l-264 -420h218v195h80v-195h97v-80h-97v-200h-80z" />
    <glyph glyph-name="uniF648" unicode="&#xf648;" 
d="M135 148l44 352h316v-80h-246l-26 -189q26 7 56 7q97 0 159 -59.5t62 -157.5q0 -105 -66 -168t-162 -63q-60 0 -115.5 27t-85.5 79l46 59q25 -40 68.5 -62.5t88.5 -22.5q60 0 100.5 42t40.5 106t-46.5 106t-123.5 42q-64 0 -110 -18z" />
    <glyph glyph-name="uniF649" unicode="&#xf649;" 
d="M60 248q0 92 31 174.5t81.5 140t109 95.5t118.5 52l33 -61q-100 -26 -178.5 -107t-100.5 -204q49 93 165 93q87 0 143.5 -60t56.5 -155q0 -99 -65 -162.5t-151 -63.5q-113 0 -178 74.5t-65 183.5zM145 248q0 -76 41 -127t116 -51q57 0 94.5 41.5t37.5 98.5q0 64 -37 105
t-105 41q-56 0 -94.5 -32.5t-52.5 -75.5z" />
    <glyph glyph-name="uniF64A" unicode="&#xf64a;" 
d="M93 420v80h420v-52l-258 -648h-88l249 620h-323z" />
    <glyph glyph-name="uniF64B" unicode="&#xf64b;" 
d="M284 400h26q45 0 78.5 34t33.5 81q0 53 -37 84t-90 31t-88.5 -32t-35.5 -83q0 -47 33.5 -81t79.5 -34zM309 320h-22q-57 0 -97.5 -35t-40.5 -89q0 -55 41.5 -90.5t105.5 -35.5q67 0 107.5 34.5t40.5 91.5q-1 57 -39.5 90.5t-95.5 33.5zM297 -10q-98 0 -165.5 52
t-67.5 139q0 64 36.5 112t95.5 65v3q-47 16 -78.5 62.5t-31.5 103.5q0 81 60.5 132t149.5 51t150 -51t61 -132q0 -52 -31 -98t-84 -67v-3q59 -10 98 -57t39 -115q0 -91 -67 -144t-165 -53z" />
    <glyph glyph-name="uniF64C" unicode="&#xf64c;" 
d="M529 247q0 -193 -98.5 -315.5t-251.5 -141.5l-27 63q118 23 192.5 101.5t90.5 201.5q-47 -87 -158 -87q-91 0 -150 61.5t-59 153.5q0 99 68 162.5t155 63.5q113 0 175.5 -73.5t62.5 -189.5zM444 247q0 77 -39 130t-113 53q-57 0 -98 -41.5t-41 -98.5q0 -61 38.5 -103.5
t105.5 -42.5q57 0 95 30.5t52 72.5z" />
    <glyph glyph-name="uniF66D" unicode="&#xf66d;" horiz-adv-x="590" 
d="M12 0l246 528h74l246 -528h-91l-64 140h-261l-64 -140h-86zM293 426l-95 -206h189zM147 685l37 41q51 -61 114 -61q65 0 115 60l29 -39q-62 -86 -147 -86q-93 0 -148 85z" />
    <glyph glyph-name="uniF66E" unicode="&#xf66e;" horiz-adv-x="590" 
d="M12 0l246 528h74l246 -528h-91l-64 140h-261l-64 -140h-86zM293 426l-95 -206h189zM163 625v65h264v-65h-264z" />
    <glyph glyph-name="uniF66F" unicode="&#xf66f;" horiz-adv-x="590" 
d="M547 -126l24 -49q-30 -25 -86 -25q-50 0 -86 22t-36 70q0 43 34 72t87 42l-61 134h-261l-64 -140h-86l246 528h74l246 -528h-16q-47 0 -83 -24.5t-36 -57.5q0 -28 19 -40.5t41 -12.5q25 0 44 9zM293 426l-95 -206h189z" />
    <glyph glyph-name="uniF671" unicode="&#xf671;" horiz-adv-x="542" 
d="M481 114l33 -64q-28 -27 -78 -43t-105 -16q-131 0 -211 74t-80 197q0 115 76 192.5t211 77.5q109 0 176 -52l-39 -64q-61 36 -137 36q-88 0 -142.5 -52t-54.5 -138t57 -138.5t152 -52.5q82 0 142 43zM428 705l-135 -125l-40 44l126 142z" />
    <glyph glyph-name="uniF672" unicode="&#xf672;" horiz-adv-x="542" 
d="M481 114l33 -64q-28 -27 -78 -43t-105 -16q-131 0 -211 74t-80 197q0 115 76 192.5t211 77.5q109 0 176 -52l-39 -64q-61 36 -137 36q-88 0 -142.5 -52t-54.5 -138t57 -138.5t152 -52.5q82 0 142 43zM310 579l-145 118l39 48l109 -89l109 88l37 -47l-145 -118h-4z" />
    <glyph glyph-name="uniF673" unicode="&#xf673;" horiz-adv-x="542" 
d="M481 114l33 -64q-28 -27 -78 -43t-105 -16q-131 0 -211 74t-80 197q0 115 76 192.5t211 77.5q109 0 176 -52l-39 -64q-61 36 -137 36q-88 0 -142.5 -52t-54.5 -138t57 -138.5t152 -52.5q82 0 142 43zM316 742l149 -118l-38 -48l-113 89l-115 -88l-38 47l151 118h4z" />
    <glyph glyph-name="uniF674" unicode="&#xf674;" horiz-adv-x="542" 
d="M481 114l33 -64q-28 -27 -78 -43t-105 -16q-131 0 -211 74t-80 197q0 115 76 192.5t211 77.5q109 0 176 -52l-39 -64q-61 36 -137 36q-88 0 -142.5 -52t-54.5 -138t57 -138.5t152 -52.5q82 0 142 43zM258 664q0 21 15 34.5t37 13.5q20 0 34.5 -13.5t14.5 -34.5
q0 -24 -14.5 -38t-34.5 -14q-22 0 -37 14t-15 38z" />
    <glyph glyph-name="uniF675" unicode="&#xf675;" horiz-adv-x="611" 
d="M84 0v525h10q18 0 74 1t79 1q165 0 244.5 -71.5t79.5 -187.5q0 -120 -85.5 -195t-244.5 -75q-17 0 -68.5 1t-78.5 1h-10zM246 447q-25 0 -77 -2v-365q66 -2 75 -2q113 0 175 51t62 139q0 83 -59.5 131t-175.5 48zM274 579l-145 118l39 48l109 -89l109 88l37 -47
l-145 -118h-4z" />
    <glyph glyph-name="uniF676" unicode="&#xf676;" horiz-adv-x="621" 
d="M8 229v75h85v221h10q16 0 75 1t89 1q157 0 235.5 -73t78.5 -186q0 -116 -83.5 -193t-231.5 -77q-27 0 -82.5 1t-80.5 1h-10v229h-85zM269 447q-13 0 -91 -3v-140h151v-75h-151v-149q66 -2 82 -2q110 0 170.5 51.5t60.5 138.5q0 83 -57.5 131t-164.5 48z" />
    <glyph glyph-name="uniF678" unicode="&#xf678;" horiz-adv-x="488" 
d="M84 0v525h340v-80h-255v-140h230v-80h-230v-145h263v-80h-348zM254 579l-145 118l39 48l109 -89l109 88l37 -47l-145 -118h-4z" />
    <glyph glyph-name="uniF679" unicode="&#xf679;" horiz-adv-x="488" 
d="M84 0v525h340v-80h-255v-140h230v-80h-230v-145h263v-80h-348zM202 664q0 21 15 34.5t37 13.5q20 0 34.5 -13.5t14.5 -34.5q0 -24 -14.5 -38t-34.5 -14q-22 0 -37 14t-15 38z" />
    <glyph glyph-name="uniF67A" unicode="&#xf67a;" horiz-adv-x="488" 
d="M84 0v525h340v-80h-255v-140h230v-80h-230v-145h263v-80h-348zM119 625v65h264v-65h-264z" />
    <glyph glyph-name="uniF67C" unicode="&#xf67c;" horiz-adv-x="488" 
d="M84 0v525h340v-80h-255v-140h230v-80h-230v-145h263v-80h-8q-46 -2 -80 -25.5t-34 -56.5q0 -28 19 -40.5t41 -12.5q25 0 44 9l24 -49q-30 -25 -86 -25q-50 0 -86 22t-36 70q0 74 98 108h-244z" />
    <glyph glyph-name="uniF67D" unicode="&#xf67d;" horiz-adv-x="601" 
d="M325 203v75h228v-214q-37 -33 -98.5 -53t-117.5 -20q-137 0 -217 73.5t-80 197.5q0 115 79 192.5t207 77.5q108 0 184 -52l-37 -67q-55 39 -137 39q-92 0 -149 -51t-57 -139q0 -87 57.5 -139t151.5 -52q86 0 134 39v93h-148zM165 685l37 41q51 -61 114 -61q65 0 115 60
l29 -39q-62 -86 -147 -86q-93 0 -148 85z" />
    <glyph glyph-name="uniF67E" unicode="&#xf67e;" horiz-adv-x="601" 
d="M325 203v75h228v-214q-37 -33 -98.5 -53t-117.5 -20q-137 0 -217 73.5t-80 197.5q0 115 79 192.5t207 77.5q108 0 184 -52l-37 -67q-55 39 -137 39q-92 0 -149 -51t-57 -139q0 -87 57.5 -139t151.5 -52q86 0 134 39v93h-148zM326 742l149 -118l-38 -48l-113 89l-115 -88
l-38 47l151 118h4z" />
    <glyph glyph-name="uniF67F" unicode="&#xf67f;" horiz-adv-x="601" 
d="M325 203v75h228v-214q-37 -33 -98.5 -53t-117.5 -20q-137 0 -217 73.5t-80 197.5q0 115 79 192.5t207 77.5q108 0 184 -52l-37 -67q-55 39 -137 39q-92 0 -149 -51t-57 -139q0 -87 57.5 -139t151.5 -52q86 0 134 39v93h-148zM277 -65l75 19q29 -7 29 -49q0 -44 -30 -72
t-73 -37l-23 36q46 18 46 62q0 31 -24 41z" />
    <glyph glyph-name="uniF680" unicode="&#xf680;" horiz-adv-x="601" 
d="M325 203v75h228v-214q-37 -33 -98.5 -53t-117.5 -20q-137 0 -217 73.5t-80 197.5q0 115 79 192.5t207 77.5q108 0 184 -52l-37 -67q-55 39 -137 39q-92 0 -149 -51t-57 -139q0 -87 57.5 -139t151.5 -52q86 0 134 39v93h-148zM268 664q0 21 15 34.5t37 13.5
q20 0 34.5 -13.5t14.5 -34.5q0 -24 -14.5 -38t-34.5 -14q-22 0 -37 14t-15 38z" />
    <glyph glyph-name="uniF681" unicode="&#xf681;" horiz-adv-x="640" 
d="M30 382v75h54v68h85v-68h302v68h85v-68h54v-75h-54v-382h-85v228h-302v-228h-85v382h-54zM169 308h302v74h-302v-74z" />
    <glyph glyph-name="uniF682" unicode="&#xf682;" horiz-adv-x="640" 
d="M471 0v228h-302v-228h-85v525h85v-217h302v217h85v-525h-85zM322 742l149 -118l-38 -48l-113 89l-115 -88l-38 47l151 118h4z" />
    <glyph glyph-name="uniF685" unicode="&#xf685;" horiz-adv-x="281" 
d="M98 0v525h85v-525h-85zM8 625v65h264v-65h-264z" />
    <glyph glyph-name="uniF686" unicode="&#xf686;" horiz-adv-x="281" 
d="M162 -126l24 -49q-30 -25 -86 -25q-50 0 -86 22t-36 70q0 43 33.5 72t86.5 42v519h85v-525h-6q-47 0 -83 -24.5t-36 -57.5q0 -28 19 -40.5t41 -12.5q25 0 44 9z" />
    <glyph glyph-name="uniF688" unicode="&#xf688;" horiz-adv-x="315" 
d="M231 525v-402q0 -131 -132 -131q-62 0 -93 31l29 65q23 -16 52 -16q59 0 59 65v388h85zM185 742l149 -118l-38 -48l-113 89l-115 -88l-38 47l151 118h4z" />
    <glyph glyph-name="uniF689" unicode="&#xf689;" horiz-adv-x="554" 
d="M526 525l-246 -245l259 -280h-116l-247 274l239 251h111zM84 0v525h85v-525h-85zM216 -65l75 19q29 -7 29 -49q0 -44 -30 -72t-73 -37l-23 36q46 18 46 62q0 31 -24 41z" />
    <glyph glyph-name="uniF68A" unicode="&#xf68a;" horiz-adv-x="459" 
d="M84 0v525h85v-440h272v-85h-357zM327 705l-135 -125l-40 44l126 142z" />
    <glyph glyph-name="uniF68B" unicode="&#xf68b;" horiz-adv-x="459" 
d="M84 0v525h85v-440h272v-85h-357zM301 525h78q8 -16 8 -38q0 -56 -25 -95t-61 -58l-36 35q47 40 47 109q0 27 -11 47z" />
    <glyph glyph-name="uniF68C" unicode="&#xf68c;" horiz-adv-x="459" 
d="M84 0v525h85v-440h272v-85h-357zM216 -65l75 19q29 -7 29 -49q0 -44 -30 -72t-73 -37l-23 36q46 18 46 62q0 31 -24 41z" />
    <glyph glyph-name="uniF68D" unicode="&#xf68d;" horiz-adv-x="459" 
d="M84 0v525h85v-440h272v-85h-357zM302 299q0 21 16 37t41 16q22 0 37.5 -16.5t15.5 -36.5q0 -23 -15 -40t-38 -17q-25 0 -41 17t-16 40z" />
    <glyph glyph-name="uniF68E" unicode="&#xf68e;" horiz-adv-x="656" 
d="M572 0h-69l-339 386v-386h-80v525h68l340 -387v387h80v-525zM452 705l-135 -125l-40 44l126 142z" />
    <glyph glyph-name="uniF68F" unicode="&#xf68f;" horiz-adv-x="656" 
d="M572 0h-69l-339 386v-386h-80v525h68l340 -387v387h80v-525zM325 579l-145 118l39 48l109 -89l109 88l37 -47l-145 -118h-4z" />
    <glyph glyph-name="uniF690" unicode="&#xf690;" horiz-adv-x="656" 
d="M572 0h-69l-339 386v-386h-80v525h68l340 -387v387h80v-525zM271 -65l75 19q29 -7 29 -49q0 -44 -30 -72t-73 -37l-23 36q46 18 46 62q0 31 -24 41z" />
    <glyph glyph-name="uniF692" unicode="&#xf692;" horiz-adv-x="655" 
d="M40 262q0 115 81 192.5t207 77.5q124 0 205.5 -75t81.5 -195q0 -118 -81.5 -194.5t-205.5 -76.5q-125 0 -206.5 75t-81.5 196zM130 262q0 -81 57 -136t141 -55q90 0 143.5 54t53.5 137t-56.5 136.5t-140.5 53.5q-85 0 -141.5 -53.5t-56.5 -136.5zM531 716l-142 -134
l-37 29l120 150zM364 725l-119 -143l-42 28l103 158z" />
    <glyph glyph-name="uniF693" unicode="&#xf693;" horiz-adv-x="655" 
d="M40 262q0 115 81 192.5t207 77.5q124 0 205.5 -75t81.5 -195q0 -118 -81.5 -194.5t-205.5 -76.5q-125 0 -206.5 75t-81.5 196zM130 262q0 -81 57 -136t141 -55q90 0 143.5 54t53.5 137t-56.5 136.5t-140.5 53.5q-85 0 -141.5 -53.5t-56.5 -136.5zM196 625v65h264v-65
h-264z" />
    <glyph glyph-name="uniF695" unicode="&#xf695;" horiz-adv-x="534" 
d="M169 0h-85v525q15 0 74 1t82 1q216 0 216 -166q0 -62 -32.5 -100.5t-79.5 -50.5l170 -210h-108l-149 190h-88v-190zM244 447q-39 0 -75 -2v-175h81q48 0 82 24.5t34 65.5q0 38 -28.5 62.5t-93.5 24.5zM367 705l-135 -125l-40 44l126 142z" />
    <glyph glyph-name="uniF696" unicode="&#xf696;" horiz-adv-x="534" 
d="M169 0h-85v525q15 0 74 1t82 1q216 0 216 -166q0 -62 -32.5 -100.5t-79.5 -50.5l170 -210h-108l-149 190h-88v-190zM244 447q-39 0 -75 -2v-175h81q48 0 82 24.5t34 65.5q0 38 -28.5 62.5t-93.5 24.5zM239 579l-145 118l39 48l109 -89l109 88l37 -47l-145 -118h-4z" />
    <glyph glyph-name="uniF697" unicode="&#xf697;" horiz-adv-x="534" 
d="M169 0h-85v525q15 0 74 1t82 1q216 0 216 -166q0 -62 -32.5 -100.5t-79.5 -50.5l170 -210h-108l-149 190h-88v-190zM244 447q-39 0 -75 -2v-175h81q48 0 82 24.5t34 65.5q0 38 -28.5 62.5t-93.5 24.5zM216 -65l75 19q29 -7 29 -49q0 -44 -30 -72t-73 -37l-23 36
q46 18 46 62q0 31 -24 41z" />
    <glyph glyph-name="uniF698" unicode="&#xf698;" horiz-adv-x="485" 
d="M355 143q0 25 -22.5 43.5t-56 29t-72.5 24.5t-72.5 30t-56 46.5t-22.5 72.5q0 63 49.5 103t149.5 40q48 0 102.5 -19.5t80.5 -47.5l-39 -63q-27 22 -70 36t-78 14q-49 0 -77 -18t-28 -49q0 -28 31 -47t75.5 -31.5t89 -29.5t75.5 -52t31 -87q0 -66 -56 -106.5t-141 -40.5
q-66 0 -125.5 22.5t-88.5 60.5l49 58q27 -27 74.5 -44t95.5 -17q43 0 72.5 19t29.5 53zM372 705l-135 -125l-40 44l126 142z" />
    <glyph glyph-name="uniF699" unicode="&#xf699;" horiz-adv-x="485" 
d="M132 -171l24 39q35 -23 71 -23q25 0 40.5 9.5t15.5 26.5q0 39 -58 39h-6v72q-59 5 -109.5 26.5t-75.5 55.5l49 58q27 -27 74.5 -44t95.5 -17q43 0 72.5 19t29.5 53q0 25 -22.5 43.5t-56 29t-72.5 24.5t-72.5 30t-56 46.5t-22.5 72.5q0 63 49.5 103t149.5 40
q48 0 102.5 -19.5t80.5 -47.5l-39 -63q-27 22 -70 36t-78 14q-49 0 -77 -18t-28 -49q0 -28 31 -47t75.5 -31.5t89 -29.5t75.5 -52t31 -87q0 -63 -51.5 -103t-131.5 -43v-35q101 -6 101 -80q0 -37 -33.5 -59.5t-92.5 -22.5q-54 0 -105 34z" />
    <glyph glyph-name="uniF69A" unicode="&#xf69a;" horiz-adv-x="485" 
d="M355 143q0 25 -22.5 43.5t-56 29t-72.5 24.5t-72.5 30t-56 46.5t-22.5 72.5q0 63 49.5 103t149.5 40q48 0 102.5 -19.5t80.5 -47.5l-39 -63q-27 22 -70 36t-78 14q-49 0 -77 -18t-28 -49q0 -28 31 -47t75.5 -31.5t89 -29.5t75.5 -52t31 -87q0 -66 -56 -106.5t-141 -40.5
q-66 0 -125.5 22.5t-88.5 60.5l49 58q27 -27 74.5 -44t95.5 -17q43 0 72.5 19t29.5 53zM245 742l149 -118l-38 -48l-113 89l-115 -88l-38 47l151 118h4z" />
    <glyph glyph-name="uniF69B" unicode="&#xf69b;" horiz-adv-x="485" 
d="M355 143q0 25 -22.5 43.5t-56 29t-72.5 24.5t-72.5 30t-56 46.5t-22.5 72.5q0 63 49.5 103t149.5 40q48 0 102.5 -19.5t80.5 -47.5l-39 -63q-27 22 -70 36t-78 14q-49 0 -77 -18t-28 -49q0 -28 31 -47t75.5 -31.5t89 -29.5t75.5 -52t31 -87q0 -66 -56 -106.5t-141 -40.5
q-66 0 -125.5 22.5t-88.5 60.5l49 58q27 -27 74.5 -44t95.5 -17q43 0 72.5 19t29.5 53zM201 -65l75 19q29 -7 29 -49q0 -44 -30 -72t-73 -37l-23 36q46 18 46 62q0 31 -24 41z" />
    <glyph glyph-name="uniF69D" unicode="&#xf69d;" horiz-adv-x="492" 
d="M8 445v80h476v-80h-196v-445h-85v445h-195zM244 579l-145 118l39 48l109 -89l109 88l37 -47l-145 -118h-4z" />
    <glyph glyph-name="uniF69E" unicode="&#xf69e;" horiz-adv-x="492" 
d="M8 445v80h476v-80h-196v-445h-85v445h-195zM201 -65l75 19q29 -7 29 -49q0 -44 -30 -72t-73 -37l-23 36q46 18 46 62q0 31 -24 41z" />
    <glyph glyph-name="uniF69F" unicode="&#xf69f;" horiz-adv-x="620" 
d="M544 525v-307q0 -113 -64.5 -169.5t-162.5 -56.5q-109 0 -175.5 60t-66.5 171v302h85v-285q0 -77 40.5 -122.5t116.5 -45.5q69 0 105.5 42t36.5 121v290h85zM162 685l37 41q51 -61 114 -61q65 0 115 60l29 -39q-62 -86 -147 -86q-93 0 -148 85z" />
    <glyph glyph-name="uniF6A0" unicode="&#xf6a0;" horiz-adv-x="620" 
d="M544 525v-307q0 -113 -64.5 -169.5t-162.5 -56.5q-109 0 -175.5 60t-66.5 171v302h85v-285q0 -77 40.5 -122.5t116.5 -45.5q69 0 105.5 42t36.5 121v290h85zM515 716l-142 -134l-37 29l120 150zM348 725l-119 -143l-42 28l103 158z" />
    <glyph glyph-name="uniF6A1" unicode="&#xf6a1;" horiz-adv-x="620" 
d="M544 525v-307q0 -113 -64.5 -169.5t-162.5 -56.5q-109 0 -175.5 60t-66.5 171v302h85v-285q0 -77 40.5 -122.5t116.5 -45.5q69 0 105.5 42t36.5 121v290h85zM178 625v65h264v-65h-264z" />
    <glyph glyph-name="uniF6A2" unicode="&#xf6a2;" horiz-adv-x="620" 
d="M544 525v-307q0 -161 -132 -210q-77 -45 -77 -90q0 -28 19 -40.5t41 -12.5q25 0 44 9l24 -49q-30 -25 -86 -25q-50 0 -86 22t-36 70q0 36 23.5 59t65.5 42q-9 -1 -27 -1q-109 0 -175.5 60t-66.5 171v302h85v-285q0 -77 40.5 -122.5t116.5 -45.5q69 0 105.5 42t36.5 121
v290h85z" />
    <glyph glyph-name="uniF6A3" unicode="&#xf6a3;" horiz-adv-x="620" 
d="M544 525v-307q0 -113 -64.5 -169.5t-162.5 -56.5q-109 0 -175.5 60t-66.5 171v302h85v-285q0 -77 40.5 -122.5t116.5 -45.5q69 0 105.5 42t36.5 121v290h85zM195 653q0 46 33 78.5t81 32.5q49 0 82.5 -32.5t33.5 -78.5q0 -45 -33.5 -77t-82.5 -32q-48 0 -81 32t-33 77z
M247 654q0 -27 18 -46t45 -19t45 19t18 46t-18 46t-45 19t-45 -19t-18 -46z" />
    <glyph glyph-name="uniF6AB" unicode="&#xf6ab;" horiz-adv-x="526" 
d="M49 445v80h436v-58l-328 -387h336v-80h-460v58l327 387h-311zM387 705l-135 -125l-40 44l126 142z" />
    <glyph glyph-name="uniF6AC" unicode="&#xf6ac;" horiz-adv-x="526" 
d="M49 445v80h436v-58l-328 -387h336v-80h-460v58l327 387h-311zM212 664q0 21 15 34.5t37 13.5q20 0 34.5 -13.5t14.5 -34.5q0 -24 -14.5 -38t-34.5 -14q-22 0 -37 14t-15 38z" />
    <glyph glyph-name="uniF6AD" unicode="&#xf6ad;" horiz-adv-x="281" 
d="M98 0v525h85v-525h-85zM90 664q0 21 15 34.5t37 13.5q20 0 34.5 -13.5t14.5 -34.5q0 -24 -14.5 -38t-34.5 -14q-22 0 -37 14t-15 38z" />
    <glyph glyph-name="uniF6BA" unicode="&#xf6ba;" horiz-adv-x="389" 
d="M75 316v75h239v-75h-239z" />
    <glyph glyph-name="uniF6BB" unicode="&#xf6bb;" horiz-adv-x="594" 
d="M90 319v70h414v-70h-414z" />
    <glyph glyph-name="uniF6BC" unicode="&#xf6bc;" horiz-adv-x="804" 
d="M90 319v70h624v-70h-624z" />
    <glyph glyph-name="uniF6C3" unicode="&#xf6c3;" horiz-adv-x="246" 
d="M82 -65l75 19q29 -7 29 -49q0 -44 -30 -72t-73 -37l-23 36q46 18 46 62q0 31 -24 41z" />
    <glyph glyph-name="uniF6C9" unicode="&#xf6c9;" horiz-adv-x="345" 
d="M285 819l-202 -84l-23 48l195 104z" />
    <glyph glyph-name="uniF6CA" unicode="&#xf6ca;" horiz-adv-x="470" 
d="M235 738l-175 103l33 46l144 -81l143 81l30 -45l-171 -104h-4z" />
    <glyph glyph-name="uniF6CB" unicode="&#xf6cb;" horiz-adv-x="459" 
d="M60 813q0 20 16 32.5t39 12.5q21 0 36.5 -12.5t15.5 -32.5q0 -22 -15.5 -35t-36.5 -13q-24 0 -39.5 13t-15.5 35zM292 813q0 20 16.5 32.5t39.5 12.5q21 0 36 -12t15 -33q0 -22 -15 -35t-36 -13q-24 0 -40 13t-16 35z" />
    <glyph glyph-name="uniF6CE" unicode="&#xf6ce;" horiz-adv-x="345" 
d="M262 735l-202 84l30 68l195 -104z" />
    <glyph glyph-name="uniF6CF" unicode="&#xf6cf;" horiz-adv-x="510" 
d="M450 836l-179 -101l-33 35l157 117zM255 851l-161 -116l-34 32l128 120z" />
    <glyph glyph-name="uniF6D0" unicode="&#xf6d0;" horiz-adv-x="424" 
d="M60 770v65h304v-65h-304z" />
    <glyph glyph-name="uniF6D1" unicode="&#xf6d1;" horiz-adv-x="490" 
d="M60 860h80q24 -65 107 -65q88 0 103 65h80q-7 -56 -58.5 -90.5t-124.5 -34.5q-77 0 -127.5 34.5t-59.5 90.5z" />
    <glyph glyph-name="uniF6D4" unicode="&#xf6d4;" horiz-adv-x="420" 
d="M60 680h75q6 -79 77 -79q67 0 73 79h75q0 -60 -41 -100t-107 -40q-72 0 -112 39t-40 101z" />
    <glyph glyph-name="uniF6DC" unicode="&#xf6dc;" 
d="M134 574l168 130h56v-704h-80v589l-102 -80z" />
    <glyph glyph-name="uniF6DE" unicode="&#xf6de;" horiz-adv-x="603" 
d="M67 235v70h468v-70h-468z" />
    <glyph glyph-name="uniF6F4" unicode="&#xf6f4;" horiz-adv-x="415" 
d="M60 685l37 41q51 -61 114 -61q65 0 115 60l29 -39q-62 -86 -147 -86q-93 0 -148 85z" />
    <glyph glyph-name="uniF6F5" unicode="&#xf6f5;" horiz-adv-x="414" 
d="M205 579l-145 118l39 48l109 -89l109 88l37 -47l-145 -118h-4z" />
    <glyph glyph-name="uniF6F6" unicode="&#xf6f6;" horiz-adv-x="424" 
d="M215 742l149 -118l-38 -48l-113 89l-115 -88l-38 47l151 118h4z" />
    <glyph glyph-name="uniF6F7" unicode="&#xf6f7;" horiz-adv-x="221" 
d="M60 664q0 21 15 34.5t37 13.5q20 0 34.5 -13.5t14.5 -34.5q0 -24 -14.5 -38t-34.5 -14q-22 0 -37 14t-15 38z" />
    <glyph glyph-name="uniF6F8" unicode="&#xf6f8;" horiz-adv-x="448" 
d="M388 716l-142 -134l-37 29l120 150zM221 725l-119 -143l-42 28l103 158z" />
    <glyph glyph-name="uniF6F9" unicode="&#xf6f9;" horiz-adv-x="459" 
d="M20 154v83l64 30v258h85v-217l111 53v-82l-111 -53v-141h272v-85h-357v185z" />
    <glyph glyph-name="uniF6FA" unicode="&#xf6fa;" horiz-adv-x="861" 
d="M457 0v24q-63 -33 -136 -33q-125 0 -203.5 74.5t-78.5 196.5q0 117 75.5 193.5t205.5 76.5q76 0 137 -32v25h340v-80h-255v-140h230v-80h-230v-145h263v-80h-348zM328 71q74 0 129 39v303q-51 39 -131 39q-88 0 -142.5 -52t-54.5 -138q0 -85 55.5 -138t143.5 -53z" />
    <glyph glyph-name="uniF6FB" unicode="&#xf6fb;" horiz-adv-x="328" 
d="M244 -126l24 -49q-30 -25 -86 -25q-50 0 -86 22t-36 70q0 58 61.5 91.5t137.5 32.5v-16q-47 0 -83 -24.5t-36 -57.5q0 -28 19 -40.5t41 -12.5q25 0 44 9z" />
    <glyph glyph-name="uniF6FC" unicode="&#xf6fc;" horiz-adv-x="350" 
d="M60 653q0 46 33 78.5t81 32.5q49 0 82.5 -32.5t33.5 -78.5q0 -45 -33.5 -77t-82.5 -32q-48 0 -81 32t-33 77zM112 654q0 -27 18 -46t45 -19t45 19t18 46t-18 46t-45 19t-45 -19t-18 -46z" />
    <glyph glyph-name="uniF6FD" unicode="&#xf6fd;" horiz-adv-x="485" 
d="M355 143q0 25 -22.5 43.5t-56 29t-72.5 24.5t-72.5 30t-56 46.5t-22.5 72.5q0 63 49.5 103t149.5 40q48 0 102.5 -19.5t80.5 -47.5l-39 -63q-27 22 -70 36t-78 14q-49 0 -77 -18t-28 -49q0 -28 31 -47t75.5 -31.5t89 -29.5t75.5 -52t31 -87q0 -66 -56 -106.5t-141 -40.5
q-66 0 -125.5 22.5t-88.5 60.5l49 58q27 -27 74.5 -44t95.5 -17q43 0 72.5 19t29.5 53zM239 579l-145 118l39 48l109 -89l109 88l37 -47l-145 -118h-4z" />
    <glyph glyph-name="uniF6FE" unicode="&#xf6fe;" horiz-adv-x="442" 
d="M93 602l-33 37q53 60 110 60q24 0 58.5 -22t54.5 -22q29 0 71 35l28 -41q-56 -59 -106 -59q-22 0 -56.5 22t-57.5 22q-27 0 -69 -32z" />
    <glyph glyph-name="uniF6FF" unicode="&#xf6ff;" horiz-adv-x="526" 
d="M49 445v80h436v-58l-328 -387h336v-80h-460v58l327 387h-311zM259 579l-145 118l39 48l109 -89l109 88l37 -47l-145 -118h-4z" />
    <glyph glyph-name="uniF730" unicode="&#xf730;" horiz-adv-x="620" 
d="M50 250q0 107 71 183.5t189 76.5t189 -76.5t71 -183.5t-71 -183.5t-189 -76.5t-189 76.5t-71 183.5zM135 250q0 -75 48 -127.5t127 -52.5q80 0 127.5 52t47.5 128q0 77 -48 128.5t-127 51.5t-127 -51.5t-48 -128.5z" />
    <glyph glyph-name="uniF731" unicode="&#xf731;" horiz-adv-x="372" 
d="M40 405l162 103h55v-508h-85v405l-105 -71z" />
    <glyph glyph-name="uniF732" unicode="&#xf732;" horiz-adv-x="522" 
d="M45 0v60q313 129 313 261q0 49 -29 79.5t-82 30.5q-46 0 -84 -27t-52 -79l-53 49q17 62 72 99.5t119 37.5q95 0 142 -48t47 -124q0 -48 -23 -93.5t-57.5 -78t-67 -54.5t-60.5 -33h242v-80h-427z" />
    <glyph glyph-name="uniF733" unicode="&#xf733;" horiz-adv-x="532" 
d="M247 -210q-74 0 -129.5 31t-82.5 89l46 57q25 -47 69 -72t94 -25q64 0 101 35.5t37 90.5q0 56 -39.5 89t-103.5 33h-55v80h50q48 0 84.5 34.5t36.5 86.5t-30.5 81.5t-83.5 29.5q-94 0 -144 -87l-45 55q24 53 75.5 82.5t119.5 29.5q88 0 140.5 -47.5t52.5 -129.5
q0 -58 -28 -102t-81 -66v-3q63 -10 99.5 -57.5t36.5 -111.5q0 -92 -62 -147.5t-158 -55.5z" />
    <glyph glyph-name="uniF734" unicode="&#xf734;" horiz-adv-x="550" 
d="M343 -200v200h-323v57l277 443h92l-264 -420h218v195h80v-195h97v-80h-97v-200h-80z" />
    <glyph glyph-name="uniF735" unicode="&#xf735;" horiz-adv-x="516" 
d="M99 148l44 352h316v-80h-246l-26 -189q26 7 56 7q97 0 159 -59.5t62 -157.5q0 -105 -66 -168t-162 -63q-60 0 -115.5 27t-85.5 79l46 59q25 -40 68.5 -62.5t88.5 -22.5q60 0 100.5 42t40.5 106t-46.5 106t-123.5 42q-64 0 -110 -18z" />
    <glyph glyph-name="uniF736" unicode="&#xf736;" horiz-adv-x="554" 
d="M50 248q0 92 31 174.5t81.5 140t109 95.5t118.5 52l33 -61q-100 -26 -178.5 -107t-100.5 -204q49 93 165 93q87 0 143.5 -60t56.5 -155q0 -99 -65 -162.5t-151 -63.5q-113 0 -178 74.5t-65 183.5zM135 248q0 -76 41 -127t116 -51q57 0 94.5 41.5t37.5 98.5q0 64 -37 105
t-105 41q-56 0 -94.5 -32.5t-52.5 -75.5z" />
    <glyph glyph-name="uniF737" unicode="&#xf737;" horiz-adv-x="485" 
d="M30 420v80h420v-52l-258 -648h-88l249 620h-323z" />
    <glyph glyph-name="uniF738" unicode="&#xf738;" horiz-adv-x="595" 
d="M285 400h26q45 0 78.5 34t33.5 81q0 53 -37 84t-90 31t-88.5 -32t-35.5 -83q0 -47 34 -81t79 -34zM310 320h-22q-57 0 -97.5 -35t-40.5 -89q0 -55 41.5 -90.5t105.5 -35.5q67 0 107.5 34.5t40.5 91.5q-1 57 -39.5 90.5t-95.5 33.5zM298 -10q-98 0 -165.5 52t-67.5 139
q0 64 36.5 112t95.5 65v3q-47 16 -78.5 62.5t-31.5 103.5q0 81 60.5 132t149.5 51t150 -51t61 -132q0 -52 -31 -98t-84 -67v-3q59 -10 98 -57t39 -115q0 -91 -67 -144t-165 -53z" />
    <glyph glyph-name="uniF739" unicode="&#xf739;" horiz-adv-x="551" 
d="M501 247q0 -193 -98.5 -315.5t-251.5 -141.5l-27 63q118 23 192.5 101.5t90.5 201.5q-47 -87 -158 -87q-91 0 -150 61.5t-59 153.5q0 99 68 162.5t155 63.5q113 0 175.5 -73.5t62.5 -189.5zM416 247q0 77 -39 130t-113 53q-57 0 -98 -41.5t-41 -98.5q0 -61 38.5 -103.5
t105.5 -42.5q57 0 95 30.5t52 72.5z" />
    <glyph glyph-name="uniF760" unicode="&#xf760;" horiz-adv-x="295" 
d="M196 580l-136 125l50 61l125 -142z" />
    <glyph glyph-name="uniF761" unicode="&#xf761;" horiz-adv-x="590" 
d="M12 0l246 528h74l246 -528h-91l-64 140h-261l-64 -140h-86zM293 426l-95 -206h189z" />
    <glyph glyph-name="uniF762" unicode="&#xf762;" horiz-adv-x="524" 
d="M84 1v523q128 4 177 4q98 0 143 -35.5t45 -94.5q0 -46 -26.5 -78.5t-70.5 -44.5v-1q116 -16 116 -121q0 -78 -58 -117t-154 -39q-104 0 -172 4zM267 228h-98v-147q32 -4 93 -4q121 0 121 79q0 72 -116 72zM260 448q-34 0 -91 -3v-142h96q42 0 70.5 19.5t28.5 53.5
q0 72 -104 72z" />
    <glyph glyph-name="uniF763" unicode="&#xf763;" horiz-adv-x="542" 
d="M481 114l33 -64q-28 -27 -78 -43t-105 -16q-131 0 -211 74t-80 197q0 115 76 192.5t211 77.5q109 0 176 -52l-39 -64q-61 36 -137 36q-88 0 -142.5 -52t-54.5 -138t57 -138.5t152 -52.5q82 0 142 43z" />
    <glyph glyph-name="uniF764" unicode="&#xf764;" horiz-adv-x="611" 
d="M84 0v525h10q18 0 74 1t79 1q165 0 244.5 -71.5t79.5 -187.5q0 -120 -85.5 -195t-244.5 -75q-17 0 -68.5 1t-78.5 1h-10zM246 447q-25 0 -77 -2v-365q66 -2 75 -2q113 0 175 51t62 139q0 83 -59.5 131t-175.5 48z" />
    <glyph glyph-name="uniF765" unicode="&#xf765;" horiz-adv-x="488" 
d="M84 0v525h340v-80h-255v-140h230v-80h-230v-145h263v-80h-348z" />
    <glyph glyph-name="uniF766" unicode="&#xf766;" horiz-adv-x="454" 
d="M84 0v525h337v-80h-252v-157h228v-80h-228v-208h-85z" />
    <glyph glyph-name="uniF767" unicode="&#xf767;" horiz-adv-x="601" 
d="M325 203v75h228v-214q-37 -33 -98.5 -53t-117.5 -20q-137 0 -217 73.5t-80 197.5q0 115 79 192.5t207 77.5q108 0 184 -52l-37 -67q-55 39 -137 39q-92 0 -149 -51t-57 -139q0 -87 57.5 -139t151.5 -52q86 0 134 39v93h-148z" />
    <glyph glyph-name="uniF768" unicode="&#xf768;" horiz-adv-x="640" 
d="M471 0v228h-302v-228h-85v525h85v-217h302v217h85v-525h-85z" />
    <glyph glyph-name="uniF769" unicode="&#xf769;" horiz-adv-x="281" 
d="M98 0v525h85v-525h-85z" />
    <glyph glyph-name="uniF76A" unicode="&#xf76a;" horiz-adv-x="315" 
d="M231 525v-402q0 -131 -132 -131q-62 0 -93 31l29 65q23 -16 52 -16q59 0 59 65v388h85z" />
    <glyph glyph-name="uniF76B" unicode="&#xf76b;" horiz-adv-x="554" 
d="M526 525l-246 -245l259 -280h-116l-247 274l239 251h111zM84 0v525h85v-525h-85z" />
    <glyph glyph-name="uniF76C" unicode="&#xf76c;" horiz-adv-x="459" 
d="M84 0v525h85v-440h272v-85h-357z" />
    <glyph glyph-name="uniF76D" unicode="&#xf76d;" horiz-adv-x="740" 
d="M84 0v525h86l207 -251l198 251h81v-525h-85v396l-194 -240h-12l-196 237v-393h-85z" />
    <glyph glyph-name="uniF76E" unicode="&#xf76e;" horiz-adv-x="656" 
d="M572 0h-69l-339 386v-386h-80v525h68l340 -387v387h80v-525z" />
    <glyph glyph-name="uniF76F" unicode="&#xf76f;" horiz-adv-x="655" 
d="M40 262q0 115 81 192.5t207 77.5q124 0 205.5 -75t81.5 -195q0 -118 -81.5 -194.5t-205.5 -76.5q-125 0 -206.5 75t-81.5 196zM130 262q0 -81 57 -136t141 -55q90 0 143.5 54t53.5 137t-56.5 136.5t-140.5 53.5q-85 0 -141.5 -53.5t-56.5 -136.5z" />
    <glyph glyph-name="uniF770" unicode="&#xf770;" horiz-adv-x="499" 
d="M169 0h-85v525q15 0 76 1t81 1q116 0 167 -48.5t51 -126.5q0 -77 -54.5 -127t-154.5 -50q-40 0 -81 3v-178zM249 447q-36 0 -80 -2v-186q52 -4 78 -4q58 0 90 26t32 71q0 95 -120 95z" />
    <glyph glyph-name="uniF771" unicode="&#xf771;" horiz-adv-x="655" 
d="M40 262q0 115 81 192.5t207 77.5q124 0 205.5 -75t81.5 -195q0 -110 -74 -187l68 -75h-99l-28 30q-69 -39 -154 -39q-125 0 -206.5 75t-81.5 196zM130 262q0 -81 57 -136t141 -55q53 0 97 21l-46 51l56 51l49 -55q41 52 41 123q0 83 -56.5 136.5t-140.5 53.5
q-85 0 -141.5 -53.5t-56.5 -136.5z" />
    <glyph glyph-name="uniF772" unicode="&#xf772;" horiz-adv-x="534" 
d="M169 0h-85v525q15 0 74 1t82 1q216 0 216 -166q0 -62 -32.5 -100.5t-79.5 -50.5l170 -210h-108l-149 190h-88v-190zM244 447q-39 0 -75 -2v-175h81q48 0 82 24.5t34 65.5q0 38 -28.5 62.5t-93.5 24.5z" />
    <glyph glyph-name="uniF773" unicode="&#xf773;" horiz-adv-x="485" 
d="M355 143q0 25 -22.5 43.5t-56 29t-72.5 24.5t-72.5 30t-56 46.5t-22.5 72.5q0 63 49.5 103t149.5 40q48 0 102.5 -19.5t80.5 -47.5l-39 -63q-27 22 -70 36t-78 14q-49 0 -77 -18t-28 -49q0 -28 31 -47t75.5 -31.5t89 -29.5t75.5 -52t31 -87q0 -66 -56 -106.5t-141 -40.5
q-66 0 -125.5 22.5t-88.5 60.5l49 58q27 -27 74.5 -44t95.5 -17q43 0 72.5 19t29.5 53z" />
    <glyph glyph-name="uniF774" unicode="&#xf774;" horiz-adv-x="492" 
d="M8 445v80h476v-80h-196v-445h-85v445h-195z" />
    <glyph glyph-name="uniF775" unicode="&#xf775;" horiz-adv-x="620" 
d="M544 525v-307q0 -113 -64.5 -169.5t-162.5 -56.5q-109 0 -175.5 60t-66.5 171v302h85v-285q0 -77 40.5 -122.5t116.5 -45.5q69 0 105.5 42t36.5 121v290h85z" />
    <glyph glyph-name="uniF776" unicode="&#xf776;" horiz-adv-x="542" 
d="M540 525l-234 -527h-64l-241 527h96l180 -410l172 410h91z" />
    <glyph glyph-name="uniF777" unicode="&#xf777;" horiz-adv-x="806" 
d="M800 525l-166 -525h-79l-148 390l-145 -390h-82l-174 525h96l126 -395l139 395h84l143 -395l121 395h85z" />
    <glyph glyph-name="uniF778" unicode="&#xf778;" horiz-adv-x="550" 
d="M529 525l-199 -258l207 -267h-105l-158 202l-156 -202h-106l207 267l-198 258h106l149 -194l148 194h105z" />
    <glyph glyph-name="uniF779" unicode="&#xf779;" horiz-adv-x="508" 
d="M502 525l-206 -304v-221h-85v221l-205 304h103l148 -224l148 224h97z" />
    <glyph glyph-name="uniF77A" unicode="&#xf77a;" horiz-adv-x="526" 
d="M49 445v80h436v-58l-328 -387h336v-80h-460v58l327 387h-311z" />
    <glyph glyph-name="uniF7A8" unicode="&#xf7a8;" horiz-adv-x="388" 
d="M60 654q0 19 14 31t34 12q17 0 30 -12t13 -31q0 -21 -13 -33.5t-30 -12.5q-20 0 -34 12.5t-14 33.5zM238 654q0 19 13.5 31t32.5 12q18 0 31 -12t13 -31q0 -21 -13 -33.5t-31 -12.5q-19 0 -32.5 12.5t-13.5 33.5z" />
    <glyph glyph-name="uniF7AF" unicode="&#xf7af;" horiz-adv-x="384" 
d="M60 625v65h264v-65h-264z" />
    <glyph glyph-name="uniF7B4" unicode="&#xf7b4;" horiz-adv-x="295" 
d="M235 705l-135 -125l-40 44l126 142z" />
    <glyph glyph-name="uniF7B8" unicode="&#xf7b8;" horiz-adv-x="351" 
d="M60 -171l24 39q35 -23 71 -23q25 0 40.5 9.5t15.5 26.5q0 39 -58 39h-6v80h43v-43q101 -6 101 -80q0 -37 -33.5 -59.5t-92.5 -22.5q-54 0 -105 34z" />
    <glyph glyph-name="uniF7E0" unicode="&#xf7e0;" horiz-adv-x="590" 
d="M12 0l246 528h74l246 -528h-91l-64 140h-261l-64 -140h-86zM293 426l-95 -206h189zM320 580l-136 125l50 61l125 -142z" />
    <glyph glyph-name="uniF7E1" unicode="&#xf7e1;" horiz-adv-x="590" 
d="M12 0l246 528h74l246 -528h-91l-64 140h-261l-64 -140h-86zM293 426l-95 -206h189zM409 705l-135 -125l-40 44l126 142z" />
    <glyph glyph-name="uniF7E2" unicode="&#xf7e2;" horiz-adv-x="590" 
d="M12 0l246 528h74l246 -528h-91l-64 140h-261l-64 -140h-86zM293 426l-95 -206h189zM298 742l149 -118l-38 -48l-113 89l-115 -88l-38 47l151 118h4z" />
    <glyph glyph-name="uniF7E3" unicode="&#xf7e3;" horiz-adv-x="590" 
d="M12 0l246 528h74l246 -528h-91l-64 140h-261l-64 -140h-86zM293 426l-95 -206h189zM167 602l-33 37q53 60 110 60q24 0 58.5 -22t54.5 -22q29 0 71 35l28 -41q-56 -59 -106 -59q-22 0 -56.5 22t-57.5 22q-27 0 -69 -32z" />
    <glyph glyph-name="uniF7E4" unicode="&#xf7e4;" horiz-adv-x="590" 
d="M12 0l246 528h74l246 -528h-91l-64 140h-261l-64 -140h-86zM293 426l-95 -206h189zM161 654q0 19 14 31t34 12q17 0 30 -12t13 -31q0 -21 -13 -33.5t-30 -12.5q-20 0 -34 12.5t-14 33.5zM339 654q0 19 13.5 31t32.5 12q18 0 31 -12t13 -31q0 -21 -13 -33.5t-31 -12.5
q-19 0 -32.5 12.5t-13.5 33.5z" />
    <glyph glyph-name="uniF7E5" unicode="&#xf7e5;" horiz-adv-x="590" 
d="M12 0l246 528h74l246 -528h-91l-64 140h-261l-64 -140h-86zM293 426l-95 -206h189zM180 659q0 46 33 78.5t81 32.5q49 0 82.5 -32.5t33.5 -78.5q0 -45 -33.5 -77t-82.5 -32q-48 0 -81 32t-33 77zM232 660q0 -27 18 -46t45 -19t45 19t18 46t-18 46t-45 19t-45 -19t-18 -46
z" />
    <glyph glyph-name="uniF7E6" unicode="&#xf7e6;" horiz-adv-x="790" 
d="M396 0v142h-206l-109 -142h-99l170 215l245 310h328v-80h-244v-140h220v-80h-220v-145h253v-80h-338zM396 404l-142 -182h142v182z" />
    <glyph glyph-name="uniF7E7" unicode="&#xf7e7;" horiz-adv-x="541" 
d="M197 -171l24 39q35 -23 71 -23q25 0 40.5 9.5t15.5 26.5q0 39 -58 39h-6v74q-112 13 -178.5 85t-66.5 183q0 115 76 192.5t211 77.5q109 0 176 -52l-39 -64q-61 36 -137 36q-88 0 -142.5 -52t-54.5 -138t57 -138.5t152 -52.5q82 0 142 43l33 -64q-28 -27 -78 -43
t-105 -16h-3v-34q101 -6 101 -80q0 -37 -33.5 -59.5t-92.5 -22.5q-54 0 -105 34z" />
    <glyph glyph-name="uniF7E8" unicode="&#xf7e8;" horiz-adv-x="488" 
d="M84 0v525h340v-80h-255v-140h230v-80h-230v-145h263v-80h-348zM283 580l-136 125l50 61l125 -142z" />
    <glyph glyph-name="uniF7E9" unicode="&#xf7e9;" horiz-adv-x="488" 
d="M84 0v525h340v-80h-255v-140h230v-80h-230v-145h263v-80h-348zM367 705l-135 -125l-40 44l126 142z" />
    <glyph glyph-name="uniF7EA" unicode="&#xf7ea;" horiz-adv-x="488" 
d="M84 0v525h340v-80h-255v-140h230v-80h-230v-145h263v-80h-348zM257 742l149 -118l-38 -48l-113 89l-115 -88l-38 47l151 118h4z" />
    <glyph glyph-name="uniF7EB" unicode="&#xf7eb;" horiz-adv-x="488" 
d="M84 0v525h340v-80h-255v-140h230v-80h-230v-145h263v-80h-348zM120 654q0 19 14 31t34 12q17 0 30 -12t13 -31q0 -21 -13 -33.5t-30 -12.5q-20 0 -34 12.5t-14 33.5zM298 654q0 19 13.5 31t32.5 12q18 0 31 -12t13 -31q0 -21 -13 -33.5t-31 -12.5q-19 0 -32.5 12.5
t-13.5 33.5z" />
    <glyph glyph-name="uniF7EC" unicode="&#xf7ec;" horiz-adv-x="281" 
d="M98 0v525h85v-525h-85zM163 580l-136 125l50 61l125 -142z" />
    <glyph glyph-name="uniF7ED" unicode="&#xf7ed;" horiz-adv-x="281" 
d="M98 0v525h85v-525h-85zM267 705l-135 -125l-40 44l126 142z" />
    <glyph glyph-name="uniF7EE" unicode="&#xf7ee;" horiz-adv-x="281" 
d="M98 0v525h85v-525h-85zM143 742l149 -118l-38 -48l-113 89l-115 -88l-38 47l151 118h4z" />
    <glyph glyph-name="uniF7EF" unicode="&#xf7ef;" horiz-adv-x="281" 
d="M98 0v525h85v-525h-85zM6 654q0 19 14 31t34 12q17 0 30 -12t13 -31q0 -21 -13 -33.5t-30 -12.5q-20 0 -34 12.5t-14 33.5zM184 654q0 19 13.5 31t32.5 12q18 0 31 -12t13 -31q0 -21 -13 -33.5t-31 -12.5q-19 0 -32.5 12.5t-13.5 33.5z" />
    <glyph glyph-name="uniF7F0" unicode="&#xf7f0;" horiz-adv-x="621" 
d="M8 229v75h85v221h10q16 0 75 1t89 1q157 0 235.5 -73t78.5 -186q0 -116 -83.5 -193t-231.5 -77q-27 0 -82.5 1t-80.5 1h-10v229h-85zM269 447q-13 0 -91 -3v-140h151v-75h-151v-149q66 -2 82 -2q110 0 170.5 51.5t60.5 138.5q0 83 -57.5 131t-164.5 48z" />
    <glyph glyph-name="uniF7F1" unicode="&#xf7f1;" horiz-adv-x="656" 
d="M572 0h-69l-339 386v-386h-80v525h68l340 -387v387h80v-525zM194 602l-33 37q53 60 110 60q24 0 58.5 -22t54.5 -22q29 0 71 35l28 -41q-56 -59 -106 -59q-22 0 -56.5 22t-57.5 22q-27 0 -69 -32z" />
    <glyph glyph-name="uniF7F2" unicode="&#xf7f2;" horiz-adv-x="655" 
d="M40 262q0 115 81 192.5t207 77.5q124 0 205.5 -75t81.5 -195q0 -118 -81.5 -194.5t-205.5 -76.5q-125 0 -206.5 75t-81.5 196zM130 262q0 -81 57 -136t141 -55q90 0 143.5 54t53.5 137t-56.5 136.5t-140.5 53.5q-85 0 -141.5 -53.5t-56.5 -136.5zM344 580l-136 125l50 61
l125 -142z" />
    <glyph glyph-name="uniF7F3" unicode="&#xf7f3;" horiz-adv-x="655" 
d="M40 262q0 115 81 192.5t207 77.5q124 0 205.5 -75t81.5 -195q0 -118 -81.5 -194.5t-205.5 -76.5q-125 0 -206.5 75t-81.5 196zM130 262q0 -81 57 -136t141 -55q90 0 143.5 54t53.5 137t-56.5 136.5t-140.5 53.5q-85 0 -141.5 -53.5t-56.5 -136.5zM448 705l-135 -125
l-40 44l126 142z" />
    <glyph glyph-name="uniF7F4" unicode="&#xf7f4;" horiz-adv-x="655" 
d="M40 262q0 115 81 192.5t207 77.5q124 0 205.5 -75t81.5 -195q0 -118 -81.5 -194.5t-205.5 -76.5q-125 0 -206.5 75t-81.5 196zM130 262q0 -81 57 -136t141 -55q90 0 143.5 54t53.5 137t-56.5 136.5t-140.5 53.5q-85 0 -141.5 -53.5t-56.5 -136.5zM331 742l149 -118
l-38 -48l-113 89l-115 -88l-38 47l151 118h4z" />
    <glyph glyph-name="uniF7F5" unicode="&#xf7f5;" horiz-adv-x="655" 
d="M40 262q0 115 81 192.5t207 77.5q124 0 205.5 -75t81.5 -195q0 -118 -81.5 -194.5t-205.5 -76.5q-125 0 -206.5 75t-81.5 196zM130 262q0 -81 57 -136t141 -55q90 0 143.5 54t53.5 137t-56.5 136.5t-140.5 53.5q-85 0 -141.5 -53.5t-56.5 -136.5zM200 602l-33 37
q53 60 110 60q24 0 58.5 -22t54.5 -22q29 0 71 35l28 -41q-56 -59 -106 -59q-22 0 -56.5 22t-57.5 22q-27 0 -69 -32z" />
    <glyph glyph-name="uniF7F6" unicode="&#xf7f6;" horiz-adv-x="655" 
d="M40 262q0 115 81 192.5t207 77.5q124 0 205.5 -75t81.5 -195q0 -118 -81.5 -194.5t-205.5 -76.5q-125 0 -206.5 75t-81.5 196zM130 262q0 -81 57 -136t141 -55q90 0 143.5 54t53.5 137t-56.5 136.5t-140.5 53.5q-85 0 -141.5 -53.5t-56.5 -136.5zM194 654q0 19 14 31
t34 12q17 0 30 -12t13 -31q0 -21 -13 -33.5t-30 -12.5q-20 0 -34 12.5t-14 33.5zM372 654q0 19 13.5 31t32.5 12q18 0 31 -12t13 -31q0 -21 -13 -33.5t-31 -12.5q-19 0 -32.5 12.5t-13.5 33.5z" />
    <glyph glyph-name="uniF7F8" unicode="&#xf7f8;" horiz-adv-x="654" 
d="M39 262q0 115 81 192.5t207 77.5q106 0 182 -56l55 53l46 -47l-53 -52q57 -70 57 -168q0 -118 -81.5 -194.5t-205.5 -76.5q-97 0 -171 47l-53 -51l-46 47l48 47q-66 74 -66 181zM129 262q0 -67 40 -118l278 271q-51 37 -120 37q-85 0 -141.5 -53.5t-56.5 -136.5zM524 262
q0 60 -31 106l-274 -268q50 -29 108 -29q90 0 143.5 54t53.5 137z" />
    <glyph glyph-name="uniF7F9" unicode="&#xf7f9;" horiz-adv-x="620" 
d="M544 525v-307q0 -113 -64.5 -169.5t-162.5 -56.5q-109 0 -175.5 60t-66.5 171v302h85v-285q0 -77 40.5 -122.5t116.5 -45.5q69 0 105.5 42t36.5 121v290h85zM323 580l-136 125l50 61l125 -142z" />
    <glyph glyph-name="uniF7FA" unicode="&#xf7fa;" horiz-adv-x="620" 
d="M544 525v-307q0 -113 -64.5 -169.5t-162.5 -56.5q-109 0 -175.5 60t-66.5 171v302h85v-285q0 -77 40.5 -122.5t116.5 -45.5q69 0 105.5 42t36.5 121v290h85zM427 705l-135 -125l-40 44l126 142z" />
    <glyph glyph-name="uniF7FB" unicode="&#xf7fb;" horiz-adv-x="620" 
d="M544 525v-307q0 -113 -64.5 -169.5t-162.5 -56.5q-109 0 -175.5 60t-66.5 171v302h85v-285q0 -77 40.5 -122.5t116.5 -45.5q69 0 105.5 42t36.5 121v290h85zM313 742l149 -118l-38 -48l-113 89l-115 -88l-38 47l151 118h4z" />
    </font>
</defs>
</svg>
